<?xml version="1.0" encoding="UTF-8"?>
<!DOCTYPE svg PUBLIC "-//W3C//DTD SVG 1.1//EN" "http://www.w3.org/Graphics/SVG/1.1/DTD/svg11.dtd">
<!-- Creator: CorelDRAW 2019 (64-Bit Wersja próbna) -->
<svg xmlns="http://www.w3.org/2000/svg" xml:space="preserve" width="119.594mm" height="90.4418mm" version="1.1" style="shape-rendering:geometricPrecision; text-rendering:geometricPrecision; image-rendering:optimizeQuality; fill-rule:evenodd; clip-rule:evenodd"
viewBox="0 0 5770.01 4363.51"
 xmlns:xlink="http://www.w3.org/1999/xlink"
 xmlns:xodm="http://www.corel.com/coreldraw/odm/2003">
 <defs>
  <style type="text/css">
   <![CDATA[
    .str0 {stroke:#FFCC01;stroke-width:382.96;stroke-miterlimit:22.9256}
    .str2 {stroke:white;stroke-width:382.96;stroke-miterlimit:22.9256}
    .str1 {stroke:#FFCC01;stroke-width:382.96;stroke-linecap:round;stroke-miterlimit:22.9256}
    .fil1 {fill:none}
    .fil0 {fill:#FFCC01}
   ]]>
  </style>
 </defs>
 <g id="Warstwa_x0020_1">
  <metadata id="CorelCorpID_0Corel-Layer"/>
  <path class="fil0 str0" d="M2656.98 1781.48c278.68,175.1 485.38,454.66 566.13,783.35 37.3,-5.71 75.48,-6.59 114.11,-6.59 257.6,0 486.69,122 633.27,311.15 294.03,-154.92 494.59,-462.99 494.59,-818.47 0,-510.39 -413.85,-924.23 -924.23,-924.23 -416.92,0 -768.89,275.61 -883.86,654.78z"/>
  <line class="fil1 str1" x1="3537.09" y1="191.48" x2="3537.09" y2= "676.56" />
  <line class="fil1 str1" x1="5578.53" y1="2065.76" x2="5093.45" y2= "2065.76" />
  <path class="fil1 str2" d="M191.48 3672.13c0,273.84 222.06,499.9 495.47,499.9l2657.27 0c444.13,0 796.96,-364.3 796.96,-808.43 0,-186.51 -63.63,-358.13 -170.72,-495.05 -146.58,-189.14 -375.66,-310.72 -633.27,-310.72 -38.62,0 -76.79,1.1 -114.11,6.8 -80.76,-328.7 -287.45,-608.15 -566.13,-783.25 -197.93,-125.07 -432.71,-197 -683.75,-197 -710.51,0 -1286.29,575.8 -1286.29,1286.32 0,104.44 12.29,205.84 35.99,303.26 -11.84,-0.88 -23.7,0.91 -35.99,0.91 -273.39,-0.01 -495.44,223.83 -495.44,497.24z"/>
  <line class="fil1 str1" x1="2562.91" y1="1098.59" x2="2206.44" y2= "742.12" />
  <line class="fil1 str1" x1="4903.24" y1="3366.27" x2="4546.77" y2= "3009.8" />
  <line class="fil1 str1" x1="4908.07" y1="771.07" x2="4551.6" y2= "1127.54" />
 </g>
</svg>
