<?xml version="1.0" encoding="UTF-8"?>
<!DOCTYPE svg PUBLIC "-//W3C//DTD SVG 1.1//EN" "http://www.w3.org/Graphics/SVG/1.1/DTD/svg11.dtd">
<!-- Creator: CorelDRAW 2019 (64-Bit Wersja próbna) -->
<svg xmlns="http://www.w3.org/2000/svg" xml:space="preserve" width="91.1111mm" height="84.2424mm" version="1.1" style="shape-rendering:geometricPrecision; text-rendering:geometricPrecision; image-rendering:optimizeQuality; fill-rule:evenodd; clip-rule:evenodd"
viewBox="0 0 3385.93 3130.67"
 xmlns:xlink="http://www.w3.org/1999/xlink"
 xmlns:xodm="http://www.corel.com/coreldraw/odm/2003">
 <defs>
  <style type="text/css">
   <![CDATA[
    .str0 {stroke:white;stroke-width:294.98;stroke-miterlimit:22.9256}
    .fil1 {fill:none}
    .fil0 {fill:#FFCC01}
   ]]>
  </style>
 </defs>
 <g id="Warstwa_x0020_1">
  <metadata id="CorelCorpID_0Corel-Layer"/>
  <path class="fil0" d="M922.28 1336.99l-411.17 899.61c-314.65,-263.37 -511.11,-637.01 -511.11,-1051.41 0,-490.61 275.42,-924.28 696.39,-1185.19 -53.34,147.04 -82.11,303.76 -82.11,466.56 0,323.75 113.88,623.86 308,870.43z"/>
  <path class="fil1 str0" d="M196.13 2598.12c0,210.93 171.05,385.05 381.64,385.05l2046.8 0c342.1,0 613.87,-280.6 613.87,-622.7 0,-143.66 -49.01,-275.85 -131.5,-381.32 -112.91,-145.69 -289.36,-239.33 -487.79,-239.33 -29.74,0 -59.15,0.85 -87.89,5.24 -62.2,-253.19 -221.41,-468.43 -436.07,-603.31 -152.46,-96.34 -333.3,-151.74 -526.67,-151.74 -547.28,0 -990.78,443.52 -990.78,990.8 0,80.45 9.47,158.55 27.72,233.59 -9.12,-0.68 -18.26,0.7 -27.72,0.7 -210.58,-0.01 -381.62,172.4 -381.62,383.01z"/>
  <path class="fil0" d="M1625.48 725.3c-26.22,-5.5 -71.48,-27.76 -79.52,-115.07 -4.13,-43.25 -43.76,-104.1 -81.49,-124.91 -77.01,-42.68 -79.21,-93.06 -73.68,-119.41 5.53,-26.35 27.88,-71.66 115.44,-79.66 42.95,-3.97 103.66,-43.7 125,-81.9 42.27,-76.45 92.7,-78.72 118.89,-73.23 26.42,5.54 71.66,27.88 79.33,115.32 4.11,42.9 43.81,103.84 81.61,124.67 76.83,42.51 79.02,92.94 73.65,119.33 -5.51,26.27 -27.86,71.59 -115.41,79.75 -43.06,3.86 -103.88,43.73 -125.07,81.87 -41.94,76.53 -92.33,78.77 -118.76,73.23zm-38.05 -318.14c34.01,33.53 62.22,76.6 79.26,121.44 33.69,-34.2 76.89,-62.37 121.45,-79.33 -34.11,-33.46 -62.28,-76.69 -79.4,-121.38 -33.6,34.22 -76.73,62.33 -121.31,79.28z"/>
  <path class="fil0" d="M2623.66 1246.55c-26.22,-5.5 -71.48,-27.76 -79.52,-115.07 -4.13,-43.25 -43.76,-104.1 -81.49,-124.91 -77.01,-42.68 -79.21,-93.06 -73.68,-119.41 5.53,-26.35 27.88,-71.66 115.44,-79.66 42.95,-3.97 103.66,-43.7 125,-81.9 42.27,-76.45 92.7,-78.72 118.89,-73.23 26.42,5.54 71.66,27.88 79.33,115.32 4.11,42.9 43.81,103.84 81.61,124.67 76.83,42.51 79.02,92.94 73.65,119.33 -5.51,26.27 -27.86,71.59 -115.41,79.75 -43.06,3.86 -103.88,43.73 -125.07,81.87 -41.94,76.53 -92.33,78.77 -118.76,73.23zm-38.05 -318.14c34.01,33.53 62.22,76.6 79.26,121.44 33.69,-34.2 76.89,-62.37 121.45,-79.33 -34.11,-33.46 -62.28,-76.69 -79.4,-121.38 -33.6,34.22 -76.73,62.33 -121.31,79.28z"/>
 </g>
</svg>
