<?xml version="1.0" encoding="UTF-8"?>
<!DOCTYPE svg PUBLIC "-//W3C//DTD SVG 1.1//EN" "http://www.w3.org/Graphics/SVG/1.1/DTD/svg11.dtd">
<!-- Creator: CorelDRAW 2019 (64-Bit Wersja próbna) -->
<svg xmlns="http://www.w3.org/2000/svg" xml:space="preserve" width="96.0138mm" height="66.483mm" version="1.1" style="shape-rendering:geometricPrecision; text-rendering:geometricPrecision; image-rendering:optimizeQuality; fill-rule:evenodd; clip-rule:evenodd"
viewBox="0 0 1765.68 1222.61"
 xmlns:xlink="http://www.w3.org/1999/xlink"
 xmlns:xodm="http://www.corel.com/coreldraw/odm/2003">
 <defs>
  <style type="text/css">
   <![CDATA[
    .str1 {stroke:white;stroke-width:145.97;stroke-miterlimit:22.9256}
    .str0 {stroke:#CCCCCC;stroke-width:9.19;stroke-miterlimit:22.9256}
    .fil1 {fill:none}
    .fil0 {fill:#CCCCCC}
   ]]>
  </style>
 </defs>
 <g id="Warstwa_x0020_1">
  <metadata id="CorelCorpID_0Corel-Layer"/>
  <path class="fil0 str0" d="M1499 635.57l67.74 0c108.3,0 194.33,-88.83 194.33,-197.13 0,-45.48 -15.52,-87.33 -41.63,-120.71 -35.74,-46.12 -91.6,-75.77 -154.42,-75.77 -9.42,0 -18.72,0.27 -27.82,1.66 -19.69,-80.15 -70.09,-148.29 -138.05,-190.99 -48.26,-30.5 -105.51,-48.03 -166.73,-48.03 -131.87,0 -244.69,81.35 -291.07,196.61 24.91,10.45 48.77,22.91 71.37,37.19 106.22,66.74 185.01,173.26 215.79,298.55 14.22,-2.17 28.77,-2.59 43.49,-2.59 90.13,0 171.09,39.05 226.99,101.22z"/>
  <path class="fil1 str1" d="M72.99 959.08c0,104.38 84.64,190.54 188.85,190.54l1012.85 0c169.29,0 303.77,-138.86 303.77,-308.14 0,-71.09 -24.25,-136.51 -65.07,-188.69 -55.87,-72.09 -143.19,-118.43 -241.38,-118.43 -14.72,0 -29.27,0.42 -43.49,2.59 -30.78,-125.29 -109.56,-231.8 -215.79,-298.55 -75.44,-47.67 -164.93,-75.09 -260.62,-75.09 -270.82,0 -490.29,219.48 -490.29,490.3 0,39.81 4.69,78.46 13.72,115.59 -4.51,-0.34 -9.03,0.35 -13.72,0.35 -104.21,-0 -188.84,85.31 -188.84,189.53z"/>
 </g>
</svg>
