<?xml version="1.0" encoding="UTF-8"?>
<!DOCTYPE svg PUBLIC "-//W3C//DTD SVG 1.1//EN" "http://www.w3.org/Graphics/SVG/1.1/DTD/svg11.dtd">
<!-- Creator: CorelDRAW 2019 (64-Bit Wersja próbna) -->
<svg xmlns="http://www.w3.org/2000/svg" xml:space="preserve" width="39.9712mm" height="34.0548mm" version="1.1" style="shape-rendering:geometricPrecision; text-rendering:geometricPrecision; image-rendering:optimizeQuality; fill-rule:evenodd; clip-rule:evenodd"
viewBox="0 0 397.09 338.31"
 xmlns:xlink="http://www.w3.org/1999/xlink"
 xmlns:xodm="http://www.corel.com/coreldraw/odm/2003">
 <defs>
  <style type="text/css">
   <![CDATA[
    .fil0 {fill:#B0DD10}
    .fil1 {fill:white}
   ]]>
  </style>
 </defs>
 <g id="Warstwa_x0020_1">
  <metadata id="CorelCorpID_0Corel-Layer"/>
  <g id="_2161100066176">
   <path class="fil0" d="M186.46 104.04c-23.28,3.69 -38.35,16.44 -47.77,31.5 -13.1,20.95 -10.06,42 -10.07,69.88 -0.01,27.81 7.31,43.5 21.88,57.21 32.11,30.21 83.3,24.39 107.09,-13.21 13.73,-21.7 10.94,-40.56 10.94,-69.24 0,-27.02 -4.96,-43.2 -21,-58.32 -13.37,-12.6 -34.53,-22.04 -61.07,-17.83zm-40.15 79.81l-7.59 0.13 -0.61 24.81c0,36.14 24.84,61.77 60.34,62.68 33.97,0.87 61.1,-28.71 60.48,-62.68l-0.36 -25.46c-4.19,-2.28 -9.72,-2.78 -14.43,-4.24 -22.44,-6.93 -30.17,-20.17 -34.75,-22.54 -3.59,1.17 -3.58,2.57 -6.01,5.04 -1.98,2.01 -3.84,3.47 -5.83,5.08 -13.61,11.06 -32.53,17.18 -51.25,17.18zm17.62 48.49c1.29,12.38 29.95,32.4 56.39,15.93 5.02,-3.13 12.59,-9.35 12.83,-16.07 -3.15,-1.16 -5.99,-3.01 -9.46,-3.14 -3.4,4.55 -4.57,7.13 -9.28,10 -9.14,5.57 -22.37,5.83 -31.25,0.28 -5.58,-3.48 -5.73,-6.03 -9.94,-10.45 -3.28,0.54 -6.29,2.38 -9.3,3.46zm0.18 -42.05c-11.97,6.61 -2.6,26.04 10.6,19.07 12.07,-6.37 2.36,-26.23 -10.6,-19.07zm58.87 0.01c-13.14,6.71 -2.93,25.61 9.82,19.19 12.12,-6.11 3.55,-26.02 -9.82,-19.19z"/>
   <g>
    <path class="fil1" d="M314.69 302.71c25.02,-27.67 40.26,-64.35 40.26,-104.58 0,-43.07 -17.46,-82.07 -45.69,-110.3 -28.23,-28.23 -67.22,-45.69 -110.3,-45.69 -43.07,0 -82.07,17.46 -110.3,45.69 -28.23,28.23 -45.69,67.22 -45.69,110.3 0,41.47 16.19,79.16 42.58,107.1l0.33 0.52c3.09,5.03 3.85,10.84 2.57,16.16 -1.27,5.32 -4.58,10.16 -9.61,13.25 -5.03,3.09 -10.84,3.85 -16.16,2.57 -2.85,-0.68 -5.57,-1.95 -7.95,-3.75 -1.8,-1.91 -3.56,-3.86 -5.29,-5.84l-0.01 -0.02c-0.53,-0.87 -1,-1.76 -1.39,-2.67l-0.59 0.36c-29.09,-34.48 -46.63,-79.04 -46.63,-127.68 0,-54.71 22.18,-104.24 58.03,-140.09 35.85,-35.85 85.38,-58.03 140.09,-58.03 54.71,0 104.24,22.18 140.1,58.03 35.85,35.85 58.03,85.38 58.03,140.09 0,47.8 -16.93,91.64 -45.11,125.86l-0.36 -0.22c-0.23,0.52 -0.48,1.04 -0.75,1.55 -2.11,2.52 -4.28,4.98 -6.51,7.39 -2.24,1.58 -4.75,2.71 -7.38,3.34 -5.32,1.27 -11.13,0.52 -16.16,-2.57 -5.03,-3.09 -8.33,-7.93 -9.61,-13.25 -1.27,-5.32 -0.52,-11.13 2.57,-16.16 0.29,-0.47 0.59,-0.92 0.9,-1.35z"/>
    <path class="fil0" d="M55.06 135.86c-8.31,19.07 -12.92,40.13 -12.92,62.26 0,41.47 16.19,79.16 42.58,107.1l0.33 0.52c3.09,5.03 3.85,10.84 2.57,16.16 -1.27,5.32 -4.58,10.16 -9.61,13.25 -5.03,3.09 -10.84,3.85 -16.16,2.57 -2.85,-0.68 -5.57,-1.95 -7.95,-3.75 -1.8,-1.91 -3.56,-3.86 -5.29,-5.84l-0.01 -0.02c-0.53,-0.87 -1,-1.76 -1.39,-2.67l-0.59 0.36c-29.09,-34.48 -46.63,-79.04 -46.63,-127.68 0,-28.74 6.12,-56.06 17.13,-80.71l0.01 0 0.02 -0.07c1.13,-2.52 2.3,-5.01 3.53,-7.47 2.31,-3.13 5.4,-5.52 8.87,-6.99 3.63,-1.54 7.69,-2.08 11.73,-1.42 2.61,0.52 5.17,1.53 7.54,3.08 4.94,3.23 8.11,8.16 9.23,13.51 1.12,5.35 0.2,11.14 -3.03,16.08 -0.56,0.85 -1.17,1.66 -1.82,2.4l0.86 0.56c0.34,-0.4 0.67,-0.81 0.99,-1.24z"/>
   </g>
  </g>
 </g>
</svg>
