<?xml version="1.0" encoding="UTF-8"?>
<!DOCTYPE svg PUBLIC "-//W3C//DTD SVG 1.1//EN" "http://www.w3.org/Graphics/SVG/1.1/DTD/svg11.dtd">
<!-- Creator: CorelDRAW 2019 (64-Bit Wersja próbna) -->
<svg xmlns="http://www.w3.org/2000/svg" xml:space="preserve" width="115.842mm" height="109.474mm" version="1.1" style="shape-rendering:geometricPrecision; text-rendering:geometricPrecision; image-rendering:optimizeQuality; fill-rule:evenodd; clip-rule:evenodd"
viewBox="0 0 5418.13 5120.29"
 xmlns:xlink="http://www.w3.org/1999/xlink"
 xmlns:xodm="http://www.corel.com/coreldraw/odm/2003">
 <defs>
  <style type="text/css">
   <![CDATA[
    .str0 {stroke:#FFCC01;stroke-width:371.25;stroke-miterlimit:22.9256}
    .str1 {stroke:#FFCC01;stroke-width:371.25;stroke-linecap:round;stroke-miterlimit:22.9256}
    .str2 {stroke:white;stroke-width:371.25;stroke-linecap:round;stroke-miterlimit:22.9256}
    .fil1 {fill:none}
    .fil2 {fill:none;fill-rule:nonzero}
    .fil3 {fill:#00C7FB}
    .fil0 {fill:#FFCC01}
   ]]>
  </style>
 </defs>
 <g id="Warstwa_x0020_1">
  <metadata id="CorelCorpID_0Corel-Layer"/>
  <path class="fil0 str0" d="M2573.32 1727.02c270.16,169.75 470.54,440.76 548.82,759.4 36.16,-5.53 73.17,-6.38 110.62,-6.38 249.73,0 471.81,118.27 613.91,301.64 285.05,-150.18 479.47,-448.84 479.47,-793.45 0,-494.79 -401.2,-895.98 -895.98,-895.98 -404.18,0 -745.38,267.19 -856.84,634.77z"/>
  <line class="fil1 str1" x1="3426.53" y1="185.63" x2="3426.53" y2= "655.88" />
  <line class="fil1 str1" x1="5232.5" y1="2002.61" x2="4762.25" y2= "2002.61" />
  <path class="fil2 str2" d="M3248.3 4041.87c427.57,-3.44 766.29,-355.19 766.29,-783.63 0,-180.81 -61.69,-347.18 -165.5,-479.92 -142.1,-183.36 -364.17,-301.22 -613.91,-301.22 -37.44,0 -74.45,1.07 -110.62,6.59 -78.29,-318.66 -278.66,-589.56 -548.82,-759.31 -191.88,-121.25 -419.49,-190.97 -662.84,-190.97 -688.79,0 -1246.97,558.2 -1246.97,1247 0,101.25 11.92,199.55 34.89,293.99 -11.48,-0.86 -22.98,0.88 -34.89,0.88 -265.03,-0.01 -480.29,216.98 -480.29,482.04 0,265.47 215.28,484.62 480.32,484.62l235.21 0"/>
  <line class="fil1 str1" x1="2482.12" y1="1065.01" x2="2136.55" y2= "719.43" />
  <line class="fil1 str1" x1="4750.91" y1="3263.36" x2="4405.34" y2= "2917.78" />
  <line class="fil1 str1" x1="4755.59" y1="747.5" x2="4410.02" y2= "1093.07" />
  <path class="fil3" d="M1633.89 4097.7c-220.14,65.7 -561.79,424.96 -272.13,600.48 149.18,90.39 324.2,18.95 363.48,-124.54 49.12,-179.43 -43.79,-344.04 -91.35,-475.94z"/>
  <path class="fil3" d="M2296.75 3847.34c-220.14,65.7 -561.79,424.96 -272.13,600.48 149.18,90.39 324.2,18.95 363.48,-124.54 49.12,-179.43 -43.79,-344.04 -91.35,-475.94z"/>
  <path class="fil3" d="M2124.58 4661.82c-157.56,47.02 -402.08,304.15 -194.76,429.78 106.77,64.69 232.03,13.56 260.15,-89.14 35.15,-128.42 -31.34,-246.23 -65.39,-340.64z"/>
  <path class="fil3" d="M2739.82 4183.7c-163.14,48.69 -416.34,314.93 -201.68,445.01 110.56,66.99 240.27,14.05 269.38,-92.29 36.4,-132.97 -32.45,-254.97 -67.7,-352.72z"/>
 </g>
</svg>
