<?xml version="1.0" encoding="UTF-8"?>
<!DOCTYPE svg PUBLIC "-//W3C//DTD SVG 1.1//EN" "http://www.w3.org/Graphics/SVG/1.1/DTD/svg11.dtd">
<!-- Creator: CorelDRAW 2019 (64-Bit Wersja próbna) -->
<svg xmlns="http://www.w3.org/2000/svg" xml:space="preserve" width="89.8024mm" height="91.3979mm" version="1.1" style="shape-rendering:geometricPrecision; text-rendering:geometricPrecision; image-rendering:optimizeQuality; fill-rule:evenodd; clip-rule:evenodd"
viewBox="0 0 1515.91 1542.84"
 xmlns:xlink="http://www.w3.org/1999/xlink"
 xmlns:xodm="http://www.corel.com/coreldraw/odm/2003">
 <defs>
  <style type="text/css">
   <![CDATA[
    .str0 {stroke:white;stroke-width:133.99;stroke-linecap:round;stroke-miterlimit:22.9256}
    .fil0 {fill:none;fill-rule:nonzero}
    .fil1 {fill:#F0CB28}
   ]]>
  </style>
 </defs>
 <g id="Warstwa_x0020_1">
  <metadata id="CorelCorpID_0Corel-Layer"/>
  <path class="fil0 str0" d="M1172.35 972.33c154.32,-1.24 276.56,-128.19 276.56,-282.82 0,-65.26 -22.26,-125.3 -59.73,-173.21 -51.29,-66.18 -131.44,-108.71 -221.57,-108.71 -13.51,0 -26.87,0.38 -39.92,2.38 -28.25,-115.01 -100.57,-212.78 -198.08,-274.04 -69.25,-43.76 -151.4,-68.92 -239.23,-68.92 -248.59,0 -450.05,201.46 -450.05,450.06 0,36.54 4.3,72.02 12.59,106.11 -4.14,-0.31 -8.29,0.32 -12.59,0.32 -95.65,-0 -173.34,78.31 -173.34,173.98 0,95.81 77.7,174.9 173.35,174.9l84.89 0"/>
  <path class="fil1" d="M409.63 1343.03l5.22 0c7.23,-5.72 3.65,-1.06 10.89,-13.13l120.43 -200.97c3.04,-7.25 -2.4,-14.05 -8.91,-14.47 -7.67,-0.49 -17.25,0 -25.13,0 1.35,-4.46 5.46,-11.69 7.64,-16.12l23.35 -47.29c5.05,-10.3 10.63,-21.27 15.6,-31.46 4.92,-10.11 11.2,-18.21 7.95,-25.32 -1.84,-4.02 -3.48,-3.47 -6.36,-5.89l-68.17 0c-5.63,4.15 -4.96,1.73 -8.08,9.18l-35.86 84.68c-33.93,79.29 -37.65,73.81 11.5,73.81 -1.77,7.41 -5.37,16.51 -7.88,24.01l-47.66 142.83c-5.42,16.22 -1.65,15.24 5.47,20.14z"/>
  <path class="fil1" d="M550.01 1542.84l5.99 0c8.31,-6.57 4.19,-1.22 12.51,-15.09l138.33 -230.83c3.49,-8.33 -2.76,-16.14 -10.23,-16.63 -8.81,-0.57 -19.81,0.01 -28.86,0.01 1.55,-5.12 6.28,-13.43 8.77,-18.52l26.82 -54.32c5.8,-11.83 12.21,-24.43 17.92,-36.14 5.65,-11.61 12.86,-20.92 9.13,-29.07 -2.11,-4.62 -4,-3.99 -7.3,-6.76l-78.3 0c-6.47,4.77 -5.7,1.99 -9.28,10.55l-41.19 97.26c-38.97,91.07 -43.24,84.78 13.21,84.78 -2.03,8.51 -6.17,18.96 -9.05,27.58l-54.74 164.06c-6.23,18.62 -1.9,17.51 6.28,23.13z"/>
  <path class="fil1" d="M771.4 1401.74l5.99 0c8.31,-6.57 4.19,-1.22 12.51,-15.09l138.33 -230.83c3.49,-8.33 -2.76,-16.14 -10.23,-16.63 -8.81,-0.57 -19.81,0.01 -28.86,0.01 1.55,-5.12 6.28,-13.43 8.77,-18.52l26.82 -54.32c5.8,-11.83 12.21,-24.43 17.92,-36.14 5.65,-11.61 12.86,-20.92 9.13,-29.07 -2.11,-4.62 -4,-3.99 -7.3,-6.76l-78.3 0c-6.47,4.77 -5.7,1.99 -9.28,10.55l-41.19 97.26c-38.97,91.07 -43.24,84.78 13.21,84.78 -2.03,8.51 -6.17,18.96 -9.05,27.58l-54.74 164.06c-6.23,18.62 -1.9,17.51 6.28,23.13z"/>
 </g>
</svg>
