<?xml version="1.0" encoding="UTF-8"?>
<!DOCTYPE svg PUBLIC "-//W3C//DTD SVG 1.1//EN" "http://www.w3.org/Graphics/SVG/1.1/DTD/svg11.dtd">
<!-- Creator: CorelDRAW 2019 (64-Bit Wersja próbna) -->
<svg xmlns="http://www.w3.org/2000/svg" xml:space="preserve" width="39.8865mm" height="34.0548mm" version="1.1" style="shape-rendering:geometricPrecision; text-rendering:geometricPrecision; image-rendering:optimizeQuality; fill-rule:evenodd; clip-rule:evenodd"
viewBox="0 0 706.41 603.13"
 xmlns:xlink="http://www.w3.org/1999/xlink"
 xmlns:xodm="http://www.corel.com/coreldraw/odm/2003">
 <defs>
  <style type="text/css">
   <![CDATA[
    .fil1 {fill:#FFD911}
    .fil0 {fill:white}
   ]]>
  </style>
 </defs>
 <g id="Warstwa_x0020_1">
  <metadata id="CorelCorpID_0Corel-Layer"/>
  <g id="_2161167846688">
   <path class="fil0" d="M559.52 539.65c44.6,-49.32 71.77,-114.71 71.77,-186.45 0,-76.79 -31.13,-146.31 -81.45,-196.63 -50.32,-50.32 -119.84,-81.45 -196.63,-81.45 -76.79,0 -146.31,31.13 -196.63,81.45 -50.32,50.32 -81.45,119.84 -81.45,196.63 0,73.93 28.86,141.12 75.91,190.93l0.59 0.93c5.51,8.97 6.86,19.32 4.59,28.81 -2.27,9.49 -8.16,18.11 -17.13,23.62 -8.97,5.51 -19.32,6.86 -28.81,4.59 -5.09,-1.22 -9.93,-3.47 -14.17,-6.69 -3.21,-3.41 -6.35,-6.87 -9.43,-10.4l-0.02 -0.03c-0.95,-1.55 -1.78,-3.14 -2.48,-4.76l-1.05 0.64c-51.87,-61.48 -83.13,-140.9 -83.13,-227.63 0,-97.54 39.54,-185.84 103.45,-249.75 63.92,-63.92 152.22,-103.45 249.75,-103.45 97.54,0 185.84,39.54 249.76,103.45 63.92,63.92 103.45,152.22 103.45,249.75 0,85.21 -30.17,163.37 -80.41,224.38l-0.64 -0.39c-0.41,0.93 -0.85,1.86 -1.34,2.77 -3.76,4.49 -7.63,8.88 -11.6,13.17 -4,2.82 -8.47,4.83 -13.16,5.95 -9.49,2.27 -19.84,0.92 -28.81,-4.59 -8.97,-5.51 -14.86,-14.13 -17.13,-23.62 -2.27,-9.49 -0.92,-19.84 4.59,-28.81 0.51,-0.83 1.04,-1.63 1.61,-2.41z"/>
   <path class="fil1" d="M560.16 167.47c-3.34,-3.72 -6.78,-7.36 -10.32,-10.89 -50.32,-50.32 -119.84,-81.45 -196.63,-81.45 -76.79,0 -146.31,31.13 -196.63,81.45 -50.32,50.32 -81.45,119.84 -81.45,196.63 0,73.93 28.86,141.12 75.91,190.93l0.59 0.93c5.51,8.97 6.86,19.32 4.59,28.81 -2.27,9.49 -8.16,18.11 -17.13,23.62 -8.97,5.51 -19.32,6.86 -28.81,4.59 -5.09,-1.22 -9.93,-3.47 -14.17,-6.69 -3.21,-3.41 -6.35,-6.87 -9.43,-10.4l-0.02 -0.03c-0.95,-1.55 -1.78,-3.14 -2.48,-4.76l-1.05 0.64c-51.87,-61.48 -83.13,-140.9 -83.13,-227.63 0,-97.54 39.54,-185.84 103.45,-249.75 63.92,-63.92 152.22,-103.45 249.75,-103.45 97.54,0 185.84,39.54 249.76,103.45 9.22,9.22 17.94,18.96 26.1,29.16 1.69,4.8 2.38,9.85 2.09,14.84 -0.56,9.74 -4.83,19.26 -12.69,26.27 -7.86,7 -17.81,10.16 -27.55,9.6 -9.74,-0.56 -19.26,-4.83 -26.27,-12.69 -1.21,-1.36 -2.3,-2.78 -3.29,-4.25l-1.21 1.08z"/>
  </g>
  <g id="_2161167845760">
   <path class="fil1" d="M288.88 459.62c1.79,-3.45 6.53,-7.23 11.8,-8.41 8.38,7.44 9.82,11.05 23.92,14.25 10.98,2.49 23.24,3.69 35.25,3.41 11.72,-0.27 23.4,-1.88 32.45,-6.21 9.58,-4.58 16.04,-15.64 24.98,-4.52 -11.45,22.83 -97.78,32.01 -128.41,1.48zm41.6 -64.02c52.93,-7.39 71.95,-0.2 65.29,43.45 -1.85,12.12 -7.16,15.82 -19.72,17.46 -20,2.62 -51.92,2.6 -62.16,-10.03 -2.5,-3.08 -16.27,-46.29 16.59,-50.87zm-107.64 -31.68c5.08,0.11 69.77,42.54 71.9,46.86 4.79,9.69 3.33,26.93 -4.8,32.24 -22.97,14.99 -25.96,-14.78 -36.9,-33.35 -5.04,-8.55 -15.62,-4.49 -25.04,-14.91 -7.22,-7.99 -10.41,-19.29 -5.17,-30.84zm255.32 1.07c11.69,-4.63 3.64,23.45 1.8,26.96 -10.1,19.37 -15.61,5.41 -25.09,14.81 -5.31,5.25 -15.84,49.16 -34.34,39.68 -12.14,-6.23 -12.48,-13.96 -10.27,-29.64 1.8,-12.77 26.75,-24 44.04,-35.74 6.1,-4.14 19.31,-14.26 23.87,-16.07zm-248.42 -16.36c12.26,-4.92 17.12,-0.91 21.95,-14.88 8.09,-23.42 7.8,-44.03 42.19,-65.74 31.02,-19.58 13.18,2.23 47.29,9.3 36.1,7.48 49.69,-16.93 54.16,-17.35 21.02,5.31 37.15,21.63 46.73,39.12 5.28,9.64 8.2,20.1 11.2,31.64 1.85,7.11 3.02,11 8.76,13.28 8.28,3.3 10.11,-0.63 13.78,7.69l-68.34 43.09c-5.7,1.86 -8.59,-2.74 -14.12,-5.71 -10.79,-5.81 -24.13,-5.05 -37.94,-5.08 -78.6,-0.21 -36.37,24.23 -71.57,2.26l-42.77 -26.81c-5.18,-3.08 -10.44,-4.03 -11.31,-10.79zm131.33 -161.76c-23.05,4.65 -34.9,16.75 -43.46,33.9 -12.87,25.79 -11.54,10.61 -42.71,34.15 -14.97,11.31 -26.68,25.23 -34.37,42.46 -4.22,9.46 -5.22,20.49 -12.52,26.03 -9.68,7.34 -14.54,9.09 -20.14,19.87 -13.67,26.29 -8.47,65.7 23.39,79.32 9.35,4 8.16,8.22 16.36,22.05 17.91,30.23 54.7,54 100.35,55.05 48.18,1.11 85.57,-19.97 105.94,-48.05 6.6,-9.1 17.32,-24.39 26.08,-31.59 4.2,-3.45 6.7,-4.65 10.62,-8.58 13.12,-13.16 19.84,-38.97 11.06,-61.03 -8.97,-22.51 -24.99,-19.55 -33.23,-43.81 -12.38,-36.47 -26.77,-46.08 -53.99,-61.22 -16.24,-9.03 -38.23,-14.44 -42.89,-33.88 -3.6,-15.03 7.92,-28.38 -10.48,-24.68z"/>
   <path class="fil1" d="M389.74 344.29c-19.17,10.07 -6.68,40.16 14.77,29.84 18.87,-9.07 3.68,-39.54 -14.77,-29.84z"/>
   <path class="fil1" d="M303.05 344.7c-8.03,3.54 -13.34,9.42 -9.96,20.29 2.53,8.12 12.41,13.85 22.94,9.5 18.38,-7.6 7.2,-38.67 -12.98,-29.79z"/>
   <path class="fil1" d="M323.48 410.45c6.17,3.95 53.83,3.55 59.43,-0.02 -0.61,-7.98 -8.59,-5.5 -17.16,-5.5l-31.06 0.01c-6.19,0 -11.52,-0.97 -11.22,5.51z"/>
   <path class="fil1" d="M382.41 440.4c-6.49,-3.41 -50.24,-2.43 -58.72,-0.86 1.08,7.23 -3.31,4.03 3.96,6.38l44.11 0.1c14.19,0.12 10.44,-1.91 10.65,-5.63z"/>
   <path class="fil1" d="M323.64 425.61c2.49,4.56 -2.95,1.82 4.97,3.48l40.12 0.05c15.07,0.18 11.76,-0.08 13.99,-3.53 -1.53,-2.56 2.63,-3.87 -12.49,-3.67l-40.11 -0.01c-10.01,1.34 -4.37,1.74 -6.47,3.68z"/>
  </g>
 </g>
</svg>
