<?xml version="1.0" encoding="UTF-8"?>
<!DOCTYPE svg PUBLIC "-//W3C//DTD SVG 1.1//EN" "http://www.w3.org/Graphics/SVG/1.1/DTD/svg11.dtd">
<!-- Creator: CorelDRAW 2019 (64-Bit Wersja próbna) -->
<svg xmlns="http://www.w3.org/2000/svg" xml:space="preserve" width="2.3746mm" height="2.6131mm" version="1.1" style="shape-rendering:geometricPrecision; text-rendering:geometricPrecision; image-rendering:optimizeQuality; fill-rule:evenodd; clip-rule:evenodd"
viewBox="0 0 1.24 1.37"
 xmlns:xlink="http://www.w3.org/1999/xlink"
 xmlns:xodm="http://www.corel.com/coreldraw/odm/2003">
 <defs>
  <style type="text/css">
   <![CDATA[
    .fil0 {fill:white}
   ]]>
  </style>
 </defs>
 <g id="Warstwa_x0020_1">
  <metadata id="CorelCorpID_0Corel-Layer"/>
  <path class="fil0" d="M0.13 1.18l0 -0.56 0.99 0 0 0.56c0,0.04 -0.03,0.06 -0.07,0.06l-0.86 0c-0.04,0 -0.07,-0.03 -0.07,-0.06zm0 -0.87c0,-0.03 0.03,-0.06 0.06,-0.06l0.13 0c0,0.04 -0.01,0.08 0.02,0.1 0.04,0.04 0.11,0.01 0.11,-0.04l0 -0.07 0.37 0c0,0.03 -0,0.07 0.01,0.09l0.01 0.02c0.03,0.03 0.07,0.03 0.09,-0 0.02,-0.03 0.02,-0.06 0.02,-0.1l0.13 0c0.03,0 0.06,0.03 0.06,0.06l0 0.19 -0.99 0 0 -0.19zm0.19 -0.24l0 0.06 -0.13 0c-0.03,0 -0.08,0.02 -0.1,0.04 -0,0 -0.01,0.01 -0.01,0.01 -0,0 -0.01,0.01 -0.01,0.01 -0.02,0.02 -0.02,0.02 -0.04,0.05 -0.01,0.02 -0.02,0.05 -0.02,0.07l0 0.87c0,0.06 0.03,0.11 0.07,0.14 0.03,0.03 0.08,0.04 0.12,0.04l0.86 0c0.05,0 0.1,-0.02 0.14,-0.05 0.03,-0.03 0.06,-0.07 0.06,-0.13l0 -0.87c0,-0.03 -0.01,-0.06 -0.02,-0.07 -0.01,-0.01 -0.01,-0.02 -0.02,-0.03 -0.01,-0.02 -0.01,-0.01 -0.02,-0.03 -0.01,-0.01 -0.04,-0.03 -0.05,-0.04 -0.02,-0.01 -0.05,-0.02 -0.07,-0.02l-0.13 0c0,-0.05 0.01,-0.1 -0.04,-0.12 -0.04,-0.02 -0.09,0.01 -0.09,0.05l0 0.07 -0.37 0 0 -0.07c0,-0.05 -0.06,-0.08 -0.1,-0.04 -0.01,0.01 -0.02,0.03 -0.02,0.05z"/>
 </g>
</svg>
