<?xml version="1.0" encoding="UTF-8"?>
<!DOCTYPE svg PUBLIC "-//W3C//DTD SVG 1.1//EN" "http://www.w3.org/Graphics/SVG/1.1/DTD/svg11.dtd">
<!-- Creator: CorelDRAW -->
<svg xmlns="http://www.w3.org/2000/svg" xml:space="preserve" width="60mm" height="60mm" version="1.1" style="shape-rendering:geometricPrecision; text-rendering:geometricPrecision; image-rendering:optimizeQuality; fill-rule:evenodd; clip-rule:evenodd"
viewBox="0 0 6000 6000"
 xmlns:xlink="http://www.w3.org/1999/xlink"
 xmlns:xodm="http://www.corel.com/coreldraw/odm/2003"
 enable-background="new 0 0 512 512">
 <defs>
  <style type="text/css">
   <![CDATA[
    .fil0 {fill:white;fill-rule:nonzero}
   ]]>
  </style>
 </defs>
 <g id="Warstwa_x0020_1">
  <metadata id="CorelCorpID_0Corel-Layer"/>
  <g id="_105553245711520">
   <path class="fil0" d="M3357.46 3473.36l-692.69 0c-44.46,0 -80.5,35.94 -80.5,80.28 0,44.33 36.04,80.28 80.5,80.28l692.69 0c44.47,0 80.5,-35.95 80.5,-80.28 0,-44.34 -36.04,-80.28 -80.5,-80.28z"/>
   <path class="fil0" d="M3357.46 3757.05l-692.69 0c-44.46,0 -80.5,35.95 -80.5,80.29 0,44.33 36.04,80.28 80.5,80.28l692.69 0c44.47,0 80.5,-35.95 80.5,-80.28 0,-44.34 -36.04,-80.29 -80.5,-80.29z"/>
   <path class="fil0" d="M1197.72 4640.11c34.02,-28.55 38.41,-79.18 9.78,-113.11 -356.07,-422.13 -552.17,-958.89 -552.17,-1511.41 0,-1298.42 1053.63,-2349.35 2355.78,-2349.35 554.67,0 1093.38,195.95 1516.89,551.77 34.02,28.57 84.79,24.22 113.43,-9.68 28.64,-33.9 24.3,-84.55 -9.7,-113.12 -452.5,-380.16 -1028.05,-589.54 -1620.62,-589.54 -1390.95,0 -2516.78,1122.58 -2516.78,2509.9 0,590.29 209.52,1163.76 589.96,1614.77 28.62,33.94 79.42,38.29 113.43,9.76l0 0.01z"/>
   <path class="fil0" d="M4790.94 1371.23c-34.02,28.55 -38.41,79.18 -9.78,113.11 356.07,422.12 552.17,958.89 552.17,1511.41 0,1298.42 -1053.64,2349.35 -2355.79,2349.35 -554.67,0 -1093.37,-195.96 -1516.89,-551.77 -34.01,-28.57 -84.78,-24.22 -113.43,9.68 -28.63,33.9 -24.3,84.55 9.71,113.12 452.49,380.16 1028.05,589.53 1620.62,589.53 1390.95,0 2516.78,-1122.57 2516.78,-2509.9 0,-590.28 -209.53,-1163.75 -589.96,-1614.76 -28.62,-33.95 -79.43,-38.29 -113.43,-9.77l0 0z"/>
   <path class="fil0" d="M3011.11 938.13c-1148.65,0 -2083.14,931.94 -2083.14,2077.45 0,1145.51 934.5,2077.43 2083.14,2077.43 1148.65,0 2083.13,-931.93 2083.13,-2077.43 0,-1145.5 -934.47,-2077.45 -2083.13,-2077.45zm0 3994.33c-1059.86,0 -1922.14,-859.91 -1922.14,-1916.88 0,-1056.97 862.28,-1916.89 1922.14,-1916.89 1059.87,0 1922.14,859.91 1922.14,1916.89 0,1056.98 -862.27,1916.88 -1922.14,1916.88z"/>
   <path class="fil0" d="M3001.42 3361.17c196.34,0 356.05,-159.28 356.05,-355.07 0,-195.8 -159.72,-355.08 -356.05,-355.08 -87.41,0 -167.53,31.65 -229.56,83.98l-950.71 -632.07c-45.43,-30.21 -106.81,-17.97 -137.09,27.34 -30.29,45.3 -18.02,106.51 27.42,136.71l950.51 631.94c-10.77,33.83 -16.61,69.84 -16.61,107.18 -0.01,195.78 159.71,355.08 356.04,355.08l0 -0.01zm0 -512.97c87.32,0 158.34,70.83 158.34,157.9 0,87.06 -71.03,157.9 -158.34,157.9 -87.3,0 -158.33,-70.84 -158.33,-157.9 0,-87.08 71.03,-157.9 158.33,-157.9z"/>
   <path class="fil0" d="M2715.89 4074.45c22.99,0 41.19,4.95 54.6,14.85 13.41,9.9 22.99,23.1 28.74,39.6 5.74,16.5 8.62,34.82 8.62,54.97l0 142.77c0,5.91 -2,10.94 -6.01,15.11 -4.01,4.17 -8.97,6.25 -14.89,6.25 -5.93,0 -10.89,-2.08 -14.89,-6.25 -4.01,-4.17 -6.01,-9.2 -6.01,-15.11l0 -142.77c0,-13.2 -1.92,-25.1 -5.75,-35.69 -3.83,-10.6 -10.19,-19.11 -19.07,-25.53 -8.88,-6.43 -20.99,-9.64 -36.31,-9.64 -14.28,0 -27.35,3.21 -39.19,9.64 -11.84,6.42 -21.24,14.93 -28.21,25.53 -6.97,10.59 -10.45,22.49 -10.45,35.69l0 142.77c0,5.91 -2.01,10.94 -6.01,15.11 -4,4.17 -8.97,6.25 -14.89,6.25 -5.92,0 -10.89,-2.08 -14.89,-6.25 -4.01,-4.17 -6.01,-9.2 -6.01,-15.11l0 -343.37c0,-5.91 2,-10.86 6.01,-14.86 4,-3.99 8.97,-5.99 14.89,-5.99 6.27,0 11.32,2 15.15,5.99 3.83,4 5.75,8.95 5.75,14.86l0 155.79 -10.45 11.46c1.74,-9.03 5.57,-18.15 11.49,-27.35 5.92,-9.21 13.41,-17.46 22.47,-24.75 9.05,-7.3 19.16,-13.11 30.3,-17.46 11.15,-4.34 22.82,-6.51 35.01,-6.51zm319.76 -91.18c19.16,0 36.4,4.68 51.73,14.06 15.32,9.38 27.43,22.23 36.31,38.56 8.88,16.33 13.32,34.91 13.32,55.76 0,20.49 -4.44,39.07 -13.32,55.75 -8.88,16.67 -20.99,29.87 -36.31,39.6 -15.33,9.73 -32.57,14.59 -51.73,14.59l-106.06 0 3.65 -6.25 0 131.3c0,5.91 -1.91,10.94 -5.74,15.11 -3.83,4.17 -8.71,6.25 -14.64,6.25 -6.26,0 -11.23,-2.08 -14.88,-6.25 -3.66,-4.17 -5.49,-9.2 -5.49,-15.11l0 -322.53c0,-5.91 2,-10.86 6.01,-14.85 4,-4 8.97,-5.99 14.89,-5.99l122.26 0zm0 178.19c11.5,0 21.6,-3.12 30.31,-9.37 8.7,-6.25 15.67,-14.77 20.89,-25.54 5.23,-10.76 7.84,-22.4 7.84,-34.9 0,-13.21 -2.61,-24.84 -7.84,-34.92 -5.22,-10.07 -12.19,-18.15 -20.89,-24.22 -8.71,-6.09 -18.81,-9.13 -30.31,-9.13l-106.06 0 3.65 -5.73 0 149.03 -3.65 -5.22 106.06 0zm379.85 -85.45c6.26,0 11.32,2 15.15,5.99 3.83,4 5.75,8.95 5.75,14.85l0 229.79c0,5.91 -2.01,10.94 -6.01,15.11 -4.01,4.17 -8.97,6.25 -14.89,6.25 -5.93,0 -10.89,-2.08 -14.89,-6.25 -4.01,-4.17 -6.02,-9.2 -6.02,-15.11l0 -49.5 9.93 -1.04c0,7.64 -2.61,15.98 -7.83,25.01 -5.23,9.03 -12.37,17.45 -21.43,25.27 -9.05,7.82 -19.67,14.24 -31.87,19.28 -12.19,5.03 -25.42,7.55 -39.71,7.55 -23.68,0 -45.02,-6.16 -64,-18.49 -18.98,-12.34 -33.88,-29.09 -44.67,-50.28 -10.8,-21.2 -16.2,-45.34 -16.2,-72.43 0,-27.45 5.49,-51.67 16.46,-72.69 10.97,-21.01 25.77,-37.52 44.41,-49.5 18.64,-11.99 39.62,-17.98 62.96,-17.98 14.98,0 28.91,2.43 41.8,7.3 12.89,4.86 24.12,11.46 33.7,19.8 9.57,8.33 16.98,17.54 22.2,27.61 5.23,10.08 7.84,20.15 7.84,30.23l-13.59 -3.13 0 -56.8c0,-5.9 2.01,-10.85 6.02,-14.85 4,-3.99 8.96,-5.99 14.89,-5.99zm-107.64 238.65c17.42,0 32.83,-4.52 46.24,-13.55 13.42,-9.03 23.95,-21.28 31.61,-36.74 7.67,-15.45 11.5,-32.91 11.5,-52.36 0,-19.1 -3.83,-36.39 -11.5,-51.85 -7.66,-15.45 -18.19,-27.61 -31.61,-36.47 -13.41,-8.86 -28.82,-13.29 -46.24,-13.29 -17.06,0 -32.3,4.35 -45.71,13.03 -13.42,8.68 -23.95,20.67 -31.61,35.95 -7.67,15.29 -11.5,32.83 -11.5,52.63 0,19.45 3.83,36.91 11.5,52.36 7.66,15.46 18.19,27.71 31.61,36.74 13.41,9.03 28.65,13.55 45.71,13.55z"/>
  </g>
 </g>
</svg>
