<?xml version="1.0" encoding="UTF-8"?>
<!DOCTYPE svg PUBLIC "-//W3C//DTD SVG 1.1//EN" "http://www.w3.org/Graphics/SVG/1.1/DTD/svg11.dtd">
<!-- Creator: CorelDRAW -->
<svg xmlns="http://www.w3.org/2000/svg" xml:space="preserve" width="60mm" height="60mm" version="1.1" style="shape-rendering:geometricPrecision; text-rendering:geometricPrecision; image-rendering:optimizeQuality; fill-rule:evenodd; clip-rule:evenodd"
viewBox="0 0 6000 6000"
 xmlns:xlink="http://www.w3.org/1999/xlink"
 xmlns:xodm="http://www.corel.com/coreldraw/odm/2003"
 enable-background="new 0 0 512 512">
 <defs>
  <style type="text/css">
   <![CDATA[
    .fil0 {fill:white;fill-rule:nonzero}
   ]]>
  </style>
 </defs>
 <g id="Warstwa_x0020_1">
  <metadata id="CorelCorpID_0Corel-Layer"/>
  <g id="XMLID_759__1">
   <path id="XMLID_760__2" class="fil0" d="M2201.33 4302.01c12.36,5.19 25.16,7.64 37.76,7.64 38.15,0 74.39,-22.5 90.09,-59.89l632.4 -1506.86c20.88,-49.73 -2.53,-106.96 -52.26,-127.83 -49.76,-20.88 -106.97,2.52 -127.84,52.26l-632.4 1506.85c-20.87,49.73 2.53,106.97 52.25,127.83z"/>
   <path id="XMLID_763__3" class="fil0" d="M2441.34 2923.49c0,-212.99 -157.1,-386.26 -350.18,-386.26 -193.08,0 -350.17,173.27 -350.17,386.26 0,212.99 157.09,386.25 350.17,386.25 193.08,0 350.18,-173.27 350.18,-386.25zm-350.18 190.94c-85.39,0 -154.86,-85.66 -154.86,-190.95 0,-105.29 69.47,-190.95 154.86,-190.95 85.4,0 154.87,85.66 154.87,190.95 0,105.29 -69.47,190.95 -154.87,190.95z"/>
   <path id="XMLID_770__4" class="fil0" d="M2999.05 4412.22c193.08,0 350.16,-173.27 350.16,-386.26 0,-212.99 -157.08,-386.26 -350.16,-386.26 -193.09,0 -350.19,173.27 -350.19,386.26 0,212.99 157.1,386.26 350.19,386.26zm0 -577.21c85.39,0 154.86,85.66 154.86,190.95 0,105.29 -69.47,190.95 -154.86,190.95 -85.4,0 -154.87,-85.66 -154.87,-190.95 0,-105.29 69.47,-190.95 154.87,-190.95z"/>
   <path id="XMLID_773__5" class="fil0" d="M5249.44 1585.43l-821.08 -1042.52c-18.52,-23.52 -46.8,-37.24 -76.73,-37.24 -29.93,0 -58.2,13.72 -76.7,37.24l-821.11 1042.52c-5.83,7.41 -11.56,14.88 -17.18,22.39 -276.3,-133.36 -582.7,-203.71 -891.54,-203.71 -1130.8,0 -2050.77,919.98 -2050.77,2050.77 0,1130.8 919.97,2050.78 2050.77,2050.78 384.35,0 759.06,-106.98 1083.65,-309.39 45.77,-28.53 59.72,-88.77 31.19,-134.53 -28.54,-45.77 -88.77,-59.74 -134.53,-31.19 -293.56,183.04 -632.53,279.8 -980.3,279.8 -1023.11,0 -1855.46,-832.36 -1855.46,-1855.47 0,-1023.11 832.35,-1855.46 1855.46,-1855.46 272.47,0 542.77,60.48 787.71,175.26 -220.33,433.07 -144.47,970.75 210.72,1325.94 215.85,215.85 502.84,334.73 808.09,334.73 16.26,0 32.46,-0.41 48.61,-1.09 0.08,6.88 0.32,13.76 0.32,20.62 0,350.34 -98.09,691.47 -283.67,986.5 -28.71,45.65 -14.98,105.94 30.68,134.66 16.15,10.16 34.13,15.01 51.89,15.01 32.45,0 64.2,-16.18 82.76,-45.68 205.2,-326.22 313.65,-703.31 313.65,-1090.49 0,-15.11 -0.38,-30.3 -0.71,-45.46 212.3,-45.85 407.33,-151.56 564.57,-308.79 409.2,-409.19 447.76,-1060.59 89.72,-1515.21l-0.01 0.01zm-897.82 1654.6c-253.08,0 -491.02,-98.54 -669.98,-277.51 -339.26,-339.25 -371.24,-879.32 -74.37,-1256.24l-0.01 0 744.38 -945.11 744.36 945.11c296.87,376.92 264.89,916.99 -74.37,1256.26 -178.98,178.95 -416.92,277.5 -670.01,277.5l0 -0.01z"/>
   <path id="XMLID_799__6" class="fil0" d="M3925.36 4739.05c-25.78,0 -50.97,10.45 -69.04,28.62 -18.15,18.16 -28.61,43.36 -28.61,69.04 0,25.78 10.45,50.88 28.61,69.14 18.16,18.17 43.27,28.52 69.04,28.52 25.69,0 50.78,-10.35 69.05,-28.52 18.15,-18.26 28.61,-43.36 28.61,-69.14 0,-25.69 -10.45,-50.88 -28.61,-69.04 -18.17,-18.17 -43.36,-28.62 -69.05,-28.62z"/>
  </g>
 </g>
</svg>
