<?xml version="1.0" encoding="UTF-8"?>
<!DOCTYPE svg PUBLIC "-//W3C//DTD SVG 1.1//EN" "http://www.w3.org/Graphics/SVG/1.1/DTD/svg11.dtd">
<!-- Creator: CorelDRAW -->
<svg xmlns="http://www.w3.org/2000/svg" xml:space="preserve" width="40mm" height="40mm" version="1.1" style="shape-rendering:geometricPrecision; text-rendering:geometricPrecision; image-rendering:optimizeQuality; fill-rule:evenodd; clip-rule:evenodd"
viewBox="0 0 4000 4000"
 xmlns:xlink="http://www.w3.org/1999/xlink"
 xmlns:xodm="http://www.corel.com/coreldraw/odm/2003">
 <defs>
  <style type="text/css">
   <![CDATA[
    .fil0 {fill:#383838}
   ]]>
  </style>
 </defs>
 <g id="Warstwa_x0020_1">
  <metadata id="CorelCorpID_0Corel-Layer"/>
  <g id="_105553210222304">
   <path class="fil0" d="M1852.49 1356.3c-227.28,40.6 -383.12,173.6 -471.39,328.24 -122.85,215.4 -91.61,435.07 -91.87,714.83 -0.4,788.94 949.05,992.45 1308.94,400.21 128.6,-211.52 99.89,-424.92 99.62,-705.08 -0.27,-278.56 -73.85,-436.27 -223.54,-572.88 -147.29,-134.47 -361.75,-211.92 -621.62,-165.45l-0.14 0.13zm27.37 951.73c0,-19.11 6.46,-35.14 19.39,-48.07 12.93,-12.93 28.96,-19.39 48.07,-19.39 49.48,-2.25 93.89,-13.21 133.24,-32.89 39.36,-19.68 70.56,-47.79 93.61,-84.33 23.05,-36.54 34.57,-80.11 34.57,-130.71 0,-47.23 -10.4,-88.83 -31.2,-124.81 -20.8,-35.98 -48.91,-64.09 -84.33,-84.33 -35.42,-20.24 -75.05,-30.36 -118.9,-30.36 -41.61,0 -80.4,9 -116.38,26.99 -35.98,17.99 -66.9,41.6 -92.76,70.83 -12.37,12.37 -26.71,20.8 -43.01,25.3 -16.3,4.5 -32.89,1.13 -49.75,-10.12 -19.12,-13.49 -29.52,-29.51 -31.21,-48.07 -1.68,-18.55 4.78,-35.69 19.4,-51.44 37.1,-44.97 83.21,-80.67 138.3,-107.1 55.1,-26.42 113.57,-39.63 175.41,-39.63 68.59,0 130.99,15.74 187.21,47.22 56.22,31.49 101.2,75.06 134.93,130.72 33.73,55.65 50.6,120.59 50.6,194.8 0,49.47 -8.72,95.01 -26.15,136.61 -17.42,41.61 -41.88,78.43 -73.36,110.47 -31.49,32.05 -68.03,57.63 -109.63,76.75 -41.61,19.11 -86.58,30.92 -134.93,35.41 -3.37,0 -3.37,-0.28 0,-0.84 3.37,-0.56 6.75,-1.97 10.12,-4.22l0 138.31c0,19.11 -6.19,35.41 -18.55,48.91 -12.37,13.49 -28.11,20.24 -47.23,20.24 -20.24,0 -36.54,-6.75 -48.91,-20.24 -12.37,-13.5 -18.55,-29.8 -18.55,-48.91l0 -177.1zm64.09 556.58c-23.61,0 -41.6,-7.03 -53.97,-21.08 -12.37,-14.06 -18.56,-32.89 -18.56,-56.5l0 -33.74c0,-23.61 6.19,-42.16 18.56,-55.65 12.37,-13.5 30.36,-20.24 53.97,-20.24l15.18 0c23.61,0 41.6,6.74 53.97,20.24 12.37,13.49 18.55,32.04 18.55,55.65l0 33.74c0,23.61 -6.18,42.44 -18.55,56.5 -12.37,14.05 -30.36,21.08 -53.97,21.08l-15.18 0z"/>
   <path class="fil0" d="M3158.23 3350.82c251.85,-278.43 405.29,-647.66 405.29,-1052.68 0,-433.6 -175.74,-826.06 -459.9,-1110.23 -284.17,-284.17 -676.64,-459.9 -1110.23,-459.9 -433.6,0 -826.06,175.74 -1110.23,459.9 -284.17,284.17 -459.9,676.64 -459.9,1110.23 0,417.44 162.92,796.82 428.66,1078.05l3.34 5.21c31.11,50.61 38.73,109.1 25.91,162.65 -12.82,53.55 -46.07,102.29 -96.68,133.4 -50.61,31.11 -109.1,38.73 -162.65,25.91 -28.71,-6.81 -56.09,-19.63 -79.99,-37.79 -18.16,-19.23 -35.92,-38.86 -53.28,-58.76l-0.13 -0.13c-5.34,-8.81 -10.02,-17.76 -14.02,-26.84l-5.88 3.61c-292.85,-347.06 -469.39,-795.62 -469.39,-1285.3 0,-550.71 223.28,-1049.34 584.09,-1410.16 360.82,-360.82 859.45,-584.09 1410.16,-584.09 550.71,0 1049.34,223.28 1410.16,584.09 360.82,360.82 584.09,859.45 584.09,1410.16 0,481.14 -170.39,922.48 -454.03,1266.87l-3.61 -2.27c-2.27,5.21 -4.81,10.42 -7.61,15.62 -21.23,25.37 -43.13,50.08 -65.57,74.38 -22.57,15.89 -47.81,27.24 -74.25,33.65 -53.55,12.82 -112.04,5.21 -162.65,-25.91 -50.61,-31.11 -83.86,-79.86 -96.68,-133.4 -12.82,-53.55 -5.21,-112.04 25.91,-162.65 2.94,-4.67 5.88,-9.21 9.08,-13.62l-0.01 0z"/>
  </g>
 </g>
</svg>
