<?xml version="1.0" encoding="UTF-8"?>
<!DOCTYPE svg PUBLIC "-//W3C//DTD SVG 1.1//EN" "http://www.w3.org/Graphics/SVG/1.1/DTD/svg11.dtd">
<!-- Creator: CorelDRAW 2019 (64-Bit Wersja próbna) -->
<svg xmlns="http://www.w3.org/2000/svg" xml:space="preserve" width="39.8865mm" height="34.0548mm" version="1.1" style="shape-rendering:geometricPrecision; text-rendering:geometricPrecision; image-rendering:optimizeQuality; fill-rule:evenodd; clip-rule:evenodd"
viewBox="0 0 298.69 255.02"
 xmlns:xlink="http://www.w3.org/1999/xlink"
 xmlns:xodm="http://www.corel.com/coreldraw/odm/2003">
 <defs>
  <style type="text/css">
   <![CDATA[
    .fil0 {fill:#57B108}
    .fil1 {fill:white}
   ]]>
  </style>
 </defs>
 <g id="Warstwa_x0020_1">
  <metadata id="CorelCorpID_0Corel-Layer"/>
  <path class="fil0" d="M138.8 78.82c-17.02,3.04 -28.69,13 -35.3,24.58 -9.2,16.13 -6.86,32.58 -6.88,53.53 -0.03,59.08 71.07,74.32 98.02,29.97 9.63,-15.84 7.48,-31.82 7.46,-52.8 -0.02,-20.86 -5.53,-32.67 -16.74,-42.9 -11.03,-10.07 -27.09,-15.87 -46.55,-12.39zm55.9 71.77l-0.17 -12.74c-12.34,-2.92 -22.26,-6.45 -29.6,-12.94 -13.79,-12.2 -2.42,-6.4 -23.48,5.69 -11.32,6.49 -19.79,7.36 -34.6,7.95 -4.42,0.18 -2.98,3.02 -2.95,7.6 0.02,3.6 -0.14,7.18 -0.11,10.78 0.15,18.06 7.32,32.53 22.4,41.59 8.82,5.3 23.57,7.98 35.29,4.77 10.94,-3 18.96,-9.99 24.82,-17.71 7.7,-10.15 8.4,-19.44 8.4,-34.99zm-73.2 19.65c-2.28,9.88 10.41,25.94 27.92,26.04 17.02,0.09 29.56,-16.15 27.71,-26.48 -5.3,-0.75 -53.38,-0.79 -55.63,0.44zm-7.72 -15.05c1.86,0.76 4.27,2.12 6.47,2.39 3.04,-2.34 2.77,-5.64 8.24,-5.92 5.08,-0.26 6.63,2.96 8.88,5.91 2.6,-0.1 4.86,-1.67 6.89,-2.57 0.02,-5.86 -8.09,-11.55 -15.13,-11.62 -7.39,-0.07 -15.04,5.33 -15.35,11.81zm40.63 0.03c2.42,0.87 4.35,2.35 7.05,2.18 1.98,-2.82 3.51,-5.78 8.24,-5.75 4.43,0.03 6.83,3.25 8.03,6.05 3,-0.27 4.76,-1.67 7.16,-2.64 0,-6.01 -8.17,-11.61 -15.18,-11.67 -7.27,-0.06 -15.08,5.49 -15.3,11.83z"/>
  <g id="_2161104010960">
   <path class="fil1" d="M236.58 228.18c18.86,-20.85 30.35,-48.5 30.35,-78.83 0,-32.47 -13.16,-61.86 -34.44,-83.14 -21.28,-21.28 -50.67,-34.44 -83.14,-34.44 -32.47,0 -61.86,13.16 -83.14,34.44 -21.28,21.28 -34.44,50.67 -34.44,83.14 0,31.26 12.2,59.67 32.1,80.73l0.25 0.39c2.33,3.79 2.9,8.17 1.94,12.18 -0.96,4.01 -3.45,7.66 -7.24,9.99 -3.79,2.33 -8.17,2.9 -12.18,1.94 -2.15,-0.51 -4.2,-1.47 -5.99,-2.83 -1.36,-1.44 -2.69,-2.91 -3.99,-4.4l-0.01 -0.01c-0.4,-0.66 -0.75,-1.33 -1.05,-2.01l-0.44 0.27c-21.93,-25.99 -35.15,-59.58 -35.15,-96.25 0,-41.24 16.72,-78.58 43.74,-105.6 27.02,-27.02 64.36,-43.74 105.6,-43.74 41.24,0 78.58,16.72 105.6,43.74 27.02,27.02 43.74,64.36 43.74,105.6 0,36.03 -12.76,69.08 -34,94.87l-0.27 -0.17c-0.17,0.39 -0.36,0.78 -0.57,1.17 -1.59,1.9 -3.23,3.75 -4.91,5.57 -1.69,1.19 -3.58,2.04 -5.56,2.52 -4.01,0.96 -8.39,0.39 -12.18,-1.94 -3.79,-2.33 -6.28,-5.98 -7.24,-9.99 -0.96,-4.01 -0.39,-8.39 1.94,-12.18 0.22,-0.35 0.44,-0.69 0.68,-1.02z"/>
   <path class="fil0" d="M41.22 195.9c5.49,12.71 13.15,24.25 22.52,34.17l0.25 0.39c2.33,3.79 2.9,8.17 1.94,12.18 -0.96,4.01 -3.45,7.66 -7.24,9.99 -3.79,2.33 -8.17,2.9 -12.18,1.94 -2.15,-0.51 -4.2,-1.47 -5.99,-2.83 -1.36,-1.44 -2.69,-2.91 -3.99,-4.4l-0.01 -0.01c-0.4,-0.66 -0.75,-1.33 -1.05,-2.01l-0.44 0.27c-11.11,-13.17 -19.98,-28.29 -26.03,-44.77 -0.36,-3.14 0.22,-6.25 1.57,-8.99 1.83,-3.7 5.07,-6.69 9.29,-8.12 4.22,-1.42 8.61,-1 12.31,0.83 3.7,1.83 6.69,5.07 8.12,9.29 0.25,0.73 0.44,1.46 0.57,2.2l0.38 -0.13z"/>
  </g>
 </g>
</svg>
