<?xml version="1.0" encoding="UTF-8"?>
<!DOCTYPE svg PUBLIC "-//W3C//DTD SVG 1.1//EN" "http://www.w3.org/Graphics/SVG/1.1/DTD/svg11.dtd">
<!-- Creator: CorelDRAW 2019 (64-Bit Wersja próbna) -->
<svg xmlns="http://www.w3.org/2000/svg" xml:space="preserve" width="73.6915mm" height="72.4783mm" version="1.1" style="shape-rendering:geometricPrecision; text-rendering:geometricPrecision; image-rendering:optimizeQuality; fill-rule:evenodd; clip-rule:evenodd"
viewBox="0 0 2030.31 1996.88"
 xmlns:xlink="http://www.w3.org/1999/xlink"
 xmlns:xodm="http://www.corel.com/coreldraw/odm/2003"
 enable-background="new 0 0 512 512">
 <defs>
  <style type="text/css">
   <![CDATA[
    .str0 {stroke:#FFCC01;stroke-width:218.69;stroke-linecap:round;stroke-miterlimit:22.9256}
    .fil0 {fill:#FFCC01}
   ]]>
  </style>
 </defs>
 <g id="Warstwa_x0020_1">
  <metadata id="CorelCorpID_0Corel-Layer"/>
  <g id="_2104287959232">
   <path class="fil0 str0" d="M994.85 1887.54c-489.02,0 -885.5,-396.48 -885.5,-885.5 0,-300.82 150.07,-566.72 379.45,-726.7 -29.06,90.16 -44.74,186.25 -44.74,286.08 0,514.78 417.33,932.1 932.11,932.1 147.44,0 286.84,-34.23 410.72,-95.16 -145.41,290.05 -445.47,489.18 -792.04,489.18z"/>
  </g>
  <path class="fil0" d="M1036.63 306.6c25.22,24.86 46.13,56.79 58.76,90.03 24.98,-25.35 57.01,-46.24 90.04,-58.81 -25.29,-24.81 -46.17,-56.86 -58.86,-89.99 -24.91,25.37 -56.88,46.21 -89.93,58.78zm28.21 235.86c-19.44,-4.08 -52.99,-20.58 -58.96,-85.31 -3.06,-32.06 -32.44,-77.17 -60.41,-92.61 -57.09,-31.64 -58.72,-68.99 -54.62,-88.53 4.1,-19.53 20.67,-53.13 85.58,-59.06 31.84,-2.95 76.85,-32.4 92.67,-60.72 31.34,-56.68 68.72,-58.36 88.15,-54.29 19.59,4.11 53.13,20.67 58.82,85.49 3.05,31.8 32.48,76.99 60.51,92.43 56.96,31.51 58.59,68.91 54.6,88.46 -4.09,19.48 -20.66,53.07 -85.56,59.12 -31.92,2.87 -77.01,32.42 -92.72,60.7 -31.09,56.73 -68.45,58.4 -88.04,54.29zm480.37 162.42c25.22,24.85 46.17,56.89 58.75,90.07 25.02,-25.34 56.98,-46.28 90.09,-58.84 -25.29,-24.81 -46.21,-56.86 -58.86,-89.99 -24.87,25.31 -56.92,46.2 -89.97,58.77zm28.25 235.93c-19.44,-4.08 -53.02,-20.65 -58.94,-85.36 -3.05,-32.12 -32.47,-77.24 -60.4,-92.66 -57.11,-31.55 -58.83,-68.96 -54.73,-88.49 4.11,-19.59 20.77,-53.15 85.69,-59.1 31.84,-2.94 76.91,-32.38 92.57,-60.67 31.4,-56.73 68.83,-58.4 88.25,-54.33 19.48,4.09 53.16,20.72 58.82,85.49 3.05,31.81 32.49,76.93 60.51,92.43 57.02,31.52 58.7,68.93 54.59,88.52 -4.09,19.48 -20.71,53.12 -85.64,59.04 -31.85,2.98 -76.92,32.44 -92.63,60.72 -31.07,56.84 -68.59,58.49 -88.07,54.41z"/>
 </g>
</svg>
