<?xml version="1.0" encoding="UTF-8"?>
<!DOCTYPE svg PUBLIC "-//W3C//DTD SVG 1.1//EN" "http://www.w3.org/Graphics/SVG/1.1/DTD/svg11.dtd">
<!-- Creator: CorelDRAW 2019 (64-Bit Wersja próbna) -->
<svg xmlns="http://www.w3.org/2000/svg" xml:space="preserve" width="89.8024mm" height="61.5711mm" version="1.1" style="shape-rendering:geometricPrecision; text-rendering:geometricPrecision; image-rendering:optimizeQuality; fill-rule:evenodd; clip-rule:evenodd"
viewBox="0 0 3256.46 2232.72"
 xmlns:xlink="http://www.w3.org/1999/xlink"
 xmlns:xodm="http://www.corel.com/coreldraw/odm/2003">
 <defs>
  <style type="text/css">
   <![CDATA[
    .str0 {stroke:white;stroke-width:287.83;stroke-miterlimit:22.9256}
    .fil0 {fill:none}
   ]]>
  </style>
 </defs>
 <g id="Warstwa_x0020_1">
  <metadata id="CorelCorpID_0Corel-Layer"/>
  <path class="fil0 str0" d="M143.92 1713.07c0,205.82 166.91,375.73 372.4,375.73l1997.22 0c333.81,0 599,-273.81 599,-607.62 0,-140.18 -47.83,-269.17 -128.31,-372.08 -110.17,-142.16 -282.35,-233.54 -475.97,-233.54 -29.02,0 -57.72,0.83 -85.76,5.11 -60.7,-247.06 -216.05,-457.09 -425.5,-588.7 -148.76,-94.01 -325.23,-148.06 -513.91,-148.06 -534.03,0 -966.78,432.78 -966.78,966.81 0,78.5 9.24,154.71 27.05,227.94 -8.9,-0.66 -17.82,0.68 -27.05,0.68 -205.48,-0.01 -372.38,168.23 -372.38,373.73z"/>
 </g>
</svg>
