<?xml version="1.0" encoding="UTF-8"?>
<!DOCTYPE svg PUBLIC "-//W3C//DTD SVG 1.1//EN" "http://www.w3.org/Graphics/SVG/1.1/DTD/svg11.dtd">
<!-- Creator: CorelDRAW 2019 (64-Bit Wersja próbna) -->
<svg xmlns="http://www.w3.org/2000/svg" xml:space="preserve" width="89.8024mm" height="80.6577mm" version="1.1" style="shape-rendering:geometricPrecision; text-rendering:geometricPrecision; image-rendering:optimizeQuality; fill-rule:evenodd; clip-rule:evenodd"
viewBox="0 0 1498.6 1346"
 xmlns:xlink="http://www.w3.org/1999/xlink"
 xmlns:xodm="http://www.corel.com/coreldraw/odm/2003">
 <defs>
  <style type="text/css">
   <![CDATA[
    .str0 {stroke:white;stroke-width:132.46;stroke-linecap:round;stroke-linejoin:round;stroke-miterlimit:22.9256}
    .fil1 {fill:none;fill-rule:nonzero}
    .fil0 {fill:#00C7FB}
   ]]>
  </style>
 </defs>
 <g id="Warstwa_x0020_1">
  <metadata id="CorelCorpID_0Corel-Layer"/>
  <path class="fil0" d="M582.96 981.14c-78.54,23.44 -200.44,151.62 -97.09,214.25 53.23,32.25 115.67,6.76 129.69,-44.43 17.53,-64.02 -15.62,-122.75 -32.59,-169.81z"/>
  <path class="fil0" d="M819.46 891.82c-78.54,23.44 -200.44,151.62 -97.09,214.25 53.23,32.25 115.67,6.76 129.69,-44.43 17.53,-64.02 -15.62,-122.75 -32.59,-169.81z"/>
  <path class="fil0" d="M758.03 1182.42c-56.21,16.78 -143.46,108.52 -69.49,153.34 38.09,23.08 82.79,4.84 92.82,-31.8 12.54,-45.82 -11.18,-87.85 -23.33,-121.54z"/>
  <path class="fil0" d="M977.54 1011.83c-58.21,17.37 -148.55,112.37 -71.96,158.78 39.45,23.9 85.72,5.01 96.11,-32.93 12.99,-47.44 -11.58,-90.97 -24.16,-125.85z"/>
  <path class="fil1 str0" d="M1158.96 961.22c152.55,-1.23 273.41,-126.73 273.41,-279.59 0,-64.51 -22.01,-123.87 -59.05,-171.23 -50.7,-65.42 -129.93,-107.47 -219.04,-107.47 -13.36,0 -26.56,0.38 -39.47,2.35 -27.93,-113.69 -99.42,-210.35 -195.81,-270.91 -68.46,-43.26 -149.67,-68.14 -236.5,-68.14 -245.76,0 -444.91,199.16 -444.91,444.92 0,36.13 4.25,71.2 12.45,104.89 -4.1,-0.31 -8.2,0.31 -12.45,0.31 -94.56,-0 -171.36,77.42 -171.36,171.99 0,94.72 76.81,172.91 171.37,172.91l83.92 0"/>
 </g>
</svg>
