<?xml version="1.0" encoding="UTF-8"?>
<!DOCTYPE svg PUBLIC "-//W3C//DTD SVG 1.1//EN" "http://www.w3.org/Graphics/SVG/1.1/DTD/svg11.dtd">
<!-- Creator: CorelDRAW 2019 (64-Bit Wersja próbna) -->
<svg xmlns="http://www.w3.org/2000/svg" xml:space="preserve" width="89.8024mm" height="82.1965mm" version="1.1" style="shape-rendering:geometricPrecision; text-rendering:geometricPrecision; image-rendering:optimizeQuality; fill-rule:evenodd; clip-rule:evenodd"
viewBox="0 0 3265.85 2989.24"
 xmlns:xlink="http://www.w3.org/1999/xlink"
 xmlns:xodm="http://www.corel.com/coreldraw/odm/2003">
 <defs>
  <style type="text/css">
   <![CDATA[
    .str0 {stroke:white;stroke-width:288.66;stroke-linecap:round;stroke-miterlimit:22.9256}
    .fil0 {fill:none;fill-rule:nonzero}
    .fil1 {fill:white}
   ]]>
  </style>
 </defs>
 <g id="Warstwa_x0020_1">
  <metadata id="CorelCorpID_0Corel-Layer"/>
  <path class="fil0 str0" d="M2525.69 2094.76c332.46,-2.67 595.82,-276.17 595.82,-609.31 0,-140.59 -47.96,-269.95 -128.68,-373.15 -110.49,-142.57 -283.16,-234.21 -477.34,-234.21 -29.11,0 -57.89,0.83 -86.01,5.13 -60.87,-247.77 -216.67,-458.41 -426.73,-590.39 -149.19,-94.28 -326.17,-148.49 -515.39,-148.49 -535.57,0 -969.57,434.03 -969.57,969.59 0,78.73 9.27,155.16 27.13,228.59 -8.93,-0.67 -17.87,0.68 -27.13,0.68 -206.07,-0.01 -373.45,168.71 -373.45,374.81 0,206.41 167.39,376.81 373.47,376.81l182.89 0"/>
  <path class="fil1" d="M1679.06 2043.88c-30.49,-9 -42.82,-33.12 -82.79,-32.49 -74.76,1.18 -99.82,87.69 -62.81,132.66 15.5,18.83 46.36,29.29 63.84,47.05l-8.82 8c-19,14.17 -37.58,16.99 -56.37,41.57 -38.4,50.23 -3.85,131.79 67.77,130.39 37.88,-0.75 50.43,-23.14 79.14,-32.39 0.57,41.96 -5.86,129.91 81.58,130.7 89.56,0.81 82.63,-88.95 83.07,-129.7 10.74,2.52 104.45,75.4 151.9,-11.47 16.7,-30.57 10.91,-66.91 -8.01,-89.87 -16.94,-20.56 -46.54,-28.3 -63.15,-47.23 14.03,-13.79 119.44,-57.04 69.86,-139.73 -49.2,-82.05 -137.21,-12 -150.66,-8.48 -0.21,-44.59 4.16,-131.64 -83.02,-130.95 -88.71,0.7 -81.14,91.48 -81.53,131.94z"/>
  <path class="fil1" d="M1062.34 2246.5c-30.49,-9 -42.82,-33.12 -82.79,-32.49 -74.76,1.18 -99.82,87.69 -62.81,132.66 15.5,18.83 46.36,29.29 63.84,47.05l-8.82 8c-19,14.17 -37.58,16.99 -56.37,41.57 -38.4,50.23 -3.85,131.79 67.77,130.39 37.88,-0.75 50.43,-23.14 79.14,-32.39 0.57,41.96 -5.86,129.91 81.58,130.7 89.56,0.81 82.63,-88.95 83.07,-129.7 10.74,2.52 104.45,75.4 151.9,-11.47 16.7,-30.57 10.91,-66.91 -8.01,-89.87 -16.94,-20.56 -46.54,-28.3 -63.15,-47.23 14.03,-13.79 119.44,-57.04 69.86,-139.73 -49.2,-82.05 -137.21,-12 -150.66,-8.48 -0.21,-44.59 4.16,-131.64 -83.02,-130.95 -88.71,0.7 -81.14,91.48 -81.53,131.94z"/>
  <path class="fil1" d="M1525.61 2686.75c-19.92,-6.87 -41.4,-26.22 -62.22,-33.68 -57.48,-20.57 -102.5,52.42 -53.71,93.72 14.62,12.38 49.92,24.22 58.93,39.4 -33.02,14.02 -105.97,49.72 -70.46,105.45 38.04,59.72 103.95,-4.4 127.6,-11.12 1.91,26.52 -13.99,108.6 55.26,108.72 67.18,0.11 54.66,-78.06 55.56,-108.16 22.75,7.91 41.25,26.05 62.82,33.04 29.29,9.49 54.19,-4.91 65.46,-24.81 30.18,-53.28 -32.58,-86.74 -71.49,-103.1 6,-10.06 17.34,-14.3 30.14,-21.6 25.99,-14.85 70.22,-42.51 40.72,-89.2 -37.93,-60.03 -100.61,1.61 -127.65,10.7 -1.21,-38.93 13.51,-121.54 -55.56,-121.36 -71.92,0.2 -52.25,87.44 -55.39,122z"/>
  <path class="fil1" d="M2252.75 2564.04c15.38,-14.97 96.28,-38.19 63.95,-94.48 -31.5,-54.84 -81.88,-6.68 -114.84,7.71 -2.04,-21.82 2.28,-59.64 -3.84,-77 -6.43,-18.22 -22.46,-32.3 -47.45,-31.88 -22.67,0.39 -40.12,15.48 -45.52,33.77 -5.05,17.13 -1.63,54.09 -2.76,74.89 -20.72,-5.46 -82.92,-65.4 -115.64,-8.42 -32.71,56.96 40.24,74.13 63.18,95.41 -7.68,7.95 -17.15,11.55 -27.6,17.69 -28.76,16.91 -58.59,40.93 -34.27,79.32 10.12,15.98 34.66,29.2 60.7,18.75 18.23,-7.31 36.31,-24.21 53.64,-28.8 1.14,21.63 -3.68,51.12 5.15,69.48 7.35,15.28 24.52,28.4 45.99,27.79 60.38,-1.72 46.19,-74.48 48.43,-97.4 32.45,14.59 81.24,60.79 113.38,9.29 35.65,-57.13 -49.11,-81.78 -62.51,-96.12z"/>
 </g>
</svg>
