<?xml version="1.0" encoding="UTF-8"?>
<!DOCTYPE svg PUBLIC "-//W3C//DTD SVG 1.1//EN" "http://www.w3.org/Graphics/SVG/1.1/DTD/svg11.dtd">
<!-- Creator: CorelDRAW 2019 (64-Bit Wersja próbna) -->
<svg xmlns="http://www.w3.org/2000/svg" xml:space="preserve" width="39.8865mm" height="34.0548mm" version="1.1" style="shape-rendering:geometricPrecision; text-rendering:geometricPrecision; image-rendering:optimizeQuality; fill-rule:evenodd; clip-rule:evenodd"
viewBox="0 0 1310.89 1119.23"
 xmlns:xlink="http://www.w3.org/1999/xlink"
 xmlns:xodm="http://www.corel.com/coreldraw/odm/2003">
 <defs>
  <style type="text/css">
   <![CDATA[
    .fil1 {fill:#E58100}
    .fil0 {fill:white}
   ]]>
  </style>
 </defs>
 <g id="Warstwa_x0020_1">
  <metadata id="CorelCorpID_0Corel-Layer"/>
  <g id="_2161102484336">
   <path class="fil0" d="M1038.3 1001.44c82.77,-91.53 133.18,-212.87 133.18,-345.99 0,-142.49 -57.76,-271.51 -151.15,-364.89 -93.38,-93.38 -222.39,-151.15 -364.89,-151.15 -142.5,0 -271.51,57.76 -364.89,151.15 -93.38,93.38 -151.15,222.39 -151.15,364.89 0,137.19 53.55,261.88 140.87,354.31l1.09 1.72c10.22,16.65 12.73,35.86 8.52,53.46 -4.21,17.6 -15.14,33.6 -31.78,43.83 -16.65,10.22 -35.86,12.72 -53.46,8.51 -9.44,-2.26 -18.42,-6.45 -26.3,-12.42 -5.96,-6.32 -11.79,-12.76 -17.49,-19.31l-0.03 -0.06c-1.76,-2.88 -3.3,-5.83 -4.61,-8.83l-1.95 1.2c-96.25,-114.08 -154.26,-261.47 -154.26,-422.41 0,-181 73.37,-344.86 191.97,-463.47 118.61,-118.61 282.47,-191.97 463.47,-191.97 181,0 344.86,73.37 463.47,191.97 118.61,118.61 191.97,282.47 191.97,463.47 0,158.12 -55.99,303.16 -149.23,416.38l-1.18 -0.73c-0.76,1.73 -1.58,3.44 -2.49,5.13 -6.98,8.33 -14.16,16.47 -21.53,24.44 -7.41,5.24 -15.72,8.96 -24.42,11.04 -17.6,4.21 -36.82,1.71 -53.46,-8.51 -16.65,-10.22 -27.57,-26.22 -31.78,-43.83 -4.21,-17.6 -1.71,-36.82 8.52,-53.46 0.95,-1.54 1.94,-3.03 2.98,-4.47z"/>
   <path class="fil1" d="M1039.48 310.77c-6.2,-6.91 -12.58,-13.65 -19.15,-20.22 -93.38,-93.38 -222.39,-151.15 -364.89,-151.15 -142.5,0 -271.51,57.76 -364.89,151.15 -93.38,93.38 -151.15,222.39 -151.15,364.89 0,137.19 53.55,261.88 140.87,354.31l1.09 1.72c10.22,16.65 12.73,35.86 8.52,53.46 -4.21,17.6 -15.14,33.6 -31.78,43.83 -16.65,10.22 -35.86,12.72 -53.46,8.51 -9.44,-2.26 -18.42,-6.45 -26.3,-12.42 -5.96,-6.32 -11.79,-12.76 -17.49,-19.31l-0.03 -0.06c-1.76,-2.88 -3.3,-5.83 -4.61,-8.83l-1.95 1.2c-96.25,-114.08 -154.26,-261.47 -154.26,-422.41 0,-181 73.37,-344.86 191.97,-463.47 118.61,-118.61 282.47,-191.97 463.47,-191.97 181,0 344.86,73.37 463.47,191.97 17.12,17.12 33.29,35.19 48.44,54.1 3.13,8.9 4.41,18.27 3.88,27.54 -1.03,18.07 -8.97,35.75 -23.54,48.75 -14.58,13 -33.05,18.86 -51.12,17.82 -18.07,-1.04 -35.74,-8.97 -48.75,-23.54 -2.24,-2.52 -4.28,-5.16 -6.1,-7.88l-2.24 2z"/>
  </g>
  <g id="_2161102485776">
   <path class="fil1" d="M663.49 895.8c-30.65,0 -62.03,-5.75 -87.33,-16.43 -17.38,-7.34 -52.78,-26.96 -58.44,-40.04 48.45,-9.75 -1.82,33.58 137.49,34.37 131.81,0.74 92.32,-46.11 135.72,-34.77 -13.7,27.35 -81.51,56.87 -127.43,56.87zm-44.87 -177.16c35.04,-4.8 115.19,-9.45 129.55,30.04 5.32,14.64 5.04,57.06 -0.57,72.29 -7.51,20.38 -26.56,26.96 -50.98,28.27 -45.12,2.42 -118.5,9.62 -132.71,-29.33 -5.78,-15.85 -6.87,-59.41 0,-75.17 8.79,-20.15 27.59,-22.38 54.71,-26.1zm162.13 45.68c0,-26.93 7.64,-25.21 27.71,-34.84 14.88,-7.14 28.59,-16.05 44.42,-20.98 -1.92,60.3 -23.73,79.8 -45.58,116.81 -33.93,-4.31 -26.55,-17.79 -26.55,-61zm-322.85 -54.42c5.87,2.11 61.38,30.59 63.96,32.97 9.06,8.34 7.71,66.19 0.7,78.31 -19.2,5.11 -22.18,3.4 -31.33,-11.55 -17.84,-29.14 -30.79,-62.65 -33.34,-99.72zm-0.95 -25.74c-0.35,-17.54 0.64,-35.11 0.29,-52.66 -0.94,-47.47 11.22,-4.53 111.85,-36.5 23.92,-7.61 47.04,-17.98 67.48,-31.82 76.47,-51.77 30.21,-62.85 90.6,-11.82 25.41,21.48 60.2,36.94 92.6,45.26 41.59,10.67 32.37,-8.48 33.86,92.63 -39.04,10.81 -70.85,44.12 -89.27,32.39 -16.54,-10.54 -18.52,-17.25 -41.21,-22.59 -22.59,-5.31 -116.91,-5.45 -138.51,0.29 -24.32,6.47 -29.12,16.43 -43.02,23.32 -9.11,4.52 -15.24,0.95 -23.17,-4.01l-61.5 -34.5zm168.97 -339.09c-81.8,10.97 -126.37,45.9 -162.69,97.18 -46.24,65.28 -37.49,136.9 -37.49,225.33 -0,91.34 16.37,143.89 66.07,193.87 42.99,43.25 109.42,76.87 192.09,66.75 75.58,-9.26 131.54,-53.96 161.38,-98.13 47.29,-69.99 40.16,-128.41 40.17,-223.3 0.01,-97.06 -13.1,-144.24 -63.98,-196.71 -42.44,-43.78 -113.21,-76.03 -195.55,-64.98z"/>
   <path class="fil1" d="M737.51 628.24c-43.29,17.42 -16.16,84.03 28.87,64.88 39.02,-16.59 17.77,-83.64 -28.87,-64.88z"/>
   <path class="fil1" d="M545.46 629.03c-22.28,10.08 -25.71,30.85 -17.73,47.28 6.43,13.23 26.7,26.3 47.37,16.4 39.03,-18.68 15.71,-84.2 -29.64,-63.68z"/>
   <path class="fil1" d="M591.59 741.21l-0.29 12.06c12.89,4.86 117.39,6.55 125.98,0.7 6.11,-4.16 5,-10.48 -1.9,-13.38 -9.41,-3.95 -105.53,-0.91 -123.79,0.62z"/>
   <path class="fil1" d="M592.37 789.2c11.67,5.35 115.52,4.05 127.09,0.53 1.43,-20.75 -16.66,-13.93 -64.26,-13.88 -46.47,0.05 -65.87,-6.8 -62.83,13.34z"/>
   <path class="fil1" d="M660.73 827.96c12.96,0 25.94,0.08 38.89,0.12 13.68,0.04 21.52,3.01 20.47,-12.68 -15.28,-7.38 -50.83,-3.24 -70.42,-3.24 -45.15,0 -60.18,-6.37 -57.45,14.06l68.5 1.75z"/>
  </g>
 </g>
</svg>
