<?xml version="1.0" encoding="UTF-8"?>
<!DOCTYPE svg PUBLIC "-//W3C//DTD SVG 1.1//EN" "http://www.w3.org/Graphics/SVG/1.1/DTD/svg11.dtd">
<!-- Creator: CorelDRAW 2019 (64-Bit Wersja próbna) -->
<svg xmlns="http://www.w3.org/2000/svg" xml:space="preserve" width="39.1584mm" height="33.4214mm" version="1.1" style="shape-rendering:geometricPrecision; text-rendering:geometricPrecision; image-rendering:optimizeQuality; fill-rule:evenodd; clip-rule:evenodd"
viewBox="0 0 6821.39 5822.01"
 xmlns:xlink="http://www.w3.org/1999/xlink"
 xmlns:xodm="http://www.corel.com/coreldraw/odm/2003">
 <defs>
  <style type="text/css">
   <![CDATA[
    .fil1 {fill:#E50000}
    .fil0 {fill:white}
   ]]>
  </style>
 </defs>
 <g id="Warstwa_x0020_1">
  <metadata id="CorelCorpID_0Corel-Layer"/>
  <g id="_2161167838496">
   <path class="fil0" d="M5403.42 5209.29c430.55,-476.11 692.79,-1107.34 692.79,-1799.78 0,-741.24 -300.48,-1412.36 -786.22,-1898.1 -485.76,-485.76 -1156.86,-786.23 -1898.08,-786.23 -741.26,0 -1412.36,300.48 -1898.1,786.23 -485.76,485.74 -786.23,1156.84 -786.23,1898.1 0,713.63 278.56,1362.24 732.81,1843.05l5.66 8.94c53.17,86.59 66.2,186.53 44.3,278.09 -21.91,91.58 -78.76,174.81 -165.33,227.98 -86.59,53.15 -186.55,66.18 -278.11,44.28 -49.11,-11.74 -95.84,-33.53 -136.8,-64.61 -30.97,-32.87 -61.34,-66.34 -91,-100.43l-0.17 -0.3c-9.18,-14.96 -17.16,-30.31 -23.97,-45.94l-10.14 6.22c-500.67,-593.41 -802.42,-1360.12 -802.42,-2197.31 0,-941.52 381.64,-1793.89 998.62,-2410.87 616.98,-616.98 1469.36,-998.62 2410.87,-998.62 941.5,0 1793.89,381.64 2410.89,998.62 616.98,616.98 998.6,1469.36 998.6,2410.87 0,822.5 -291.26,1576.98 -776.23,2165.91l-6.13 -3.78c-3.94,9.02 -8.26,17.93 -12.96,26.7 -36.3,43.32 -73.63,85.69 -112.01,127.13 -38.57,27.24 -81.77,46.62 -126.99,57.45 -91.58,21.91 -191.52,8.87 -278.11,-44.28 -86.59,-53.17 -143.44,-136.42 -165.33,-227.98 -21.9,-91.58 -8.87,-191.52 44.3,-278.11 4.93,-8.01 10.09,-15.77 15.5,-23.26z"/>
   <path class="fil1" d="M6015.11 4057.15c51.39,-207.42 78.7,-424.35 78.7,-647.64 0,-741.24 -300.48,-1412.36 -786.23,-1898.1 -485.74,-485.76 -1156.84,-786.23 -1898.06,-786.23 -741.26,0 -1412.36,300.48 -1898.1,786.23 -485.76,485.74 -786.23,1156.84 -786.23,1898.1 0,713.63 278.56,1362.23 732.81,1843.04l5.66 8.95c53.17,86.58 66.2,186.53 44.28,278.09 -21.9,91.56 -78.74,174.81 -165.33,227.98 -86.59,53.15 -186.53,66.18 -278.09,44.28 -49.12,-11.74 -95.84,-33.55 -136.8,-64.61 -30.99,-32.87 -61.35,-66.35 -91,-100.44l-0.17 -0.28c-9.18,-14.96 -17.16,-30.31 -23.97,-45.94l-10.14 6.22c-500.67,-593.41 -802.42,-1360.12 -802.42,-2197.31 0,-941.52 381.64,-1793.91 998.62,-2410.87 616.96,-616.98 1469.36,-998.62 2410.87,-998.62 941.5,0 1793.89,381.64 2410.89,998.62 616.96,616.96 998.6,1469.36 998.6,2410.87 0,363.21 -56.82,713.16 -162.04,1041.44 -53.32,81.66 -133.96,135.41 -222.4,156.55 -91.56,21.91 -191.5,8.87 -278.09,-44.28 -86.59,-53.17 -143.44,-136.4 -165.33,-227.98 -21.9,-91.56 -8.88,-191.5 44.3,-278.09 9.18,-14.96 19.27,-29.04 30.12,-42.17l-15.02 -9.22c-10.77,13.22 -20.8,27.31 -29.98,42.26 -1.86,3.03 -3.68,6.08 -5.44,9.15z"/>
  </g>
  <path class="fil1" d="M4190.34 4685.91c5.19,-60.33 13.36,-75.38 75.31,-94.73 -3.1,72.14 -5.63,93.11 -75.31,94.73zm-1638.86 -105.25c62.78,4.34 109.64,17.19 82.07,88.58 -72.76,9.91 -75.52,-6.57 -82.07,-88.58zm-92.2 -10.43c50.52,8.92 58.67,25.38 55.52,82.76 -49.75,-4.74 -79.61,-33.45 -55.52,-82.76zm138.89 -78.39c76.7,-14.13 94.36,49.87 65.73,77.38 -41.04,39.44 -68.72,-30.96 -65.73,-77.38zm-226.02 -48.27c51.6,9.16 66.13,31.76 43.58,80.78 -37.89,-9.82 -72.64,-32.14 -43.58,-80.78zm1923.22 78.36c-10.1,-88.69 10.71,-161.95 107.36,-153.49 1.08,82.12 -28.38,147.6 -107.36,153.49zm-1744.37 22.8c-87.69,11.34 -158.09,-137.22 -119.38,-177.95 45.73,-48.13 150.06,87.45 119.38,177.95zm-22 -222.59c79.85,8.17 119.12,51.67 89.77,128.72 -65.45,-5.37 -97.45,-54.65 -89.77,-128.72zm1684.67 134.31c-1.18,-73.74 9.53,-128.05 84.75,-114.17 -5.78,61.95 -21.08,95.08 -84.75,114.17zm230.57 -69.4c-3.1,-53.79 13.76,-72.76 62.73,-80.64 16.44,49.91 -4.18,90.03 -62.73,80.64zm-2001.05 -156.34c60.4,-22.73 64.92,30.15 64.78,96.68 -36.62,-7.18 -47.35,-5.87 -65.19,-34.61 -18.06,-29.04 -9.3,-47.61 0.4,-62.07zm1972.08 76.37c-4.72,-126.66 83.46,-147.98 79.66,-72.22 -2.37,47.42 -40.21,61.86 -79.66,72.22zm-2080.91 -112.95c67.75,0.84 87.43,38.64 76.72,112.1 -59.07,-5.23 -83.84,-43.52 -76.72,-112.1zm958.1 -38.52c61.46,-28.8 292.6,-52.05 241.49,61.58 -57.26,31.37 -181.97,28.88 -240.29,-4.76l-1.2 -56.82zm-80.36 -153.42c70.34,-94.49 333.65,-97.22 405.21,0 -41.32,96.02 -352.69,102.87 -405.21,0zm-505.93 -129.1c92.73,12.73 170.44,63.2 217.54,114.94 45.73,50.22 126.17,155.8 96.28,225.99l-31.93 -0.28c-32.61,-8.33 -19.7,-19.46 -60.2,-37.45 5.47,60.22 21.01,101.28 -24.77,138.61 -162.35,132.39 -232.23,-68.7 -300.22,-151.29 -54.09,-65.67 -97.57,-93.32 -167.01,-146.87 43.83,-61.84 124.31,-87.2 226.72,-77.36l43.58 -66.28zm1432.92 72.17c148.49,-16.93 153.85,0.38 250.67,54.58 -21.1,59.47 -105.34,72 -241.44,282.36 -42.77,66.11 -87.76,92.76 -178.59,53.62 -107.6,-46.39 -57.76,-73.53 -64.59,-166.69 -62.38,27.68 -15.77,56.27 -93.82,60.27 -50.81,-83.46 124.71,-373.1 347.11,-343.16 8.88,19.79 14.75,23.64 -19.34,59.02zm-853.25 -102.92c5.3,-74.12 43.34,-69.14 117.48,-70.67 78.09,-1.62 114.99,-5.7 136.31,56.14 -47.43,77.92 -208.31,57.42 -253.79,14.53zm-341.57 -975.5c253.97,-31.08 1004.73,-32.02 1202.87,56.81 82.27,36.9 137.37,80.2 124.54,204.11 -27.04,261.02 -249.75,452.66 -547.67,407.8 -113.54,-17.09 -151.41,-57.92 -201.36,-132.41 -169.11,-252.31 -195.91,279.38 -681.59,98.63 -144.92,-53.93 -267.9,-178.36 -281.45,-371.78 -15.33,-218.62 204.14,-241.06 384.67,-263.16zm-399.13 -113.25c221.65,-242.59 1391.81,-272.69 1741.2,-4.91 -46.84,2.44 -552.51,-75.59 -868.58,-74.03 -483.89,2.39 -607.42,66.79 -872.62,78.95zm1768.91 1094.1c-2.47,-91.14 128.33,-327.67 165.54,-441.47 164.62,-503.79 139.33,-1027.87 -233.92,-1380.36 -425.83,-402.16 -2200.86,-535.32 -1971.4,1073.56 95.78,671.37 398.69,655.91 102.93,834.89 -130.6,79.02 -230.27,204.51 -134.59,400.49 122.36,250.59 296.31,649.42 632.87,460.99 317.18,-177.6 225.97,-163.64 295.39,-303.58 90.34,12.44 120.23,65.1 246.74,63.18 125.84,-1.9 141,-46.48 241.35,-64.82 71.86,195.91 51.56,161.71 334.48,316.71 290.36,159.1 584.55,-306.16 621.23,-615.74 21.3,-179.74 -119.47,-254.89 -300.63,-343.84zm-1383.79 -843.37c-192.25,68.43 -102.17,379.79 119.31,311.35 188.08,-58.15 114.87,-394.68 -119.31,-311.35zm848.82 3.07c-195.4,70.48 -92.85,387.61 125.32,305.91 186.85,-69.96 103.74,-388.54 -125.32,-305.91z"/>
 </g>
</svg>
