<?xml version="1.0" encoding="UTF-8"?>
<!DOCTYPE svg PUBLIC "-//W3C//DTD SVG 1.1//EN" "http://www.w3.org/Graphics/SVG/1.1/DTD/svg11.dtd">
<!-- Creator: CorelDRAW 2019 (64-Bit Wersja próbna) -->
<svg xmlns="http://www.w3.org/2000/svg" xml:space="preserve" width="39.8865mm" height="34.0548mm" version="1.1" style="shape-rendering:geometricPrecision; text-rendering:geometricPrecision; image-rendering:optimizeQuality; fill-rule:evenodd; clip-rule:evenodd"
viewBox="0 0 2437.37 2081.01"
 xmlns:xlink="http://www.w3.org/1999/xlink"
 xmlns:xodm="http://www.corel.com/coreldraw/odm/2003">
 <defs>
  <style type="text/css">
   <![CDATA[
    .str0 {stroke:#990000;stroke-width:4.66;stroke-miterlimit:22.9256}
    .fil0 {fill:#990000}
   ]]>
  </style>
 </defs>
 <g id="Warstwa_x0020_1">
  <metadata id="CorelCorpID_0Corel-Layer"/>
  <path class="fil0" d="M1930.53 1862c153.89,-170.18 247.63,-395.8 247.63,-643.31 0,-264.94 -107.4,-504.83 -281.03,-678.45 -173.63,-173.63 -413.5,-281.03 -678.45,-281.03 -264.95,0 -504.83,107.4 -678.45,281.03 -173.63,173.63 -281.03,413.5 -281.03,678.45 0,255.08 99.57,486.92 261.93,658.78l2.02 3.2c19,30.95 23.66,66.67 15.83,99.4 -7.83,32.73 -28.15,62.48 -59.1,81.49 -30.95,19 -66.67,23.65 -99.4,15.83 -17.56,-4.2 -34.26,-11.99 -48.9,-23.09 -11.07,-11.75 -21.93,-23.72 -32.53,-35.9l-0.06 -0.1c-3.28,-5.35 -6.14,-10.83 -8.57,-16.42l-3.62 2.22c-178.96,-212.11 -286.82,-486.16 -286.82,-785.41 0,-336.53 136.41,-641.21 356.94,-861.74 220.53,-220.53 525.21,-356.94 861.74,-356.94 336.53,0 641.21,136.41 861.75,356.94 220.53,220.53 356.94,525.21 356.94,861.74 0,294 -104.11,563.68 -277.46,774.19l-2.19 -1.35c-1.41,3.22 -2.95,6.4 -4.63,9.55 -12.97,15.48 -26.32,30.63 -40.03,45.44 -13.79,9.74 -29.23,16.66 -45.4,20.53 -32.73,7.83 -68.45,3.17 -99.4,-15.83 -30.95,-19 -51.27,-48.76 -59.1,-81.49 -7.83,-32.73 -3.17,-68.45 15.83,-99.4 1.76,-2.87 3.61,-5.63 5.54,-8.32z"/>
  <g id="_2161102498288">
   <path class="fil0" d="M1514.57 1158.43c29,11.44 31.9,1.06 55.28,21.71 1.94,37.14 -40.67,86.3 -62.05,100.41 -46.06,30.39 -97.61,-3.39 -100.64,71.43 -4.14,102.58 -1.26,152.9 -188.62,158.89 -55.86,1.78 -99.15,-8.27 -141.67,-31.04 -62.81,-33.65 -44.39,-55.5 -47.8,-127.68 -3.73,-78.97 -53.41,-38.5 -100.35,-70.93 -27.78,-19.2 -66.49,-66.85 -60.95,-106.26 24.09,-12.48 33.88,-8.53 52.04,-23.2 -10.24,-53.49 -121.33,-172.92 1.5,-317.07 224.01,-262.89 758.4,-90.84 624.95,250.41 -8.64,22.09 -28.59,50.44 -31.69,73.34zm-708.95 -126.91c4.61,28.55 25.8,74.88 20.23,95.96 -7.77,29.47 -29.61,44.23 -25.13,89.06 7.42,74.29 82.64,70.82 84.18,161.89 2.1,124.15 -1.28,111.19 70.52,176.46 104.37,94.89 174.8,196.86 321.56,156.5 66.1,-18.19 108.1,-71.76 143.23,-104.08 27.47,-25.28 108.2,-88.14 123.43,-124.15 30.69,-72.62 -21.38,-126.29 46.06,-194.05 22.99,-23.1 43.5,-38.28 47.61,-78.51 6.14,-60.09 -23.75,-58.05 -26.87,-92.61 -0.68,-7.65 130.06,-334.91 -246.09,-452.72 -134.83,-42.23 -292.36,-23.12 -397,41.4 -87.46,53.93 -186.43,172.1 -161.73,324.84z"/>
   <path class="fil0" d="M1616.35 1334.91c29.74,1.73 99.52,-47.85 128.98,-64.14 87.01,-48.12 91.82,-0.75 155.35,0.78 83.9,2 122.62,-122.48 47.89,-167.94 -35.6,-21.66 -34.25,-9.84 -36.58,-58.59 -2.83,-59.12 -50.44,-95.89 -109.93,-84.95 -75.44,13.88 -57.53,69.28 -75.15,119.72 -12.11,34.67 -34.17,19.52 -48.04,50.9 -11.66,26.37 1.16,47.05 -2.25,79.73 -6.14,58.95 -42.14,86.12 -60.28,124.48z"/>
   <path class="fil0" d="M817.37 1338.84c-5.43,-26.17 -35.49,-61.36 -48.92,-90.9 -24.88,-54.73 -1.34,-67.48 -3.94,-116.92 -48.94,-26.88 -52.05,-35.11 -61.44,-99.16 -12.94,-88.22 -152.6,-112.6 -174.21,-1.41 -19.93,102.55 -32.91,50.54 -65.64,94.64 -25.18,33.93 -14.66,92.13 13.27,119.82 46.27,45.87 72.53,23.23 115.86,9.55 69.33,-21.91 165.6,63.55 225,84.38z"/>
   <path class="fil0" d="M1770.96 1623.01c34.4,-11.3 64.29,-26.67 73.16,-66.34 10.83,-48.42 -9.8,-83.06 -35.15,-100.32 -38.17,-25.97 -65.54,-17.93 -106.56,-1.61 -58.75,23.36 -57.86,-8.65 -102.92,-16.74 -14.92,30.86 -2.51,45.93 -26.9,81.04 -32.62,46.94 -37.89,20.73 -48.66,62.93 112.41,43.31 28.33,114.6 113.1,159.98 36.32,19.43 82.86,6.1 106.03,-12.53 32.92,-26.48 28.95,-59.1 27.9,-106.41z"/>
   <path class="fil0" d="M833.81 1442.59c-39.32,1.88 -44.22,38 -100.32,13.02 -102.47,-45.65 -157.53,30.13 -141.98,102.01 11.23,51.93 50.46,47.8 65.33,68.43 23.32,32.36 -1.91,69.06 35.91,104.59 25.06,23.54 74.13,28.46 106.53,10.69 81.77,-44.87 -4.99,-103.13 111.84,-159.94 -7.82,-32.41 -27.08,-33.05 -47.49,-61.5 -21.94,-30.58 -16.57,-44.66 -29.83,-77.28z"/>
   <path class="fil0" d="M1315.12 1098.47c-29.54,8.93 -42.19,9.84 -42.82,46.51 -0.48,27.81 9.61,52.44 23.58,69.57 25.67,31.5 90.59,54.67 141.02,35.69 36.46,-13.71 49.61,-101.91 22.48,-132.19 -24.03,-26.82 -108.57,-30.36 -144.25,-19.57z"/>
   <path class="fil0" d="M1148.57 1102.34c-37.8,-9.77 -128.34,-13.08 -163.66,9.89 -37.02,24.08 -29.6,100.69 -0.58,126.58 62.51,55.77 229.97,-21.63 164.25,-136.48z"/>
   <path class="fil0 str0" d="M1203.91 1222.56c-27.46,14.09 -53.85,76.14 -54.56,109.71 -1.09,51.27 34.72,83.49 87.22,72.24 108.72,-23.3 20.25,-209.11 -32.66,-181.95z"/>
  </g>
 </g>
</svg>
