<?xml version="1.0" encoding="UTF-8"?>
<!DOCTYPE svg PUBLIC "-//W3C//DTD SVG 1.1//EN" "http://www.w3.org/Graphics/SVG/1.1/DTD/svg11.dtd">
<!-- Creator: CorelDRAW 2019 (64-Bit Wersja próbna) -->
<svg xmlns="http://www.w3.org/2000/svg" xml:space="preserve" width="89.8024mm" height="69.681mm" version="1.1" style="shape-rendering:geometricPrecision; text-rendering:geometricPrecision; image-rendering:optimizeQuality; fill-rule:evenodd; clip-rule:evenodd"
viewBox="0 0 1551.75 1204.06"
 xmlns:xlink="http://www.w3.org/1999/xlink"
 xmlns:xodm="http://www.corel.com/coreldraw/odm/2003">
 <defs>
  <style type="text/css">
   <![CDATA[
    .str0 {stroke:white;stroke-width:137.16;stroke-linecap:round;stroke-miterlimit:22.9256}
    .str1 {stroke:white;stroke-width:86.4;stroke-linecap:round;stroke-miterlimit:22.9256}
    .fil1 {fill:none}
    .fil0 {fill:none;fill-rule:nonzero}
   ]]>
  </style>
 </defs>
 <g id="Warstwa_x0020_1">
  <metadata id="CorelCorpID_0Corel-Layer"/>
  <path class="fil0 str0" d="M1200.07 995.31c157.96,-1.27 283.1,-131.22 283.1,-289.51 0,-66.8 -22.79,-128.26 -61.14,-177.3 -52.5,-67.74 -134.54,-111.28 -226.81,-111.28 -13.83,0 -27.5,0.39 -40.87,2.44 -28.92,-117.73 -102.95,-217.81 -202.76,-280.52 -70.89,-44.8 -154.98,-70.55 -244.88,-70.55 -254.47,0 -460.69,206.22 -460.69,460.7 0,37.41 4.4,73.72 12.89,108.61 -4.24,-0.32 -8.49,0.32 -12.89,0.32 -97.91,-0 -177.44,80.16 -177.44,178.09 0,98.08 79.53,179.04 177.45,179.04l86.9 0"/>
  <line class="fil1 str1" x1="465.64" y1="856.86" x2="1049.08" y2= "856.86" />
  <line class="fil1 str1" x1="465.64" y1="1010.39" x2="685.2" y2= "1010.39" />
  <line class="fil1 str1" x1="465.64" y1="1160.86" x2="1049.08" y2= "1160.86" />
  <line class="fil1 str1" x1="840.27" y1="1010.39" x2="1046.01" y2= "1010.39" />
 </g>
</svg>
