<?xml version="1.0" encoding="UTF-8"?>
<!DOCTYPE svg PUBLIC "-//W3C//DTD SVG 1.1//EN" "http://www.w3.org/Graphics/SVG/1.1/DTD/svg11.dtd">
<!-- Creator: CorelDRAW -->
<svg xmlns="http://www.w3.org/2000/svg" xml:space="preserve" width="48.9512mm" height="48.9512mm" version="1.1" style="shape-rendering:geometricPrecision; text-rendering:geometricPrecision; image-rendering:optimizeQuality; fill-rule:evenodd; clip-rule:evenodd"
viewBox="0 0 5119.89 5119.89"
 xmlns:xlink="http://www.w3.org/1999/xlink"
 xmlns:xodm="http://www.corel.com/coreldraw/odm/2003">
 <defs>
  <style type="text/css">
   <![CDATA[
    .fil0 {fill:white}
   ]]>
  </style>
 </defs>
 <g id="Warstwa_x0020_1">
  <metadata id="CorelCorpID_0Corel-Layer"/>
  <g id="_105553178627072">
   <path class="fil0" d="M-0 2489.95c0,324.75 7.88,377.13 72.45,687.53 45.42,218.37 158.05,469.65 268.04,661.93 97.47,170.39 273.8,399.98 406.9,533.08 31.04,31.04 50.35,42.12 80.21,69.78 443.6,410.97 1055.27,677.61 1662.35,677.61 417.67,0 793.13,-59.09 1160.12,-239.85 138.64,-68.28 276.79,-142.89 397.09,-232.88l265.4 -214.6c78.76,-70.91 71.57,-162.79 -7.7,-198.36 -97.37,-43.71 -173.85,82.66 -290.53,170.13 -711.32,533.2 -1580.51,671.27 -2424.24,295.44 -65.04,-28.96 -131.11,-65.07 -190.65,-99.34 -281.55,-162.11 -358.58,-247.62 -566.98,-453 -147.47,-145.34 -329.46,-431.57 -412.34,-617.63 -283.21,-635.81 -275.8,-1295.82 -3.02,-1932.72 29.11,-67.96 61.59,-128.9 98.63,-191.36 619.12,-1044.25 1809.32,-1485.95 2999.98,-991.51 61.64,25.59 138.05,64.93 192.29,97.7 138.07,83.4 305.08,187.04 419.6,300.39 72.8,72.05 149.14,137.12 216.57,223.42 245.06,313.64 389.66,537.4 493.75,956.23 210.4,846.63 -106.91,1375.38 -90.68,1471.21 10.51,62.08 54.5,86.78 112.66,86.78 110.89,0 170.71,-297.12 192.1,-387.89 39.28,-166.73 61.71,-333.89 67.89,-500.53l0 -190.91c-9.62,-259.01 -58.25,-515.88 -143.65,-766.98 -27.79,-81.73 -58.61,-142.06 -90.57,-219.42 -39.02,-94.48 -107.85,-208.96 -163.8,-296.18l-64.06 -95.94c-130.17,-195.08 -343.04,-415.35 -532.28,-557.69 -214.05,-161.01 -446.38,-299.23 -701.74,-388.24 -42.06,-14.65 -73.1,-24.96 -113.87,-36.13 -233.76,-64.06 -455.55,-101.65 -675.02,-110l-185.73 0c-243.58,9.36 -487.67,55.94 -745.56,143.65 -336.3,114.37 -704.51,352.03 -956.22,603.74l-146 163.99c-24.36,30.16 -41.6,49.17 -67.02,82.97 -27.65,36.75 -41.95,51.62 -68.34,91.65 -23.89,36.24 -36.87,51.2 -60.33,89.67 -141.93,232.66 -273.41,488.62 -331.56,758.44 -38.04,176.52 -74.15,345.34 -74.15,555.84z"/>
   <path class="fil0" d="M1359.97 3629.92c0,106.11 23.89,130 130,130 44.63,0 250.18,-225.19 292.49,-267.49l1419.97 -1419.97c97.44,-97.44 187.55,-187.55 284.99,-284.99 42.79,-42.79 272.49,-252.72 272.49,-297.49 0,-106.11 -23.89,-130 -130,-130 -46.11,0 -512.45,487.44 -577.48,552.48l-1134.98 1134.98c-97.44,97.44 -187.55,187.55 -284.99,284.99 -42.79,42.79 -272.49,252.72 -272.49,297.49z"/>
   <path class="fil0" d="M1359.97 1449.96c0,104.07 86.82,151.83 202.49,267.49 99.04,99.04 612.03,632.49 657.48,632.49 106.11,0 130,-23.89 130,-130 0,-44.88 -558.58,-583.59 -632.49,-657.48 -115.67,-115.67 -163.42,-202.49 -267.49,-202.49 -49.42,0 -89.99,40.57 -89.99,89.99z"/>
   <path class="fil0" d="M2729.94 2849.93c0,72.33 126.67,171.68 202.5,247.5l454.99 445c118.03,118.03 176.75,217.49 282.49,217.49 85.89,0 130.31,-117.5 47.82,-197.81 -23.09,-22.49 -35.4,-25.3 -60.53,-49.47l-679.78 -670.19c-44.79,-44.82 -75.02,-92.49 -147.5,-92.49 -51.5,0 -100,57.57 -100,99.99z"/>
  </g>
 </g>
</svg>
