<?xml version="1.0" encoding="UTF-8"?>
<!DOCTYPE svg PUBLIC "-//W3C//DTD SVG 1.1//EN" "http://www.w3.org/Graphics/SVG/1.1/DTD/svg11.dtd">
<!-- Creator: CorelDRAW -->
<svg xmlns="http://www.w3.org/2000/svg" xml:space="preserve" width="40mm" height="40mm" version="1.1" style="shape-rendering:geometricPrecision; text-rendering:geometricPrecision; image-rendering:optimizeQuality; fill-rule:evenodd; clip-rule:evenodd"
viewBox="0 0 4000 4000"
 xmlns:xlink="http://www.w3.org/1999/xlink"
 xmlns:xodm="http://www.corel.com/coreldraw/odm/2003">
 <defs>
  <style type="text/css">
   <![CDATA[
    .str0 {stroke:#ECECEC;stroke-width:105.83;stroke-miterlimit:22.9256}
    .fil1 {fill:none;fill-rule:nonzero}
    .fil0 {fill:#ECECEC}
   ]]>
  </style>
     <clipPath id="id0" style="clip-rule:nonzero">
      <path d="M2338.92 19.25c-17.5,5.94 -29.69,12.81 -40.32,22.82 -8.75,8.44 -10.94,8.75 -39.07,9.06 -35.01,0 -52.2,6.57 -73.14,27.51 -19.7,19.69 -28.76,42.82 -28.76,72.52 0.31,31.25 8.12,50.63 29.07,71.26 29.07,28.76 70.64,37.82 106.27,23.13l19.38 -7.81 0 19.38c0,26.57 -7.81,94.08 -17.5,151.91 -7.82,46.57 -24.7,127.84 -27.51,130.34 -0.62,0.63 -20,-2.18 -42.82,-6.56 -66.89,-12.81 -144.41,-21.25 -221.62,-24.69l-17.19 -0.63 -2.81 -46.88c-3.13,-55.64 1.87,-194.43 9.06,-240.06 7.82,-50.95 17.82,-78.77 34.39,-95.96 23.75,-24.38 19.38,-60.02 -10.32,-88.46 -7.19,-6.88 -11.57,-8.75 -19.69,-7.82 -8.75,0.94 -11.88,3.44 -20.63,18.76 -10.94,18.75 -20.01,24.38 -27.82,17.81 -2.81,-2.18 -9.69,-11.56 -15.63,-20.62 -8.75,-13.76 -12.19,-16.57 -19.69,-16.57 -12.5,0 -26.88,12.81 -36.89,32.19 -6.56,13.44 -7.81,18.76 -6.25,34.08 1.25,15.94 3.44,20.31 14.07,31.88 19.38,20.94 30.94,58.45 38.13,122.21 4.38,41.89 7.82,192.55 5,230.06l-2.5 30.01 -47.51 2.19c-187.54,7.81 -381.65,57.82 -560.45,144.09l-53.76 25.95 -13.44 -14.38c-31.57,-34.07 -92.84,-129.41 -144.1,-224.12 -57.51,-106.59 -79.39,-173.48 -67.52,-207.24 8.13,-23.75 -14.69,-57.2 -47.19,-67.83 -13.13,-4.37 -17.51,-4.68 -25.01,-1.56 -10,4.06 -12.5,10.32 -12.5,34.7 0,27.19 -9.38,31.25 -35.95,15.31 -18.75,-11.25 -23.44,-11.56 -32.19,-2.18 -8.76,9.37 -12.82,31.88 -9.69,52.51 3.44,20.63 19.06,38.13 38.76,43.13 29.38,7.51 65.32,44.7 115.65,120.66 41.88,62.83 83.46,134.72 115.34,199.73 20.63,41.26 41.57,94.4 38.76,97.22 -0.63,0.62 -14.38,9.69 -30.63,20.31 -61.58,40.33 -125.35,90.34 -184.11,143.48l-32.51 29.69 -20.94 -22.19c-29.38,-30.63 -71.89,-82.52 -71.89,-87.52 0,-2.5 3.43,-4.07 8.75,-4.07 13.13,0 39.38,-13.75 53.76,-28.13 39.39,-39.38 39.7,-104.09 0.31,-143.47 -38.75,-38.76 -102.52,-40.01 -141.91,-2.81 -10.62,10 -11.56,10.31 -38.44,10.31 -24.38,0 -30.01,1.25 -44.39,8.75 -20.94,10.94 -38.13,28.13 -47.82,47.83 -6.25,12.81 -7.5,20 -7.5,43.13 0,27.2 -0.32,27.82 -10.63,39.07 -42.2,44.7 -34.07,118.47 16.57,152.85 20.94,14.07 45.32,20.63 66.89,18.13 44.38,-5.31 79.08,-35.32 89.08,-76.58 1.88,-8.75 4.69,-15.94 5.94,-15.94 3.44,0 59.7,46.26 86.58,71.27l23.45 21.56 -31.89 35.01c-61.89,68.15 -121.59,147.85 -167.85,224.43l-27.19 44.7 -36.26 -19.07c-122.53,-65.01 -228.5,-135.03 -264.44,-175.04 -15.94,-17.5 -26.88,-36.57 -26.88,-45.95 0,-5.94 -18.76,-25.63 -30.32,-31.57 -10.63,-5.31 -44.7,-4.37 -57.2,2.19 -14.38,6.88 -15.95,18.13 -5.01,38.13 8.76,15.95 10.32,29.39 4.38,33.14 -1.87,1.25 -13.44,2.81 -25.63,3.12 -25.01,1.25 -30.01,5 -30.01,22.2 0,12.81 11.88,37.19 24.07,48.45 12.5,11.87 32.2,16.87 47.51,12.5 16.88,-5.32 26.57,-4.69 56.89,2.81 46.89,11.88 114.72,43.76 209.74,98.78 50.95,29.38 102.52,62.51 102.52,65.95 0,1.56 -7.5,18.75 -16.87,38.45 -9.07,19.69 -23.76,53.13 -32.51,74.7 -16.57,40.95 -47.51,131.91 -47.51,139.72 0,2.19 -2.19,5 -4.69,5.94 -7.82,3.13 -142.23,-41.88 -142.23,-47.51 0,-0.94 5.01,-5.62 10.94,-10.94 5.94,-5.31 15.32,-19.07 20.95,-30.32 20,-40.32 11.88,-85.96 -20.95,-117.53 -36.88,-35.94 -97.83,-37.19 -136.28,-2.5 -15.31,13.76 -34.07,45.01 -34.07,56.89 0,2.5 -6.56,7.19 -15,10.63 -21.57,9.06 -48.14,36.88 -55.64,58.14 -11.57,33.76 -5.63,70.64 15.94,98.77 6.56,8.76 7.19,11.26 4.38,21.88 -1.88,6.57 -2.82,21.88 -2.19,33.76 4.69,89.71 117.53,127.85 177.23,59.7 21.57,-24.69 30.32,-63.76 20.94,-93.77 -2.5,-8.44 -4.06,-15.94 -3.12,-16.88 3.75,-3.75 139.72,21.88 145.66,27.51 1.56,1.25 -1.57,20.94 -6.88,44.07 -11.25,51.58 -23.76,137.22 -28.13,193.49 -6.57,86.58 -3.44,215.67 7.5,298.82 2.19,17.19 3.75,31.57 3.44,32.2 -1.88,2.18 -68.77,13.12 -117.22,19.06 -85.33,10.32 -136.59,13.75 -195.67,11.88 -63.45,-1.56 -86.58,-6.25 -105.34,-21.26 -15.94,-12.81 -39.38,-15.62 -57.2,-6.56 -15,7.82 -35.32,27.51 -37.51,36.89 -3.12,12.81 1.57,19.06 20.01,27.19 10,4.06 20,10 22.19,12.82 6.25,7.5 0.63,17.81 -16.88,30.31 -7.81,5.63 -15,13.76 -16.25,17.82 -3.44,14.07 18.75,33.45 47.51,41.57 18.13,5 41.88,-2.81 53.14,-17.81 20.63,-27.2 75.95,-47.2 176.6,-63.46 72.52,-11.56 162.23,-20.94 216.93,-22.5l21.57 -0.63 5.94 27.82c18.44,89.09 57.2,206.3 97.83,294.45 8.13,17.82 14.07,32.82 13.44,33.44 -3.44,3.76 -69.39,39.39 -105.96,58.14 -40.95,20.32 -100.65,46.58 -106.28,46.58 -1.56,0 -2.81,-10.32 -2.81,-22.82 0,-56.58 -45.32,-100.65 -103.15,-100.34 -38.13,0 -70.64,21.26 -88.15,56.89 -8.75,17.82 -10.31,24.07 -10.31,44.39 0,18.75 1.56,26.88 8.44,41.57l8.44 17.82 -5.63 13.44c-26.25,60.95 11.88,130.97 77.21,141.59 10.94,1.57 14.06,4.07 20.63,15.32 10,16.88 30,35.01 48.45,43.45 21.56,9.69 61.89,9.06 83.14,-1.25 22.82,-11.26 43.14,-32.82 51.58,-55.02 9.06,-24.07 7.81,-61.26 -2.82,-81.89 -9.69,-18.76 -25.94,-35.95 -41.88,-44.39l-13.75 -7.5 8.12 -6.56c27.82,-23.76 184.11,-114.09 196.61,-114.09 1.57,0 12.51,17.19 24.38,38.13 53.14,94.09 119.09,184.11 199.43,272.57l25.32 27.82 -25.01 23.44c-29.38,27.51 -76.89,67.83 -85.65,72.52 -5.62,2.81 -6.56,1.87 -8.44,-8.44 -5.31,-29.39 -28.75,-59.39 -56.88,-73.15 -20.63,-10.31 -64.08,-10.62 -85.96,-0.62 -20.95,9.69 -44.08,34.38 -52.2,56.26 -13.13,35.01 -5.32,77.52 19.69,104.72 10,10.94 10.31,12.19 10.31,37.5 -0.31,31.26 8.76,53.77 29.39,74.4 20.63,20.63 43.13,29.69 74.39,29.38 25.32,0 26.57,0.31 37.2,10.31 20.31,18.45 36.57,24.39 68.14,24.39 23.75,0 30.63,-1.25 43.76,-7.51 19.69,-10 38.76,-29.07 48.76,-48.76 10.63,-22.19 10.94,-65.01 0,-86.58 -13.75,-28.45 -43.76,-51.58 -73.14,-56.89l-11.88 -2.19 5.94 -9.69c7.19,-11.25 67.2,-80.64 83.14,-95.96l10.94 -10.63 13.76 12.19c88.77,77.84 138.16,116.6 198.48,155.98 29.7,19.38 31.88,21.26 30.01,29.07 -8.13,33.44 -60.64,139.1 -110.34,221.93 -72.83,121.59 -120.65,177.85 -159.41,188.17 -12.82,3.44 -23.76,12.19 -33.76,26.88 -5.32,8.13 -5.94,45.64 -1.25,58.14 1.56,4.69 6.87,10.63 10.94,13.75 7.81,4.69 8.75,4.69 26.57,-4.69 30.63,-15.94 37.82,-12.81 37.82,16.88 0,25.01 5.31,32.82 22.19,32.82 14.07,0 34.38,-9.06 47.2,-21.25 12.82,-11.88 19.69,-35.01 14.69,-49.7 -9.69,-30.01 6.25,-84.4 51.89,-174.42 52.2,-103.77 114.4,-202.86 163.79,-261l9.06 -10.63 55.95 26.88c106.59,51.89 217.56,90.34 325.71,113.16 19.38,4.06 35.94,8.44 36.88,9.37 5.32,5.32 -11.56,116.28 -30.63,201.93 -34.7,156.29 -72.21,248.18 -109.71,267.56 -10.32,5.32 -20.95,25.64 -21.26,40.64 0,26.57 19.07,60.64 34.38,60.64 4.07,0 12.82,-6.25 21.88,-15.63 21.88,-22.82 30.64,-21.26 40.64,7.5 3.44,10.32 7.81,20.32 9.69,22.51 9.38,11.25 36.26,-1.57 54.7,-25.32 12.82,-16.88 14.38,-42.82 3.44,-59.7 -15.01,-23.13 -18.44,-66.89 -10,-131.6 17.5,-135.03 80.02,-361.02 98.14,-356.02 34.39,9.69 247.56,13.44 322.27,5.62 49.39,-5 145.04,-20.63 187.23,-30.63 17.82,-4.06 33.14,-6.87 33.76,-6.25 5,5 29.07,121.28 29.07,140.03 0,6.88 -1.25,9.07 -4.38,7.82 -53.13,-20.32 -111.27,2.81 -133.78,53.45 -10.31,22.82 -9.69,59.39 0.94,82.21 16.88,35.63 47.51,56.57 85.96,58.45 11.88,0.62 27.5,-0.32 34.07,-2.19 10.63,-2.81 13.13,-2.5 18.75,2.5 10.32,9.69 29.7,18.76 47.83,22.51 20.32,4.06 43.76,0.31 65.33,-10.32 17.81,-9.06 39.38,-32.82 46.57,-50.95 3.13,-8.75 7.19,-14.07 10.32,-14.07 10,0 42.82,-18.12 54.07,-30 36.89,-38.76 37.2,-102.84 0.63,-140.35 -20.63,-21.25 -44.08,-31.26 -73.15,-31.26 -20.31,0 -26.56,1.57 -44.38,10.32 -11.25,5.62 -25.01,15 -30.32,20.94 -5.31,5.94 -10.32,10.94 -10.94,10.94 -4.06,0 -26.26,-60.33 -43.45,-117.84l-7.81 -25.94 26.88 -8.13c68.77,-20.94 145.35,-51.58 215.99,-86.58l45.01 -22.2 14.38 16.57c65.95,76.27 181.29,280.07 205.05,361.34 8.12,28.13 10,57.82 4.69,71.58 -3.13,8.75 3.44,33.75 12.19,43.76 9.69,11.25 35.63,23.75 49.38,23.75 18.13,0 22.82,-5.62 22.82,-28.44 0,-33.45 9.07,-38.14 39.07,-21.26 11.26,6.25 19.07,8.76 23.45,7.51 14.06,-4.38 22.5,-38.76 15.63,-64.08 -4.38,-16.88 -23.76,-37.51 -35.01,-37.51 -16.88,0 -54.08,-31.26 -84.71,-70.96 -61.89,-80.33 -165.04,-266 -184.73,-331.95l-4.38 -15.32 36.26 -24.38c64.39,-42.51 122.84,-88.46 180.98,-141.28 15.94,-14.38 30.01,-25.64 31.57,-25.01 4.38,1.88 54.08,56.58 74.71,82.21l19.69 24.69 -20.32 6.56c-25.94,8.44 -43.45,20.95 -56.58,40.01 -35.94,52.52 -15.31,124.1 43.45,150.67 15.94,7.5 21.26,8.44 43.76,7.19 28.76,-1.25 46.58,-8.13 64.71,-25.01 10.31,-10 11.56,-10.32 37.51,-10.32 31.57,-0.31 54.38,-9.06 74.08,-28.75 20.31,-20.32 27.5,-38.45 27.81,-71.58 0.63,-27.2 0.94,-28.45 10.63,-39.07 5.63,-5.94 13.75,-18.45 18.44,-27.82 10.94,-22.82 11.57,-59.71 1.25,-81.9 -9.69,-21.25 -32.5,-44.38 -51.88,-52.51 -19.38,-8.44 -49.08,-11.25 -66.27,-6.57 -35.32,9.38 -66.27,40.64 -74.08,74.4 -2.19,9.06 -4.69,16.56 -5.63,16.56 -3.75,0 -46.88,-35.94 -77.2,-64.39l-32.2 -29.69 30.32 -33.45c139.72,-154.41 247.25,-339.14 309.45,-532.63 8.44,-25.63 16.26,-46.26 17.51,-46.26 8.12,0 129.4,58.77 176.91,85.65 30.32,17.5 57.21,34.07 71.58,45.01l10.32 7.81 -9.38 4.38c-17.81,8.75 -34.38,25.94 -44.38,46.57 -24.7,50.01 -4.07,108.47 47.82,136.29 11.25,5.94 18.13,7.19 43.14,7.19 25.94,0 31.57,-0.94 45.32,-8.44 18.13,-9.38 40.63,-32.2 47.2,-48.14 3.75,-9.07 5.94,-10.63 15,-10.63 15.01,0 46.89,-17.19 59.7,-31.88 19.38,-22.82 25.01,-38.14 25.01,-68.14 0,-20.95 -1.56,-29.7 -7.19,-41.89l-6.88 -15.31 6.88 -14.07c10,-21.26 11.25,-56.26 2.5,-79.39 -8.13,-22.2 -30.63,-46.58 -51.57,-56.27 -12.51,-5.94 -20.95,-7.19 -43.76,-7.19 -24.7,0 -30.32,1.25 -44.39,8.75 -36.57,19.07 -55.64,50.02 -55.64,90.34 0,17.5 -1.25,24.38 -4.06,24.38 -22.19,0 -236.31,-104.4 -266.63,-130.34 -4.69,-3.75 -4.69,-6.26 0.63,-28.45 26.57,-110.02 39.69,-259.75 34.07,-386.34 -1.88,-36.26 -3.75,-69.71 -5,-74.71 -1.57,-7.81 -0.63,-9.06 15.94,-16.56 58.76,-25.95 240.06,-63.77 352.27,-73.46 33.14,-3.13 49.7,-3.13 72.83,-0.31 27.82,3.44 51.58,11.56 56.27,19.38 0.93,1.56 10.62,3.12 21.56,3.12 16.57,0 21.88,-1.56 33.45,-9.06 16.25,-10.94 27.19,-24.69 29.69,-37.82 2.51,-12.51 -1.87,-17.2 -23.13,-25.01 -16.56,-6.25 -25.63,-13.13 -25.63,-19.69 0,-1.56 7.82,-10.94 17.51,-20.94 14.69,-15.63 17.19,-19.7 15.63,-26.57 -2.82,-10.94 -24.07,-25.63 -44.08,-30.01 -22.82,-5 -45.95,2.81 -56.57,19.69 -18.13,28.45 -69.71,51.89 -167.54,75.64 -105.03,25.64 -253.5,48.14 -296.01,45.02l-13.76 -0.94 -10 -50.01c-17.82,-88.15 -43.14,-174.11 -75.33,-254.44 -19.38,-48.14 -21.57,-40.95 20.32,-66.27 73.45,-44.07 227.55,-110.96 314.14,-136.28 48.13,-13.75 95.02,-17.5 114.4,-8.75 27.19,12.19 59.7,-5.32 75.33,-40.95 6.56,-14.69 5.31,-27.82 -3.13,-32.19 -2.81,-1.57 -12.81,-3.76 -22.5,-4.69 -29.7,-3.75 -34.07,-14.38 -15.32,-37.83 5,-6.25 10,-14.06 10.94,-17.19 5,-15.94 -19.06,-30.94 -49.7,-31.25 -26.25,0 -43.45,10.31 -53.14,32.19 -7.81,18.13 -33.13,43.14 -62.82,63.14 -55.95,36.88 -217.56,109.71 -309.14,138.78 -35.01,11.26 -70.64,19.38 -74.39,17.2 -1.57,-0.94 -6.88,-10.01 -12.19,-20.63 -16.26,-32.2 -49.39,-86.59 -82.21,-135.04 -17.51,-25.32 -32.82,-48.45 -34.7,-50.95 -2.5,-3.44 0.32,-7.81 12.51,-18.75 50.32,-45.01 148.16,-118.47 200.67,-150.35l27.51 -16.57 2.18 18.13c4.69,35.64 28.76,68.46 61.27,83.15 22.19,10 59.07,9.37 81.89,-1.25 35.32,-16.57 56.27,-47.2 58.77,-85.34 1.56,-27.5 -2.5,-43.44 -16.57,-64.7 -10.31,-15 -10.94,-16.88 -7.5,-27.19 5.31,-16.57 2.19,-55.64 -6.25,-71.9 -17.2,-33.44 -46.89,-53.13 -83.77,-55.95 -20.63,-1.56 -21.57,-2.18 -34.7,-16.88 -7.5,-8.44 -20.94,-18.75 -31.26,-23.75 -15.31,-7.5 -21.56,-8.75 -44.38,-8.75 -22.82,0 -29.07,1.25 -44.39,8.75 -43.13,21.25 -65.95,69.39 -54.39,114.09 8.76,34.07 32.2,61.26 61.89,71.89 8.44,2.81 15.01,6.25 15.01,7.19 0,3.13 -42.83,43.14 -74.39,69.39 -57.21,47.51 -157.23,119.72 -162.86,117.22 -1.25,-0.63 -17.19,-17.82 -35.32,-38.45 -87.52,-99.4 -198.48,-195.98 -301.95,-262.56 -24.06,-15.63 -28.44,-19.38 -26.88,-25.01 23.45,-79.39 132.85,-273.5 201.3,-356.96 20.63,-25.01 50.33,-50.32 62.52,-52.82 16.56,-3.44 27.19,-10.32 35.94,-23.14 8.44,-11.87 9.38,-16.25 9.38,-35.63 -0.31,-25.32 -6.88,-41.26 -18.44,-44.38 -5,-1.25 -12.82,1.25 -24.38,7.81 -29.07,16.57 -36.89,11.88 -36.89,-20.63 0,-23.76 -4.69,-30.63 -20.94,-30.32 -13.75,0.31 -35.95,10.63 -48.76,22.51 -11.57,10.94 -18.76,34.69 -14.07,47.82 5,14.69 1.25,50.95 -8.75,80.96 -27.82,83.77 -142.22,281 -206.61,356.02l-9.07 10.32 -40.32 -20.32c-79.39,-39.7 -163.79,-72.83 -241.93,-95.02l-41.58 -11.57 1.88 -26.88c5,-64.7 27.51,-191.92 44.07,-248.5 4.38,-15.32 8.76,-28.44 9.07,-29.07 0.62,-0.31 5.63,3.75 11.56,9.07 18.13,17.19 41.58,25.94 68.46,25.94 40.63,0 73.14,-20.32 90.96,-56.26 19.38,-39.39 11.88,-86.59 -19.07,-116.28 -15,-14.69 -34.38,-25.01 -53.45,-28.13 -11.57,-1.88 -14.69,-4.07 -20.63,-14.69 -10.31,-18.76 -29.07,-36.26 -47.51,-44.7 -20.32,-9.38 -52.2,-11.88 -70.64,-5.94l-0.01 0z"/>
     </clipPath>
 </defs>
 <g id="Warstwa_x0020_1">
  <metadata id="CorelCorpID_0Corel-Layer"/>
  <g id="_105553366477248">
   <g>
    <g>
    </g>
    <g style="clip-path:url(#id0)">
     <g>
      <path class="fil0" d="M1698.41 3352.77c-53.36,-2.59 -160.54,-38.85 -209.55,-55.9 -194.62,-67.7 -341.12,-166.38 -488.4,-299.59 -414.33,-374.75 -560.97,-1011.92 -338.61,-1550.52 9.91,-24.02 71.3,-171.06 93.73,-170.3 15.19,0.52 17.03,26.01 23.54,41.55 6.62,15.79 15.17,26.93 21.98,44.52 34.78,89.87 -30.01,110.54 -13.19,223.45 3,20.1 8.03,33.28 13.94,51.96 5.8,18.31 5.22,35.27 9.65,52.73 5.35,21.13 21.06,15.88 38.28,28.17 33.29,23.78 -2.97,34.16 40.1,92.48 12.97,17.55 8.32,26.66 12.99,49.68 27.08,27.93 22.75,6.06 38,53.86 5.21,16.34 22.23,46.69 41.02,43.51 -0.06,-13.72 -16.52,-20.5 -21.63,-47.61 -16.76,-88.82 -77.65,-88.54 -54.1,-148.71 17.66,0.27 15.92,2.69 20.92,19.54 21.21,71.44 41.33,52.88 55.99,101.74 6.03,20.06 4.64,10.24 19.01,22.15 69.29,57.41 37.58,121.41 86.16,149.57 30.95,17.94 74.66,29.42 105.81,48.77 28.1,17.46 17.54,22.64 59.32,14.89 35.09,-6.5 38.16,7.49 50.57,26.16 22.28,33.52 71.26,25.39 111.82,46.66 21.42,11.23 23.23,24.16 31.74,49.11 9.2,26.96 15.05,26.13 39.99,37.51l79.05 38.71c13.41,9.84 5.67,12.55 26.27,11.92l4.94 -30.76c17.53,-5.06 40.79,-3.65 44.15,13.57 3.63,18.55 -16.28,21.15 -28.42,27.95 -22.09,12.37 -22.58,1.86 -32,27.38 -8.06,21.83 -12.72,20.09 -23.2,35.38 -28.89,42.15 -4.71,60.4 -13.3,101.29 -6.76,32.16 -47.5,58.66 -52.15,66.38 -7.84,13 5.32,2.52 -14.65,43.38 -9.6,19.63 5.63,18.62 17.02,28.49 -2.56,19.88 -12.23,14.68 -23.76,29.46l7.13 39.61c36.8,16.16 48.43,32.56 65.58,70.45 27.39,60.54 72.86,109.11 132.09,140.61 34.84,18.54 59.92,19.64 59.92,73.45 0,96.36 3.79,52.88 -20.08,128.41 -9.7,30.67 7.24,51.61 -4.03,80.7 -9.45,24.39 -21.64,36.4 -14.83,72.85 5.77,30.94 18.97,40.27 1.19,75.39zm-649.13 -2434.48c3.19,-13.84 0.43,-6.95 10.96,-15.96 66.36,-56.8 137.35,-103.84 213.53,-147.32 180.03,-102.76 384.46,-163.1 597.31,-176.87 52.57,-3.4 120.76,1.5 164.53,21.07 31.44,14.05 33.35,23.5 52.81,43.07 17.76,17.87 55.87,16.7 62.2,33.14 -27,5.34 -79.83,-11.93 -65.09,28.8 23.91,9.94 46.74,-10.93 68.07,0.25 -14.77,11.73 -32.05,4.97 -42.97,29.22 -21.85,48.55 33.88,58.44 51.73,88.74 11.95,20.28 14.11,28.61 29.09,44.6 64.32,68.65 135.41,24.04 164.56,49.07 16.2,13.91 12.89,28.32 46.57,23.64 22.96,-24.73 22.6,-50.38 5.73,-80.58 9.13,-8.87 19.79,-8.96 17.39,-23.82 -1.96,-12.13 -10.16,-15.85 -1.65,-31.29 10.66,-19.34 40.7,-10.98 61.74,-19.31 28.61,-11.34 29.29,-33.01 44.15,-40.53 13.16,-6.65 16.75,-0.43 29.49,-11.12 8.39,-7.05 7.92,-15.1 24.31,-11.43 33.79,7.56 179.51,105.11 206.5,124.85 32.75,23.96 64,49.03 92.1,73.7 47.26,41.48 226.17,216.51 227.08,266.37 -19.61,-1.29 -15.59,-8.17 -36.67,-6.4 -1.72,21.38 16.86,23.19 -4.49,27.19 -31.08,5.83 -15.26,-4.3 -28.37,17.94 -17.04,28.89 -45.92,7.41 -64.77,15.4 -2.59,19.21 8.43,13.98 22.23,21.25 26.93,14.19 50.87,61.45 38.59,87.25 -11.6,2.69 -18.65,4.14 -31.78,1.68 -22.56,-4.23 -11.78,-6.12 -21.14,-12.28 -14.03,-9.23 -6.24,0.33 -25.84,-4.01 -13.42,-2.98 -11.08,-9.15 -24.45,-0.3 -9.39,8.24 -3.22,27.54 -1.35,39.21 2.66,16.58 11.25,17.35 2.46,39.71 -7.61,19.34 -14.08,12.14 -0.99,30.76 16.36,23.26 -2.71,39.29 25.21,44.99 29.53,6.02 34.19,17.96 40.52,18.43 16.7,-3.26 11.02,-7.25 23.12,-10.83 15.06,-4.46 14.33,0.47 28.15,-0.72 36.72,-3.18 14.58,-58.76 41.07,-76.7 23.51,-15.92 8.64,-17.88 21.84,-37.51 18.56,5.36 10.26,18.09 27.73,13.42 18.16,-4.86 1.41,-15.6 31.41,-12.51 22,40.18 4.42,34.32 40.87,69.07 28.38,27.05 26.49,44.8 39.95,65.76 7.04,-4.89 12.77,-20.08 16.59,-29.93 -14.71,-4.37 -12.47,-6.16 -20.92,-19.92 -6.86,-11.16 -8.83,-13.72 -17.78,-22.71 -12.21,-12.28 -25.5,-24.88 -30.06,-48.92 14.61,8.29 17.88,20.32 29.58,30.95 14.89,13.54 18.2,9.36 30.16,28.8 13.61,22.13 23.84,53.27 33.05,81.21 6.71,20.39 55.33,131.71 -2.84,117.86 -7.72,-1.84 -23.63,-18.62 -31.68,-24.49 -40.94,-29.85 -28.26,-18.98 -52.47,-65.29 -11.8,-22.56 -34.76,-42.68 -66.15,-47.6 -73.73,-11.58 -40.31,46.04 -128.82,6.11 -23.93,-10.8 -17.01,3.97 -20.23,25.98 -33.65,23.85 -45.03,34.03 -44.11,90.57 -24.86,27.03 -36.25,36.95 -59.32,77.05 -17.22,29.93 -43.55,48.67 -58.71,77.64 -27.25,52.09 3.91,75.08 14.65,106.98 5.62,16.67 2.65,42.53 -6.07,56.17 -20.03,31.31 -19.36,15.14 -0.67,43.12 -9.65,44.83 -10.18,30.11 16.52,60.42 38.22,43.4 21.32,46.37 82.76,97.71 23.43,19.58 24.39,21.22 42.43,44.74 26.92,2.91 133.58,-12.59 162.63,-23.18 15.28,-5.57 23.18,-9.2 37.64,-2.88 53.9,23.54 45.4,25.4 33.49,82.18 -8.84,42.15 28.54,95.76 26.18,157.35 -1.95,50.99 -33.29,84.09 -48.04,132.79 -16.42,54.19 -12.4,125.67 -30.31,153.95 -47.09,74.4 -96.49,145.5 -156.02,208.59 -29.58,31.35 -55.89,62.29 -89.06,91.41 -64.79,56.86 -124.22,106.96 -206.35,158.33 -158.29,99.01 -338.35,169 -529.67,199.57 -57.38,9.16 -298.57,29.72 -340.37,9.16 -20.16,-21.84 6.7,-41.12 19.89,-49.68 27.96,-18.14 31.4,4.19 55.26,-29.4 20.84,-29.33 35.51,-11.55 68.09,-16 24.85,-3.4 28.58,-27.82 46.01,-39.37 14.65,-9.71 38.04,-16.07 56.66,-28.05 17.03,-10.96 35.11,-24.17 46.44,-38.28 19.44,-24.2 19.75,-23.63 43.83,-40.95 22.72,-16.33 2.38,-38.66 25.92,-58.76 27,-23.04 106.86,-24.8 130.14,-39.18 22.1,-13.65 18.88,-30.85 33.09,-51.75 24.2,-35.61 46.81,-68.7 54.71,-115.39 6.01,-35.51 4.1,-38.07 25.6,-58.41 12.93,-12.23 35.36,-23.15 44.08,-40.61 9.64,-19.3 16.46,-52.91 7.06,-72.9 -13.64,-17.94 -19.31,-8.06 -40.8,-14.75 -12.09,-3.76 -20.54,-14.44 -34.49,-21.05 -21.8,-10.33 -58.01,-12.75 -84.17,-22.75 -26.09,-9.97 -43.26,-24.43 -72.1,-34.66 -30.56,-10.85 -72.87,-9.35 -90.41,-15.57 -6.5,-5.29 4.11,-18.46 -4.61,-32.56 -14.8,-23.96 -25.12,-56.73 -51.64,-73.94 -51.22,-33.22 -79.09,9.73 -124.29,-34.1 -18.62,-18.06 -15.7,-30.77 -48,-36.18 -43.39,-7.26 -10.7,-21.41 -50.65,-34.67 -11.8,-3.92 -20.93,-10.7 -31.13,-12.18 -16.7,-2.43 -20.93,4.23 -35.91,3.38 -14.93,-0.84 -17.53,-9.13 -30.16,-12.54 -17.38,-4.68 -22.58,1.47 -39.83,0.17 -7.73,-2.77 -63.12,-56.59 -69.51,32.45 -41.71,-9.32 -6.86,-79.19 -47.58,-99.7 -45.3,-22.82 -70.29,30.86 -108.94,-12.54 -39.18,-43.98 0.92,-85.6 -18.73,-121.29 -22.92,-41.64 -72.83,-8.91 -107.61,-35.3 -3.43,-25.22 -1.96,-51.26 6.69,-72.71 9.07,-22.5 32.37,-37.98 21.67,-48.33 -13.24,-7.71 -47.38,-3.96 -62.34,4.16 -18.67,10.13 -12.6,28.38 -22.27,47.69 -15.4,30.78 -82.92,22.39 -107.26,0.01 -22.13,-20.34 -45.55,-52.26 -47.13,-96.26 -1.17,-32.37 4.88,-33.16 16.28,-53.1 20.71,-36.21 17.73,-96.49 115.66,-96.33 59.49,0.11 82.71,-32.63 114.31,-28.57 31.17,4.02 12.01,17.59 56.23,12.42 24.61,-2.87 31.67,11.56 36.58,32.44 7.82,33.28 22.09,88 56.82,80.18 28.77,-56.38 -64.1,-139.97 6.59,-184.69 58.38,-36.94 85.2,-72.32 98.08,-141.47 4.22,-22.64 8.02,-26.82 26.03,-36.54 20.39,-11.01 13.31,-17.57 25.27,-33.54 9.13,-12.19 19.34,-16.74 31.92,-27 25.57,-20.86 33.31,-49.39 54.85,-66.67 27.92,-22.4 60.47,-14.4 87.75,-30.11 14.51,-8.36 26.58,-15.3 46.99,-12.97 -6.97,16.34 -13.42,11.76 -28.96,19.86 -12.83,6.69 -17.98,13.98 -8.28,28.6 17.29,7.64 17.18,1.02 26.53,-10.28 21.51,-26.02 90.93,-20.89 76.9,-40.71 -6.53,-9.21 -25.08,-4.71 -35.63,-6.21 -27.92,-3.96 -28.29,-17.5 -40.48,-36.21 -9.44,-14.48 -8.57,-5.57 -19.04,-17.1 11.02,-9.57 13.38,-2.03 28.02,-13.79 -0.25,-22.66 -9.98,-23.35 -32.46,-21.84 -67.77,4.56 -80.32,43.68 -107.96,51.32 13.35,-46.77 115.82,-87.77 162.86,-85.35 27.31,1.4 39.55,11.66 69.02,2.1 31.36,-10.17 16.93,-18.08 63.22,-22.38 25.56,-2.37 37.74,-15.25 39.39,-42.41 2.96,-48.94 -7.67,-101.81 -68.33,-98 -23.49,1.47 -47.46,16.76 -66.94,-0.93 -14.98,-13.61 -6.09,-30.23 -29.87,-51.24 -13.96,-12.33 -17.94,-43.8 -42.42,-30.06 -17.33,9.72 -10.63,30.23 -48.61,31.46 -28.85,0.93 -41.94,-6.98 -47.48,-32 -6.27,-28.29 -20.56,-24.67 -40.75,-40.62 -16.43,-12.99 -33.54,-19.98 -61.45,-17.17 -52.6,5.3 -77.75,-28.29 -69.41,28.7 9.52,65.12 -19.96,33.38 -13.24,65.97 3.03,14.71 67.97,39.98 5.61,82.66 -65.2,44.62 -12.71,42.98 -31.78,97.22 -14.42,40.98 -52.02,17.79 -58.91,-39.7 -12.02,-100.21 -107.65,-41.65 -185.5,-75.63 -25.97,-11.34 -52.37,-45.57 -42.58,-83.57 5.08,-19.68 16.47,-28.06 24.63,-45.19 9.69,-20.33 12,-24.43 34.24,-31.89 29.43,-9.87 79.3,-16.34 87.4,-42.71 -13.86,-2 -9.08,0.57 -24.02,3.14l19.04 -10.55c20.18,-13.08 16.68,-35.61 48.2,-31.28 22.57,3.1 66.99,-13.26 75.8,-32.44 -12.28,-30.16 -51.55,-40.42 -73.62,-18.76 -10.56,15.82 2.74,19.32 -20.94,27.05 -9.8,3.2 -31.39,6.27 -30.65,-3.21 0.25,-3.23 21.32,-20.56 -3.26,-23.93 -11.31,-1.55 -24.22,9.84 -29.61,13.41 -43.67,-36.17 -40.43,-2.74 -64.59,18.13 -10.96,9.46 -8.61,4.86 -16.95,16.31 -31.04,42.62 -42.45,-4.94 -104.72,20.42 -24.91,10.14 -35.03,7.8 -63.43,10.64 -48.84,4.88 -102.91,52.4 -167.4,43.26zm-558.49 1093.72c8.26,119.24 15.02,212.88 43.7,323.81 70.85,274.02 216.69,520.03 404.6,697.02 119.17,112.25 254.98,214.09 442.16,294.55 755.3,324.65 1623.03,-42.64 1930.79,-769.85 280.25,-662.17 45.99,-1420.23 -534.24,-1801.73 -243.38,-160.02 -543.18,-260.24 -854.72,-247.17 -503.97,21.13 -918.97,258.42 -1185.64,652.91 -45.62,67.49 -93.22,152.37 -128.43,236.17 -73.62,175.22 -131.66,419.99 -118.22,614.29z"/>
      <path class="fil0" d="M1570.22 722.89c1.61,9.52 5.93,12.65 3.4,18.9 -17.39,6.81 -8.93,-0.58 -10.52,-1.71l-8.69 -9.15c-10.84,-13.57 -4.66,-11.74 -5.69,-30.67 -22.77,2.55 -69.24,21.84 -60.54,44.4 5.81,7.4 28.73,1.46 39.02,6.71 -17.64,9.79 -25.71,-7.49 -33.76,11.82 12.08,9.15 14.11,2.08 43.22,0.97 29.59,-1.14 77.2,4.11 101.29,-9.58 20.89,-11.87 21.99,0.56 38.36,-16.81 20.49,9.32 46.6,15.81 67.89,27.95 41.72,23.77 39.89,10.92 60.53,33.99 -5.22,17.91 -17.81,19.1 -36.24,28.55 3.18,21.33 6.83,7.58 9.23,21.62 -58.51,15.24 -88.85,0.1 -92.59,26.87 34.27,18.93 50.32,-9.16 75.72,-8.97 10.92,0.08 26.38,7.11 34.91,11.94 18.94,10.74 15.94,8.79 23.69,27.36 44.43,4.65 18.6,-5.29 48.39,15.83 31.87,0.1 45.62,12.53 61.13,12 4.67,-23.81 -33.65,-29.33 -54.2,-37.7 3.19,-3.03 -3.94,-12.21 36.11,-0.12 13.42,4.06 24.15,6.98 37.99,10.7 3.19,-3.71 5.55,-0.81 5.01,-17.33 10.94,15.39 -1.23,5.61 13.31,9.98 -0.82,-19.97 -17.73,-28.9 -38.11,-36.46 -14.08,-5.22 -39.44,-16.22 -39.73,-34.28 5.18,-2.39 -1.16,-3.32 12.91,3.64 0.67,0.33 1.85,1.28 2.9,1.64l1.65 -15.44c10.87,3.03 30.97,9.13 38.23,14.41 2.96,2.15 9.18,12.26 32.75,19.96 1.65,-1.6 3.49,-8.2 10.11,-11.88 0.72,-0.4 1.74,-0.79 2.53,-1.12 0.84,-0.35 1.92,-0.54 2.8,-0.82 7.73,-2.52 24.47,-0.97 26.28,-25.12l-132.74 -37.36c0.11,-27.87 12.94,-24.04 16.93,-36.31 -14.8,-7.35 -13.95,-2.08 -27.92,-1.67 -21.83,0.63 -4.86,6.9 -14.58,-12.44 -34.24,5.52 -32.36,-4.58 -45.2,-11.4 -8.95,-4.75 -42.45,2.43 -60.4,0.4 12.26,-20.37 8.59,4.66 9.25,-18.65 -38.3,-12.47 -51.39,7.69 -73.81,18.78 -13.98,-4.35 -8.69,-7.49 -21.58,-7.05 -7.21,0.25 -13.22,4.34 -22.41,5.79 -3.61,-43.1 -4.07,-24.14 -33.46,-22.05 -33.5,2.37 -24.34,5.52 -43.37,29.88z"/>
      <path class="fil0" d="M2912.46 1034.46c-5.29,9.79 -3.82,25.01 -3.25,35.97 32.74,15.52 6.71,18.56 35.1,38.42 5.1,3.57 4.37,2.49 8.39,6.12 7.54,6.81 9.21,9.03 12.11,16.75 -8.19,17.23 -9.92,3.43 -11.15,29.41 -2.16,45.28 32.35,37.43 46.47,39.6 22.95,3.53 22.34,10.93 30.11,3.17 11.46,-13.66 -13.1,-37.69 -17.85,-45.37 -13.77,-22.23 -12.94,-28.23 -29.84,-47.59 -6.99,-8.02 -12,-11.59 -18.31,-18.49 -11.19,-12.22 -6.43,-12.83 -12.96,-24.31 -10.83,-19.04 -11.59,-2 -19.86,-16.27 -7.33,-12.64 4.09,-24.27 -18.96,-17.41z"/>
      <path class="fil0" d="M1490.63 1980.47c14.59,3.09 29.44,-12.58 42.03,-17.97l64.19 22.3c19.73,5.76 15.51,-1.48 29.64,10.7 12.91,11.13 11.53,9.77 28.74,15.73 -1.63,21.57 -3.23,2.66 -4.54,22.54 15.86,-1.69 13.23,-5.74 36.48,-5.87 13.26,-0.07 30.31,2.64 39.75,-4.84 -4.18,-14.75 -7.73,-7.63 -25.84,-13.38 -15.78,-5 -11.61,-7.23 -30.86,-14.28 -19.33,-7.08 -10.65,-10.33 -26.6,-17.45 -19.71,-8.81 -76.42,-28.63 -99.86,-28.61 -23.74,0.02 -54.55,8.99 -53.13,31.13z"/>
      <path class="fil0" d="M1747.68 2031.07c7.87,20.83 13.9,-4.63 18.23,25.14 -4.41,2.83 -1.9,2.34 -9.1,3.7l-21.27 0.42c-9.06,0.79 -5.19,-1.39 -11.23,3.24 7.6,14.59 38.97,7.91 55.13,8.04 6.74,13.05 -2.31,6.57 11.05,15.8 27.27,-7.92 -4.6,-11.39 31.98,-17.51 26.66,-4.46 19.41,-2.48 42.84,2.43 -4.36,-20.57 -3.63,-15.79 -19,-24.12 -13.43,-7.28 -11.78,-11.42 -24.56,-15.19 -11.59,-3.41 -71.42,-4.81 -74.07,-1.95z"/>
      <path class="fil0" d="M2861.58 1094.89c3.45,12.11 7.44,15.27 10.33,23.83 5.36,15.92 -0.25,17.04 5.12,30.55 10.71,6.85 37.36,3.22 48.64,-1.45 3.78,-17.62 -2.52,-20.16 -13.95,-58.11l-23.91 -6.58c-9.42,5.38 -2.68,6.4 -12.23,10.58 -16.99,7.44 4.49,-5.87 -14,1.18z"/>
     </g>
    </g>
    <path class="fil1 str0" d="M2338.92 19.25c-17.5,5.94 -29.69,12.81 -40.32,22.82 -8.75,8.44 -10.94,8.75 -39.07,9.06 -35.01,0 -52.2,6.57 -73.14,27.51 -19.7,19.69 -28.76,42.82 -28.76,72.52 0.31,31.25 8.12,50.63 29.07,71.26 29.07,28.76 70.64,37.82 106.27,23.13l19.38 -7.81 0 19.38c0,26.57 -7.81,94.08 -17.5,151.91 -7.82,46.57 -24.7,127.84 -27.51,130.34 -0.62,0.63 -20,-2.18 -42.82,-6.56 -66.89,-12.81 -144.41,-21.25 -221.62,-24.69l-17.19 -0.63 -2.81 -46.88c-3.13,-55.64 1.87,-194.43 9.06,-240.06 7.82,-50.95 17.82,-78.77 34.39,-95.96 23.75,-24.38 19.38,-60.02 -10.32,-88.46 -7.19,-6.88 -11.57,-8.75 -19.69,-7.82 -8.75,0.94 -11.88,3.44 -20.63,18.76 -10.94,18.75 -20.01,24.38 -27.82,17.81 -2.81,-2.18 -9.69,-11.56 -15.63,-20.62 -8.75,-13.76 -12.19,-16.57 -19.69,-16.57 -12.5,0 -26.88,12.81 -36.89,32.19 -6.56,13.44 -7.81,18.76 -6.25,34.08 1.25,15.94 3.44,20.31 14.07,31.88 19.38,20.94 30.94,58.45 38.13,122.21 4.38,41.89 7.82,192.55 5,230.06l-2.5 30.01 -47.51 2.19c-187.54,7.81 -381.65,57.82 -560.45,144.09l-53.76 25.95 -13.44 -14.38c-31.57,-34.07 -92.84,-129.41 -144.1,-224.12 -57.51,-106.59 -79.39,-173.48 -67.52,-207.24 8.13,-23.75 -14.69,-57.2 -47.19,-67.83 -13.13,-4.37 -17.51,-4.68 -25.01,-1.56 -10,4.06 -12.5,10.32 -12.5,34.7 0,27.19 -9.38,31.25 -35.95,15.31 -18.75,-11.25 -23.44,-11.56 -32.19,-2.18 -8.76,9.37 -12.82,31.88 -9.69,52.51 3.44,20.63 19.06,38.13 38.76,43.13 29.38,7.51 65.32,44.7 115.65,120.66 41.88,62.83 83.46,134.72 115.34,199.73 20.63,41.26 41.57,94.4 38.76,97.22 -0.63,0.62 -14.38,9.69 -30.63,20.31 -61.58,40.33 -125.35,90.34 -184.11,143.48l-32.51 29.69 -20.94 -22.19c-29.38,-30.63 -71.89,-82.52 -71.89,-87.52 0,-2.5 3.43,-4.07 8.75,-4.07 13.13,0 39.38,-13.75 53.76,-28.13 39.39,-39.38 39.7,-104.09 0.31,-143.47 -38.75,-38.76 -102.52,-40.01 -141.91,-2.81 -10.62,10 -11.56,10.31 -38.44,10.31 -24.38,0 -30.01,1.25 -44.39,8.75 -20.94,10.94 -38.13,28.13 -47.82,47.83 -6.25,12.81 -7.5,20 -7.5,43.13 0,27.2 -0.32,27.82 -10.63,39.07 -42.2,44.7 -34.07,118.47 16.57,152.85 20.94,14.07 45.32,20.63 66.89,18.13 44.38,-5.31 79.08,-35.32 89.08,-76.58 1.88,-8.75 4.69,-15.94 5.94,-15.94 3.44,0 59.7,46.26 86.58,71.27l23.45 21.56 -31.89 35.01c-61.89,68.15 -121.59,147.85 -167.85,224.43l-27.19 44.7 -36.26 -19.07c-122.53,-65.01 -228.5,-135.03 -264.44,-175.04 -15.94,-17.5 -26.88,-36.57 -26.88,-45.95 0,-5.94 -18.76,-25.63 -30.32,-31.57 -10.63,-5.31 -44.7,-4.37 -57.2,2.19 -14.38,6.88 -15.95,18.13 -5.01,38.13 8.76,15.95 10.32,29.39 4.38,33.14 -1.87,1.25 -13.44,2.81 -25.63,3.12 -25.01,1.25 -30.01,5 -30.01,22.2 0,12.81 11.88,37.19 24.07,48.45 12.5,11.87 32.2,16.87 47.51,12.5 16.88,-5.32 26.57,-4.69 56.89,2.81 46.89,11.88 114.72,43.76 209.74,98.78 50.95,29.38 102.52,62.51 102.52,65.95 0,1.56 -7.5,18.75 -16.87,38.45 -9.07,19.69 -23.76,53.13 -32.51,74.7 -16.57,40.95 -47.51,131.91 -47.51,139.72 0,2.19 -2.19,5 -4.69,5.94 -7.82,3.13 -142.23,-41.88 -142.23,-47.51 0,-0.94 5.01,-5.62 10.94,-10.94 5.94,-5.31 15.32,-19.07 20.95,-30.32 20,-40.32 11.88,-85.96 -20.95,-117.53 -36.88,-35.94 -97.83,-37.19 -136.28,-2.5 -15.31,13.76 -34.07,45.01 -34.07,56.89 0,2.5 -6.56,7.19 -15,10.63 -21.57,9.06 -48.14,36.88 -55.64,58.14 -11.57,33.76 -5.63,70.64 15.94,98.77 6.56,8.76 7.19,11.26 4.38,21.88 -1.88,6.57 -2.82,21.88 -2.19,33.76 4.69,89.71 117.53,127.85 177.23,59.7 21.57,-24.69 30.32,-63.76 20.94,-93.77 -2.5,-8.44 -4.06,-15.94 -3.12,-16.88 3.75,-3.75 139.72,21.88 145.66,27.51 1.56,1.25 -1.57,20.94 -6.88,44.07 -11.25,51.58 -23.76,137.22 -28.13,193.49 -6.57,86.58 -3.44,215.67 7.5,298.82 2.19,17.19 3.75,31.57 3.44,32.2 -1.88,2.18 -68.77,13.12 -117.22,19.06 -85.33,10.32 -136.59,13.75 -195.67,11.88 -63.45,-1.56 -86.58,-6.25 -105.34,-21.26 -15.94,-12.81 -39.38,-15.62 -57.2,-6.56 -15,7.82 -35.32,27.51 -37.51,36.89 -3.12,12.81 1.57,19.06 20.01,27.19 10,4.06 20,10 22.19,12.82 6.25,7.5 0.63,17.81 -16.88,30.31 -7.81,5.63 -15,13.76 -16.25,17.82 -3.44,14.07 18.75,33.45 47.51,41.57 18.13,5 41.88,-2.81 53.14,-17.81 20.63,-27.2 75.95,-47.2 176.6,-63.46 72.52,-11.56 162.23,-20.94 216.93,-22.5l21.57 -0.63 5.94 27.82c18.44,89.09 57.2,206.3 97.83,294.45 8.13,17.82 14.07,32.82 13.44,33.44 -3.44,3.76 -69.39,39.39 -105.96,58.14 -40.95,20.32 -100.65,46.58 -106.28,46.58 -1.56,0 -2.81,-10.32 -2.81,-22.82 0,-56.58 -45.32,-100.65 -103.15,-100.34 -38.13,0 -70.64,21.26 -88.15,56.89 -8.75,17.82 -10.31,24.07 -10.31,44.39 0,18.75 1.56,26.88 8.44,41.57l8.44 17.82 -5.63 13.44c-26.25,60.95 11.88,130.97 77.21,141.59 10.94,1.57 14.06,4.07 20.63,15.32 10,16.88 30,35.01 48.45,43.45 21.56,9.69 61.89,9.06 83.14,-1.25 22.82,-11.26 43.14,-32.82 51.58,-55.02 9.06,-24.07 7.81,-61.26 -2.82,-81.89 -9.69,-18.76 -25.94,-35.95 -41.88,-44.39l-13.75 -7.5 8.12 -6.56c27.82,-23.76 184.11,-114.09 196.61,-114.09 1.57,0 12.51,17.19 24.38,38.13 53.14,94.09 119.09,184.11 199.43,272.57l25.32 27.82 -25.01 23.44c-29.38,27.51 -76.89,67.83 -85.65,72.52 -5.62,2.81 -6.56,1.87 -8.44,-8.44 -5.31,-29.39 -28.75,-59.39 -56.88,-73.15 -20.63,-10.31 -64.08,-10.62 -85.96,-0.62 -20.95,9.69 -44.08,34.38 -52.2,56.26 -13.13,35.01 -5.32,77.52 19.69,104.72 10,10.94 10.31,12.19 10.31,37.5 -0.31,31.26 8.76,53.77 29.39,74.4 20.63,20.63 43.13,29.69 74.39,29.38 25.32,0 26.57,0.31 37.2,10.31 20.31,18.45 36.57,24.39 68.14,24.39 23.75,0 30.63,-1.25 43.76,-7.51 19.69,-10 38.76,-29.07 48.76,-48.76 10.63,-22.19 10.94,-65.01 0,-86.58 -13.75,-28.45 -43.76,-51.58 -73.14,-56.89l-11.88 -2.19 5.94 -9.69c7.19,-11.25 67.2,-80.64 83.14,-95.96l10.94 -10.63 13.76 12.19c88.77,77.84 138.16,116.6 198.48,155.98 29.7,19.38 31.88,21.26 30.01,29.07 -8.13,33.44 -60.64,139.1 -110.34,221.93 -72.83,121.59 -120.65,177.85 -159.41,188.17 -12.82,3.44 -23.76,12.19 -33.76,26.88 -5.32,8.13 -5.94,45.64 -1.25,58.14 1.56,4.69 6.87,10.63 10.94,13.75 7.81,4.69 8.75,4.69 26.57,-4.69 30.63,-15.94 37.82,-12.81 37.82,16.88 0,25.01 5.31,32.82 22.19,32.82 14.07,0 34.38,-9.06 47.2,-21.25 12.82,-11.88 19.69,-35.01 14.69,-49.7 -9.69,-30.01 6.25,-84.4 51.89,-174.42 52.2,-103.77 114.4,-202.86 163.79,-261l9.06 -10.63 55.95 26.88c106.59,51.89 217.56,90.34 325.71,113.16 19.38,4.06 35.94,8.44 36.88,9.37 5.32,5.32 -11.56,116.28 -30.63,201.93 -34.7,156.29 -72.21,248.18 -109.71,267.56 -10.32,5.32 -20.95,25.64 -21.26,40.64 0,26.57 19.07,60.64 34.38,60.64 4.07,0 12.82,-6.25 21.88,-15.63 21.88,-22.82 30.64,-21.26 40.64,7.5 3.44,10.32 7.81,20.32 9.69,22.51 9.38,11.25 36.26,-1.57 54.7,-25.32 12.82,-16.88 14.38,-42.82 3.44,-59.7 -15.01,-23.13 -18.44,-66.89 -10,-131.6 17.5,-135.03 80.02,-361.02 98.14,-356.02 34.39,9.69 247.56,13.44 322.27,5.62 49.39,-5 145.04,-20.63 187.23,-30.63 17.82,-4.06 33.14,-6.87 33.76,-6.25 5,5 29.07,121.28 29.07,140.03 0,6.88 -1.25,9.07 -4.38,7.82 -53.13,-20.32 -111.27,2.81 -133.78,53.45 -10.31,22.82 -9.69,59.39 0.94,82.21 16.88,35.63 47.51,56.57 85.96,58.45 11.88,0.62 27.5,-0.32 34.07,-2.19 10.63,-2.81 13.13,-2.5 18.75,2.5 10.32,9.69 29.7,18.76 47.83,22.51 20.32,4.06 43.76,0.31 65.33,-10.32 17.81,-9.06 39.38,-32.82 46.57,-50.95 3.13,-8.75 7.19,-14.07 10.32,-14.07 10,0 42.82,-18.12 54.07,-30 36.89,-38.76 37.2,-102.84 0.63,-140.35 -20.63,-21.25 -44.08,-31.26 -73.15,-31.26 -20.31,0 -26.56,1.57 -44.38,10.32 -11.25,5.62 -25.01,15 -30.32,20.94 -5.31,5.94 -10.32,10.94 -10.94,10.94 -4.06,0 -26.26,-60.33 -43.45,-117.84l-7.81 -25.94 26.88 -8.13c68.77,-20.94 145.35,-51.58 215.99,-86.58l45.01 -22.2 14.38 16.57c65.95,76.27 181.29,280.07 205.05,361.34 8.12,28.13 10,57.82 4.69,71.58 -3.13,8.75 3.44,33.75 12.19,43.76 9.69,11.25 35.63,23.75 49.38,23.75 18.13,0 22.82,-5.62 22.82,-28.44 0,-33.45 9.07,-38.14 39.07,-21.26 11.26,6.25 19.07,8.76 23.45,7.51 14.06,-4.38 22.5,-38.76 15.63,-64.08 -4.38,-16.88 -23.76,-37.51 -35.01,-37.51 -16.88,0 -54.08,-31.26 -84.71,-70.96 -61.89,-80.33 -165.04,-266 -184.73,-331.95l-4.38 -15.32 36.26 -24.38c64.39,-42.51 122.84,-88.46 180.98,-141.28 15.94,-14.38 30.01,-25.64 31.57,-25.01 4.38,1.88 54.08,56.58 74.71,82.21l19.69 24.69 -20.32 6.56c-25.94,8.44 -43.45,20.95 -56.58,40.01 -35.94,52.52 -15.31,124.1 43.45,150.67 15.94,7.5 21.26,8.44 43.76,7.19 28.76,-1.25 46.58,-8.13 64.71,-25.01 10.31,-10 11.56,-10.32 37.51,-10.32 31.57,-0.31 54.38,-9.06 74.08,-28.75 20.31,-20.32 27.5,-38.45 27.81,-71.58 0.63,-27.2 0.94,-28.45 10.63,-39.07 5.63,-5.94 13.75,-18.45 18.44,-27.82 10.94,-22.82 11.57,-59.71 1.25,-81.9 -9.69,-21.25 -32.5,-44.38 -51.88,-52.51 -19.38,-8.44 -49.08,-11.25 -66.27,-6.57 -35.32,9.38 -66.27,40.64 -74.08,74.4 -2.19,9.06 -4.69,16.56 -5.63,16.56 -3.75,0 -46.88,-35.94 -77.2,-64.39l-32.2 -29.69 30.32 -33.45c139.72,-154.41 247.25,-339.14 309.45,-532.63 8.44,-25.63 16.26,-46.26 17.51,-46.26 8.12,0 129.4,58.77 176.91,85.65 30.32,17.5 57.21,34.07 71.58,45.01l10.32 7.81 -9.38 4.38c-17.81,8.75 -34.38,25.94 -44.38,46.57 -24.7,50.01 -4.07,108.47 47.82,136.29 11.25,5.94 18.13,7.19 43.14,7.19 25.94,0 31.57,-0.94 45.32,-8.44 18.13,-9.38 40.63,-32.2 47.2,-48.14 3.75,-9.07 5.94,-10.63 15,-10.63 15.01,0 46.89,-17.19 59.7,-31.88 19.38,-22.82 25.01,-38.14 25.01,-68.14 0,-20.95 -1.56,-29.7 -7.19,-41.89l-6.88 -15.31 6.88 -14.07c10,-21.26 11.25,-56.26 2.5,-79.39 -8.13,-22.2 -30.63,-46.58 -51.57,-56.27 -12.51,-5.94 -20.95,-7.19 -43.76,-7.19 -24.7,0 -30.32,1.25 -44.39,8.75 -36.57,19.07 -55.64,50.02 -55.64,90.34 0,17.5 -1.25,24.38 -4.06,24.38 -22.19,0 -236.31,-104.4 -266.63,-130.34 -4.69,-3.75 -4.69,-6.26 0.63,-28.45 26.57,-110.02 39.69,-259.75 34.07,-386.34 -1.88,-36.26 -3.75,-69.71 -5,-74.71 -1.57,-7.81 -0.63,-9.06 15.94,-16.56 58.76,-25.95 240.06,-63.77 352.27,-73.46 33.14,-3.13 49.7,-3.13 72.83,-0.31 27.82,3.44 51.58,11.56 56.27,19.38 0.93,1.56 10.62,3.12 21.56,3.12 16.57,0 21.88,-1.56 33.45,-9.06 16.25,-10.94 27.19,-24.69 29.69,-37.82 2.51,-12.51 -1.87,-17.2 -23.13,-25.01 -16.56,-6.25 -25.63,-13.13 -25.63,-19.69 0,-1.56 7.82,-10.94 17.51,-20.94 14.69,-15.63 17.19,-19.7 15.63,-26.57 -2.82,-10.94 -24.07,-25.63 -44.08,-30.01 -22.82,-5 -45.95,2.81 -56.57,19.69 -18.13,28.45 -69.71,51.89 -167.54,75.64 -105.03,25.64 -253.5,48.14 -296.01,45.02l-13.76 -0.94 -10 -50.01c-17.82,-88.15 -43.14,-174.11 -75.33,-254.44 -19.38,-48.14 -21.57,-40.95 20.32,-66.27 73.45,-44.07 227.55,-110.96 314.14,-136.28 48.13,-13.75 95.02,-17.5 114.4,-8.75 27.19,12.19 59.7,-5.32 75.33,-40.95 6.56,-14.69 5.31,-27.82 -3.13,-32.19 -2.81,-1.57 -12.81,-3.76 -22.5,-4.69 -29.7,-3.75 -34.07,-14.38 -15.32,-37.83 5,-6.25 10,-14.06 10.94,-17.19 5,-15.94 -19.06,-30.94 -49.7,-31.25 -26.25,0 -43.45,10.31 -53.14,32.19 -7.81,18.13 -33.13,43.14 -62.82,63.14 -55.95,36.88 -217.56,109.71 -309.14,138.78 -35.01,11.26 -70.64,19.38 -74.39,17.2 -1.57,-0.94 -6.88,-10.01 -12.19,-20.63 -16.26,-32.2 -49.39,-86.59 -82.21,-135.04 -17.51,-25.32 -32.82,-48.45 -34.7,-50.95 -2.5,-3.44 0.32,-7.81 12.51,-18.75 50.32,-45.01 148.16,-118.47 200.67,-150.35l27.51 -16.57 2.18 18.13c4.69,35.64 28.76,68.46 61.27,83.15 22.19,10 59.07,9.37 81.89,-1.25 35.32,-16.57 56.27,-47.2 58.77,-85.34 1.56,-27.5 -2.5,-43.44 -16.57,-64.7 -10.31,-15 -10.94,-16.88 -7.5,-27.19 5.31,-16.57 2.19,-55.64 -6.25,-71.9 -17.2,-33.44 -46.89,-53.13 -83.77,-55.95 -20.63,-1.56 -21.57,-2.18 -34.7,-16.88 -7.5,-8.44 -20.94,-18.75 -31.26,-23.75 -15.31,-7.5 -21.56,-8.75 -44.38,-8.75 -22.82,0 -29.07,1.25 -44.39,8.75 -43.13,21.25 -65.95,69.39 -54.39,114.09 8.76,34.07 32.2,61.26 61.89,71.89 8.44,2.81 15.01,6.25 15.01,7.19 0,3.13 -42.83,43.14 -74.39,69.39 -57.21,47.51 -157.23,119.72 -162.86,117.22 -1.25,-0.63 -17.19,-17.82 -35.32,-38.45 -87.52,-99.4 -198.48,-195.98 -301.95,-262.56 -24.06,-15.63 -28.44,-19.38 -26.88,-25.01 23.45,-79.39 132.85,-273.5 201.3,-356.96 20.63,-25.01 50.33,-50.32 62.52,-52.82 16.56,-3.44 27.19,-10.32 35.94,-23.14 8.44,-11.87 9.38,-16.25 9.38,-35.63 -0.31,-25.32 -6.88,-41.26 -18.44,-44.38 -5,-1.25 -12.82,1.25 -24.38,7.81 -29.07,16.57 -36.89,11.88 -36.89,-20.63 0,-23.76 -4.69,-30.63 -20.94,-30.32 -13.75,0.31 -35.95,10.63 -48.76,22.51 -11.57,10.94 -18.76,34.69 -14.07,47.82 5,14.69 1.25,50.95 -8.75,80.96 -27.82,83.77 -142.22,281 -206.61,356.02l-9.07 10.32 -40.32 -20.32c-79.39,-39.7 -163.79,-72.83 -241.93,-95.02l-41.58 -11.57 1.88 -26.88c5,-64.7 27.51,-191.92 44.07,-248.5 4.38,-15.32 8.76,-28.44 9.07,-29.07 0.62,-0.31 5.63,3.75 11.56,9.07 18.13,17.19 41.58,25.94 68.46,25.94 40.63,0 73.14,-20.32 90.96,-56.26 19.38,-39.39 11.88,-86.59 -19.07,-116.28 -15,-14.69 -34.38,-25.01 -53.45,-28.13 -11.57,-1.88 -14.69,-4.07 -20.63,-14.69 -10.31,-18.76 -29.07,-36.26 -47.51,-44.7 -20.32,-9.38 -52.2,-11.88 -70.64,-5.94l-0.01 0z"/>
   </g>
  </g>
 </g>
</svg>
