<?xml version="1.0" encoding="UTF-8"?>
<!DOCTYPE svg PUBLIC "-//W3C//DTD SVG 1.1//EN" "http://www.w3.org/Graphics/SVG/1.1/DTD/svg11.dtd">
<!-- Creator: CorelDRAW -->
<svg xmlns="http://www.w3.org/2000/svg" xml:space="preserve" width="40mm" height="40mm" version="1.1" style="shape-rendering:geometricPrecision; text-rendering:geometricPrecision; image-rendering:optimizeQuality; fill-rule:evenodd; clip-rule:evenodd"
viewBox="0 0 4000 4000"
 xmlns:xlink="http://www.w3.org/1999/xlink"
 xmlns:xodm="http://www.corel.com/coreldraw/odm/2003">
 <defs>
  <style type="text/css">
   <![CDATA[
    .fil2 {fill:none;fill-rule:nonzero}
    .fil1 {fill:white}
    .fil0 {fill:#E31F25;fill-rule:nonzero}
   ]]>
  </style>
     <clipPath id="id0" style="clip-rule:nonzero">
      <path d="M2338.92 39.75c-17.5,5.94 -29.69,12.81 -40.32,22.82 -8.75,8.44 -10.94,8.75 -39.07,9.06 -35.01,0 -52.2,6.57 -73.14,27.51 -19.7,19.69 -28.76,42.82 -28.76,72.52 0.31,31.25 8.12,50.63 29.07,71.26 29.07,28.76 70.64,37.82 106.27,23.13l19.38 -7.81 0 19.38c0,26.57 -7.81,94.08 -17.5,151.91 -7.82,46.57 -24.7,127.84 -27.51,130.34 -0.62,0.63 -20,-2.18 -42.82,-6.56 -66.89,-12.81 -144.41,-21.25 -221.62,-24.69l-17.19 -0.63 -2.81 -46.88c-3.13,-55.64 1.87,-194.43 9.06,-240.06 7.82,-50.95 17.82,-78.77 34.39,-95.96 23.75,-24.38 19.38,-60.02 -10.32,-88.46 -7.19,-6.88 -11.57,-8.75 -19.69,-7.82 -8.75,0.94 -11.88,3.44 -20.63,18.76 -10.94,18.75 -20.01,24.38 -27.82,17.81 -2.81,-2.18 -9.69,-11.56 -15.63,-20.62 -8.75,-13.76 -12.19,-16.57 -19.69,-16.57 -12.5,0 -26.88,12.81 -36.89,32.19 -6.56,13.44 -7.81,18.76 -6.25,34.08 1.25,15.94 3.44,20.31 14.07,31.88 19.38,20.94 30.94,58.45 38.13,122.21 4.38,41.89 7.82,192.55 5,230.06l-2.5 30.01 -47.51 2.19c-187.54,7.81 -381.65,57.82 -560.45,144.09l-53.76 25.95 -13.44 -14.38c-31.57,-34.07 -92.84,-129.41 -144.1,-224.12 -57.51,-106.59 -79.39,-173.48 -67.52,-207.24 8.13,-23.75 -14.69,-57.2 -47.19,-67.83 -13.13,-4.37 -17.51,-4.68 -25.01,-1.56 -10,4.06 -12.5,10.32 -12.5,34.7 0,27.19 -9.38,31.25 -35.95,15.31 -18.75,-11.25 -23.44,-11.56 -32.19,-2.18 -8.76,9.37 -12.82,31.88 -9.69,52.51 3.44,20.63 19.06,38.13 38.76,43.13 29.38,7.51 65.32,44.7 115.65,120.66 41.88,62.83 83.46,134.72 115.34,199.73 20.63,41.26 41.57,94.4 38.76,97.22 -0.63,0.62 -14.38,9.69 -30.63,20.31 -61.58,40.33 -125.35,90.34 -184.11,143.48l-32.51 29.69 -20.94 -22.19c-29.38,-30.63 -71.89,-82.52 -71.89,-87.52 0,-2.5 3.43,-4.07 8.75,-4.07 13.13,0 39.38,-13.75 53.76,-28.13 39.39,-39.38 39.7,-104.09 0.31,-143.47 -38.75,-38.76 -102.52,-40.01 -141.91,-2.81 -10.62,10 -11.56,10.31 -38.44,10.31 -24.38,0 -30.01,1.25 -44.39,8.75 -20.94,10.94 -38.13,28.13 -47.82,47.83 -6.25,12.81 -7.5,20 -7.5,43.13 0,27.2 -0.32,27.82 -10.63,39.07 -42.2,44.7 -34.07,118.47 16.57,152.85 20.94,14.07 45.32,20.63 66.89,18.13 44.38,-5.31 79.08,-35.32 89.08,-76.58 1.88,-8.75 4.69,-15.94 5.94,-15.94 3.44,0 59.7,46.26 86.58,71.27l23.45 21.56 -31.89 35.01c-61.89,68.15 -121.59,147.85 -167.85,224.43l-27.19 44.7 -36.26 -19.07c-122.53,-65.01 -228.5,-135.03 -264.44,-175.04 -15.94,-17.5 -26.88,-36.57 -26.88,-45.95 0,-5.94 -18.76,-25.63 -30.32,-31.57 -10.63,-5.31 -44.7,-4.37 -57.2,2.19 -14.38,6.88 -15.95,18.13 -5.01,38.13 8.76,15.95 10.32,29.39 4.38,33.14 -1.87,1.25 -13.44,2.81 -25.63,3.12 -25.01,1.25 -30.01,5 -30.01,22.2 0,12.81 11.88,37.19 24.07,48.45 12.5,11.87 32.2,16.87 47.51,12.5 16.88,-5.32 26.57,-4.69 56.89,2.81 46.89,11.88 114.72,43.76 209.74,98.78 50.95,29.38 102.52,62.51 102.52,65.95 0,1.56 -7.5,18.75 -16.87,38.45 -9.07,19.69 -23.76,53.13 -32.51,74.7 -16.57,40.95 -47.51,131.91 -47.51,139.72 0,2.19 -2.19,5 -4.69,5.94 -7.82,3.13 -142.23,-41.88 -142.23,-47.51 0,-0.94 5.01,-5.62 10.94,-10.94 5.94,-5.31 15.32,-19.07 20.95,-30.32 20,-40.32 11.88,-85.96 -20.95,-117.53 -36.88,-35.94 -97.83,-37.19 -136.28,-2.5 -15.31,13.76 -34.07,45.01 -34.07,56.89 0,2.5 -6.56,7.19 -15,10.63 -21.57,9.06 -48.14,36.88 -55.64,58.14 -11.57,33.76 -5.63,70.64 15.94,98.77 6.56,8.76 7.19,11.26 4.38,21.88 -1.88,6.57 -2.82,21.88 -2.19,33.76 4.69,89.71 117.53,127.85 177.23,59.7 21.57,-24.69 30.32,-63.76 20.94,-93.77 -2.5,-8.44 -4.06,-15.94 -3.12,-16.88 3.75,-3.75 139.72,21.88 145.66,27.51 1.56,1.25 -1.57,20.94 -6.88,44.07 -11.25,51.58 -23.76,137.22 -28.13,193.49 -6.57,86.58 -3.44,215.67 7.5,298.82 2.19,17.19 3.75,31.57 3.44,32.2 -1.88,2.18 -68.77,13.12 -117.22,19.06 -85.33,10.32 -136.59,13.75 -195.67,11.88 -63.45,-1.56 -86.58,-6.25 -105.34,-21.26 -15.94,-12.81 -39.38,-15.62 -57.2,-6.56 -15,7.82 -35.32,27.51 -37.51,36.89 -3.12,12.81 1.57,19.06 20.01,27.19 10,4.06 20,10 22.19,12.82 6.25,7.5 0.63,17.81 -16.88,30.31 -7.81,5.63 -15,13.76 -16.25,17.82 -3.44,14.07 18.75,33.45 47.51,41.57 18.13,5 41.88,-2.81 53.14,-17.81 20.63,-27.2 75.95,-47.2 176.6,-63.46 72.52,-11.56 162.23,-20.94 216.93,-22.5l21.57 -0.63 5.94 27.82c18.44,89.09 57.2,206.3 97.83,294.45 8.13,17.82 14.07,32.82 13.44,33.44 -3.44,3.76 -69.39,39.39 -105.96,58.14 -40.95,20.32 -100.65,46.58 -106.28,46.58 -1.56,0 -2.81,-10.32 -2.81,-22.82 0,-56.58 -45.32,-100.65 -103.15,-100.34 -38.13,0 -70.64,21.26 -88.15,56.89 -8.75,17.82 -10.31,24.07 -10.31,44.39 0,18.75 1.56,26.88 8.44,41.57l8.44 17.82 -5.63 13.44c-26.25,60.95 11.88,130.97 77.21,141.59 10.94,1.57 14.06,4.07 20.63,15.32 10,16.88 30,35.01 48.45,43.45 21.56,9.69 61.89,9.06 83.14,-1.25 22.82,-11.26 43.14,-32.82 51.58,-55.02 9.06,-24.07 7.81,-61.26 -2.82,-81.89 -9.69,-18.76 -25.94,-35.95 -41.88,-44.39l-13.75 -7.5 8.12 -6.56c27.82,-23.76 184.11,-114.09 196.61,-114.09 1.57,0 12.51,17.19 24.38,38.13 53.14,94.09 119.09,184.11 199.43,272.57l25.32 27.82 -25.01 23.44c-29.38,27.51 -76.89,67.83 -85.65,72.52 -5.62,2.81 -6.56,1.87 -8.44,-8.44 -5.31,-29.39 -28.75,-59.39 -56.88,-73.15 -20.63,-10.31 -64.08,-10.62 -85.96,-0.62 -20.95,9.69 -44.08,34.38 -52.2,56.26 -13.13,35.01 -5.32,77.52 19.69,104.72 10,10.94 10.31,12.19 10.31,37.5 -0.31,31.26 8.76,53.77 29.39,74.4 20.63,20.63 43.13,29.69 74.39,29.38 25.32,0 26.57,0.31 37.2,10.31 20.31,18.45 36.57,24.39 68.14,24.39 23.75,0 30.63,-1.25 43.76,-7.51 19.69,-10 38.76,-29.07 48.76,-48.76 10.63,-22.19 10.94,-65.01 0,-86.58 -13.75,-28.45 -43.76,-51.58 -73.14,-56.89l-11.88 -2.19 5.94 -9.69c7.19,-11.25 67.2,-80.64 83.14,-95.96l10.94 -10.63 13.76 12.19c88.77,77.84 138.16,116.6 198.48,155.98 29.7,19.38 31.88,21.26 30.01,29.07 -8.13,33.44 -60.64,139.1 -110.34,221.93 -72.83,121.59 -120.65,177.85 -159.41,188.17 -12.82,3.44 -23.76,12.19 -33.76,26.88 -5.32,8.13 -5.94,45.64 -1.25,58.14 1.56,4.69 6.87,10.63 10.94,13.75 7.81,4.69 8.75,4.69 26.57,-4.69 30.63,-15.94 37.82,-12.81 37.82,16.88 0,25.01 5.31,32.82 22.19,32.82 14.07,0 34.38,-9.06 47.2,-21.25 12.82,-11.88 19.69,-35.01 14.69,-49.7 -9.69,-30.01 6.25,-84.4 51.89,-174.42 52.2,-103.77 114.4,-202.86 163.79,-261l9.06 -10.63 55.95 26.88c106.59,51.89 217.56,90.34 325.71,113.16 19.38,4.06 35.94,8.44 36.88,9.37 5.32,5.32 -11.56,116.28 -30.63,201.93 -34.7,156.29 -72.21,248.18 -109.71,267.56 -10.32,5.32 -20.95,25.64 -21.26,40.64 0,26.57 19.07,60.64 34.38,60.64 4.07,0 12.82,-6.25 21.88,-15.63 21.88,-22.82 30.64,-21.26 40.64,7.5 3.44,10.32 7.81,20.32 9.69,22.51 9.38,11.25 36.26,-1.57 54.7,-25.32 12.82,-16.88 14.38,-42.82 3.44,-59.7 -15.01,-23.13 -18.44,-66.89 -10,-131.6 17.5,-135.03 80.02,-361.02 98.14,-356.02 34.39,9.69 247.56,13.44 322.27,5.62 49.39,-5 145.04,-20.63 187.23,-30.63 17.82,-4.06 33.14,-6.87 33.76,-6.25 5,5 29.07,121.28 29.07,140.03 0,6.88 -1.25,9.07 -4.38,7.82 -53.13,-20.32 -111.27,2.81 -133.78,53.45 -10.31,22.82 -9.69,59.39 0.94,82.21 16.88,35.63 47.51,56.57 85.96,58.45 11.88,0.62 27.5,-0.32 34.07,-2.19 10.63,-2.81 13.13,-2.5 18.75,2.5 10.32,9.69 29.7,18.76 47.83,22.51 20.32,4.06 43.76,0.31 65.33,-10.32 17.81,-9.06 39.38,-32.82 46.57,-50.95 3.13,-8.75 7.19,-14.07 10.32,-14.07 10,0 42.82,-18.12 54.07,-30 36.89,-38.76 37.2,-102.84 0.63,-140.35 -20.63,-21.25 -44.08,-31.26 -73.15,-31.26 -20.31,0 -26.56,1.57 -44.38,10.32 -11.25,5.62 -25.01,15 -30.32,20.94 -5.31,5.94 -10.32,10.94 -10.94,10.94 -4.06,0 -26.26,-60.33 -43.45,-117.84l-7.81 -25.94 26.88 -8.13c68.77,-20.94 145.35,-51.58 215.99,-86.58l45.01 -22.2 14.38 16.57c65.95,76.27 181.29,280.07 205.05,361.34 8.12,28.13 10,57.82 4.69,71.58 -3.13,8.75 3.44,33.75 12.19,43.76 9.69,11.25 35.63,23.75 49.38,23.75 18.13,0 22.82,-5.62 22.82,-28.44 0,-33.45 9.07,-38.14 39.07,-21.26 11.26,6.25 19.07,8.76 23.45,7.51 14.06,-4.38 22.5,-38.76 15.63,-64.08 -4.38,-16.88 -23.76,-37.51 -35.01,-37.51 -16.88,0 -54.08,-31.26 -84.71,-70.96 -61.89,-80.33 -165.04,-266 -184.73,-331.95l-4.38 -15.32 36.26 -24.38c64.39,-42.51 122.84,-88.46 180.98,-141.28 15.94,-14.38 30.01,-25.64 31.57,-25.01 4.38,1.88 54.08,56.58 74.71,82.21l19.69 24.69 -20.32 6.56c-25.94,8.44 -43.45,20.95 -56.58,40.01 -35.94,52.52 -15.31,124.1 43.45,150.67 15.94,7.5 21.26,8.44 43.76,7.19 28.76,-1.25 46.58,-8.13 64.71,-25.01 10.31,-10 11.56,-10.32 37.51,-10.32 31.57,-0.31 54.38,-9.06 74.08,-28.75 20.31,-20.32 27.5,-38.45 27.81,-71.58 0.63,-27.2 0.94,-28.45 10.63,-39.07 5.63,-5.94 13.75,-18.45 18.44,-27.82 10.94,-22.82 11.57,-59.71 1.25,-81.9 -9.69,-21.25 -32.5,-44.38 -51.88,-52.51 -19.38,-8.44 -49.08,-11.25 -66.27,-6.57 -35.32,9.38 -66.27,40.64 -74.08,74.4 -2.19,9.06 -4.69,16.56 -5.63,16.56 -3.75,0 -46.88,-35.94 -77.2,-64.39l-32.2 -29.69 30.32 -33.45c139.72,-154.41 247.25,-339.14 309.45,-532.63 8.44,-25.63 16.26,-46.26 17.51,-46.26 8.12,0 129.4,58.77 176.91,85.65 30.32,17.5 57.21,34.07 71.58,45.01l10.32 7.81 -9.38 4.38c-17.81,8.75 -34.38,25.94 -44.38,46.57 -24.7,50.01 -4.07,108.47 47.82,136.29 11.25,5.94 18.13,7.19 43.14,7.19 25.94,0 31.57,-0.94 45.32,-8.44 18.13,-9.38 40.63,-32.2 47.2,-48.14 3.75,-9.07 5.94,-10.63 15,-10.63 15.01,0 46.89,-17.19 59.7,-31.88 19.38,-22.82 25.01,-38.14 25.01,-68.14 0,-20.95 -1.56,-29.7 -7.19,-41.89l-6.88 -15.31 6.88 -14.07c10,-21.26 11.25,-56.26 2.5,-79.39 -8.13,-22.2 -30.63,-46.58 -51.57,-56.27 -12.51,-5.94 -20.95,-7.19 -43.76,-7.19 -24.7,0 -30.32,1.25 -44.39,8.75 -36.57,19.07 -55.64,50.02 -55.64,90.34 0,17.5 -1.25,24.38 -4.06,24.38 -22.19,0 -236.31,-104.4 -266.63,-130.34 -4.69,-3.75 -4.69,-6.26 0.63,-28.45 26.57,-110.02 39.69,-259.75 34.07,-386.34 -1.88,-36.26 -3.75,-69.71 -5,-74.71 -1.57,-7.81 -0.63,-9.06 15.94,-16.56 58.76,-25.95 240.06,-63.77 352.27,-73.46 33.14,-3.13 49.7,-3.13 72.83,-0.31 27.82,3.44 51.58,11.56 56.27,19.38 0.93,1.56 10.62,3.12 21.56,3.12 16.57,0 21.88,-1.56 33.45,-9.06 16.25,-10.94 27.19,-24.69 29.69,-37.82 2.51,-12.51 -1.87,-17.2 -23.13,-25.01 -16.56,-6.25 -25.63,-13.13 -25.63,-19.69 0,-1.56 7.82,-10.94 17.51,-20.94 14.69,-15.63 17.19,-19.7 15.63,-26.57 -2.82,-10.94 -24.07,-25.63 -44.08,-30.01 -22.82,-5 -45.95,2.81 -56.57,19.69 -18.13,28.45 -69.71,51.89 -167.54,75.64 -105.03,25.64 -253.5,48.14 -296.01,45.02l-13.76 -0.94 -10 -50.01c-17.82,-88.15 -43.14,-174.11 -75.33,-254.44 -19.38,-48.14 -21.57,-40.95 20.32,-66.27 73.45,-44.07 227.55,-110.96 314.14,-136.28 48.13,-13.75 95.02,-17.5 114.4,-8.75 27.19,12.19 59.7,-5.32 75.33,-40.95 6.56,-14.69 5.31,-27.82 -3.13,-32.19 -2.81,-1.57 -12.81,-3.76 -22.5,-4.69 -29.7,-3.75 -34.07,-14.38 -15.32,-37.83 5,-6.25 10,-14.06 10.94,-17.19 5,-15.94 -19.06,-30.94 -49.7,-31.25 -26.25,0 -43.45,10.31 -53.14,32.19 -7.81,18.13 -33.13,43.14 -62.82,63.14 -55.95,36.88 -217.56,109.71 -309.14,138.78 -35.01,11.26 -70.64,19.38 -74.39,17.2 -1.57,-0.94 -6.88,-10.01 -12.19,-20.63 -16.26,-32.2 -49.39,-86.59 -82.21,-135.04 -17.51,-25.32 -32.82,-48.45 -34.7,-50.95 -2.5,-3.44 0.32,-7.81 12.51,-18.75 50.32,-45.01 148.16,-118.47 200.67,-150.35l27.51 -16.57 2.18 18.13c4.69,35.64 28.76,68.46 61.27,83.15 22.19,10 59.07,9.37 81.89,-1.25 35.32,-16.57 56.27,-47.2 58.77,-85.34 1.56,-27.5 -2.5,-43.44 -16.57,-64.7 -10.31,-15 -10.94,-16.88 -7.5,-27.19 5.31,-16.57 2.19,-55.64 -6.25,-71.9 -17.2,-33.44 -46.89,-53.13 -83.77,-55.95 -20.63,-1.56 -21.57,-2.18 -34.7,-16.88 -7.5,-8.44 -20.94,-18.75 -31.26,-23.75 -15.31,-7.5 -21.56,-8.75 -44.38,-8.75 -22.82,0 -29.07,1.25 -44.39,8.75 -43.13,21.25 -65.95,69.39 -54.39,114.09 8.76,34.07 32.2,61.26 61.89,71.89 8.44,2.81 15.01,6.25 15.01,7.19 0,3.13 -42.83,43.14 -74.39,69.39 -57.21,47.51 -157.23,119.72 -162.86,117.22 -1.25,-0.63 -17.19,-17.82 -35.32,-38.45 -87.52,-99.4 -198.48,-195.98 -301.95,-262.56 -24.06,-15.63 -28.44,-19.38 -26.88,-25.01 23.45,-79.39 132.85,-273.5 201.3,-356.96 20.63,-25.01 50.33,-50.32 62.52,-52.82 16.56,-3.44 27.19,-10.32 35.94,-23.14 8.44,-11.87 9.38,-16.25 9.38,-35.63 -0.31,-25.32 -6.88,-41.26 -18.44,-44.38 -5,-1.25 -12.82,1.25 -24.38,7.81 -29.07,16.57 -36.89,11.88 -36.89,-20.63 0,-23.76 -4.69,-30.63 -20.94,-30.32 -13.75,0.31 -35.95,10.63 -48.76,22.51 -11.57,10.94 -18.76,34.69 -14.07,47.82 5,14.69 1.25,50.95 -8.75,80.96 -27.82,83.77 -142.22,281 -206.61,356.02l-9.07 10.32 -40.32 -20.32c-79.39,-39.7 -163.79,-72.83 -241.93,-95.02l-41.58 -11.57 1.88 -26.88c5,-64.7 27.51,-191.92 44.07,-248.5 4.38,-15.32 8.76,-28.44 9.07,-29.07 0.62,-0.31 5.63,3.75 11.56,9.07 18.13,17.19 41.58,25.94 68.46,25.94 40.63,0 73.14,-20.32 90.96,-56.26 19.38,-39.39 11.88,-86.59 -19.07,-116.28 -15,-14.69 -34.38,-25.01 -53.45,-28.13 -11.57,-1.88 -14.69,-4.07 -20.63,-14.69 -10.31,-18.76 -29.07,-36.26 -47.51,-44.7 -20.32,-9.38 -52.2,-11.88 -70.64,-5.94l-0.01 0z"/>
     </clipPath>
 </defs>
 <g id="Warstwa_x0020_1">
  <metadata id="CorelCorpID_0Corel-Layer"/>
  <g id="_105553366303808">
   <g>
    <path class="fil0" d="M2338.92 39.75c-17.5,5.94 -29.69,12.81 -40.32,22.82 -8.75,8.44 -10.94,8.75 -39.07,9.06 -35.01,0 -52.2,6.57 -73.14,27.51 -19.7,19.69 -28.76,42.82 -28.76,72.52 0.31,31.25 8.12,50.63 29.07,71.26 29.07,28.76 70.64,37.82 106.27,23.13l19.38 -7.81 0 19.38c0,26.57 -7.81,94.08 -17.5,151.91 -7.82,46.57 -24.7,127.84 -27.51,130.34 -0.62,0.63 -20,-2.18 -42.82,-6.56 -66.89,-12.81 -144.41,-21.25 -221.62,-24.69l-17.19 -0.63 -2.81 -46.88c-3.13,-55.64 1.87,-194.43 9.06,-240.06 7.82,-50.95 17.82,-78.77 34.39,-95.96 23.75,-24.38 19.38,-60.02 -10.32,-88.46 -7.19,-6.88 -11.57,-8.75 -19.69,-7.82 -8.75,0.94 -11.88,3.44 -20.63,18.76 -10.94,18.75 -20.01,24.38 -27.82,17.81 -2.81,-2.18 -9.69,-11.56 -15.63,-20.62 -8.75,-13.76 -12.19,-16.57 -19.69,-16.57 -12.5,0 -26.88,12.81 -36.89,32.19 -6.56,13.44 -7.81,18.76 -6.25,34.08 1.25,15.94 3.44,20.31 14.07,31.88 19.38,20.94 30.94,58.45 38.13,122.21 4.38,41.89 7.82,192.55 5,230.06l-2.5 30.01 -47.51 2.19c-187.54,7.81 -381.65,57.82 -560.45,144.09l-53.76 25.95 -13.44 -14.38c-31.57,-34.07 -92.84,-129.41 -144.1,-224.12 -57.51,-106.59 -79.39,-173.48 -67.52,-207.24 8.13,-23.75 -14.69,-57.2 -47.19,-67.83 -13.13,-4.37 -17.51,-4.68 -25.01,-1.56 -10,4.06 -12.5,10.32 -12.5,34.7 0,27.19 -9.38,31.25 -35.95,15.31 -18.75,-11.25 -23.44,-11.56 -32.19,-2.18 -8.76,9.37 -12.82,31.88 -9.69,52.51 3.44,20.63 19.06,38.13 38.76,43.13 29.38,7.51 65.32,44.7 115.65,120.66 41.88,62.83 83.46,134.72 115.34,199.73 20.63,41.26 41.57,94.4 38.76,97.22 -0.63,0.62 -14.38,9.69 -30.63,20.31 -61.58,40.33 -125.35,90.34 -184.11,143.48l-32.51 29.69 -20.94 -22.19c-29.38,-30.63 -71.89,-82.52 -71.89,-87.52 0,-2.5 3.43,-4.07 8.75,-4.07 13.13,0 39.38,-13.75 53.76,-28.13 39.39,-39.38 39.7,-104.09 0.31,-143.47 -38.75,-38.76 -102.52,-40.01 -141.91,-2.81 -10.62,10 -11.56,10.31 -38.44,10.31 -24.38,0 -30.01,1.25 -44.39,8.75 -20.94,10.94 -38.13,28.13 -47.82,47.83 -6.25,12.81 -7.5,20 -7.5,43.13 0,27.2 -0.32,27.82 -10.63,39.07 -42.2,44.7 -34.07,118.47 16.57,152.85 20.94,14.07 45.32,20.63 66.89,18.13 44.38,-5.31 79.08,-35.32 89.08,-76.58 1.88,-8.75 4.69,-15.94 5.94,-15.94 3.44,0 59.7,46.26 86.58,71.27l23.45 21.56 -31.89 35.01c-61.89,68.15 -121.59,147.85 -167.85,224.43l-27.19 44.7 -36.26 -19.07c-122.53,-65.01 -228.5,-135.03 -264.44,-175.04 -15.94,-17.5 -26.88,-36.57 -26.88,-45.95 0,-5.94 -18.76,-25.63 -30.32,-31.57 -10.63,-5.31 -44.7,-4.37 -57.2,2.19 -14.38,6.88 -15.95,18.13 -5.01,38.13 8.76,15.95 10.32,29.39 4.38,33.14 -1.87,1.25 -13.44,2.81 -25.63,3.12 -25.01,1.25 -30.01,5 -30.01,22.2 0,12.81 11.88,37.19 24.07,48.45 12.5,11.87 32.2,16.87 47.51,12.5 16.88,-5.32 26.57,-4.69 56.89,2.81 46.89,11.88 114.72,43.76 209.74,98.78 50.95,29.38 102.52,62.51 102.52,65.95 0,1.56 -7.5,18.75 -16.87,38.45 -9.07,19.69 -23.76,53.13 -32.51,74.7 -16.57,40.95 -47.51,131.91 -47.51,139.72 0,2.19 -2.19,5 -4.69,5.94 -7.82,3.13 -142.23,-41.88 -142.23,-47.51 0,-0.94 5.01,-5.62 10.94,-10.94 5.94,-5.31 15.32,-19.07 20.95,-30.32 20,-40.32 11.88,-85.96 -20.95,-117.53 -36.88,-35.94 -97.83,-37.19 -136.28,-2.5 -15.31,13.76 -34.07,45.01 -34.07,56.89 0,2.5 -6.56,7.19 -15,10.63 -21.57,9.06 -48.14,36.88 -55.64,58.14 -11.57,33.76 -5.63,70.64 15.94,98.77 6.56,8.76 7.19,11.26 4.38,21.88 -1.88,6.57 -2.82,21.88 -2.19,33.76 4.69,89.71 117.53,127.85 177.23,59.7 21.57,-24.69 30.32,-63.76 20.94,-93.77 -2.5,-8.44 -4.06,-15.94 -3.12,-16.88 3.75,-3.75 139.72,21.88 145.66,27.51 1.56,1.25 -1.57,20.94 -6.88,44.07 -11.25,51.58 -23.76,137.22 -28.13,193.49 -6.57,86.58 -3.44,215.67 7.5,298.82 2.19,17.19 3.75,31.57 3.44,32.2 -1.88,2.18 -68.77,13.12 -117.22,19.06 -85.33,10.32 -136.59,13.75 -195.67,11.88 -63.45,-1.56 -86.58,-6.25 -105.34,-21.26 -15.94,-12.81 -39.38,-15.62 -57.2,-6.56 -15,7.82 -35.32,27.51 -37.51,36.89 -3.12,12.81 1.57,19.06 20.01,27.19 10,4.06 20,10 22.19,12.82 6.25,7.5 0.63,17.81 -16.88,30.31 -7.81,5.63 -15,13.76 -16.25,17.82 -3.44,14.07 18.75,33.45 47.51,41.57 18.13,5 41.88,-2.81 53.14,-17.81 20.63,-27.2 75.95,-47.2 176.6,-63.46 72.52,-11.56 162.23,-20.94 216.93,-22.5l21.57 -0.63 5.94 27.82c18.44,89.09 57.2,206.3 97.83,294.45 8.13,17.82 14.07,32.82 13.44,33.44 -3.44,3.76 -69.39,39.39 -105.96,58.14 -40.95,20.32 -100.65,46.58 -106.28,46.58 -1.56,0 -2.81,-10.32 -2.81,-22.82 0,-56.58 -45.32,-100.65 -103.15,-100.34 -38.13,0 -70.64,21.26 -88.15,56.89 -8.75,17.82 -10.31,24.07 -10.31,44.39 0,18.75 1.56,26.88 8.44,41.57l8.44 17.82 -5.63 13.44c-26.25,60.95 11.88,130.97 77.21,141.59 10.94,1.57 14.06,4.07 20.63,15.32 10,16.88 30,35.01 48.45,43.45 21.56,9.69 61.89,9.06 83.14,-1.25 22.82,-11.26 43.14,-32.82 51.58,-55.02 9.06,-24.07 7.81,-61.26 -2.82,-81.89 -9.69,-18.76 -25.94,-35.95 -41.88,-44.39l-13.75 -7.5 8.12 -6.56c27.82,-23.76 184.11,-114.09 196.61,-114.09 1.57,0 12.51,17.19 24.38,38.13 53.14,94.09 119.09,184.11 199.43,272.57l25.32 27.82 -25.01 23.44c-29.38,27.51 -76.89,67.83 -85.65,72.52 -5.62,2.81 -6.56,1.87 -8.44,-8.44 -5.31,-29.39 -28.75,-59.39 -56.88,-73.15 -20.63,-10.31 -64.08,-10.62 -85.96,-0.62 -20.95,9.69 -44.08,34.38 -52.2,56.26 -13.13,35.01 -5.32,77.52 19.69,104.72 10,10.94 10.31,12.19 10.31,37.5 -0.31,31.26 8.76,53.77 29.39,74.4 20.63,20.63 43.13,29.69 74.39,29.38 25.32,0 26.57,0.31 37.2,10.31 20.31,18.45 36.57,24.39 68.14,24.39 23.75,0 30.63,-1.25 43.76,-7.51 19.69,-10 38.76,-29.07 48.76,-48.76 10.63,-22.19 10.94,-65.01 0,-86.58 -13.75,-28.45 -43.76,-51.58 -73.14,-56.89l-11.88 -2.19 5.94 -9.69c7.19,-11.25 67.2,-80.64 83.14,-95.96l10.94 -10.63 13.76 12.19c88.77,77.84 138.16,116.6 198.48,155.98 29.7,19.38 31.88,21.26 30.01,29.07 -8.13,33.44 -60.64,139.1 -110.34,221.93 -72.83,121.59 -120.65,177.85 -159.41,188.17 -12.82,3.44 -23.76,12.19 -33.76,26.88 -5.32,8.13 -5.94,45.64 -1.25,58.14 1.56,4.69 6.87,10.63 10.94,13.75 7.81,4.69 8.75,4.69 26.57,-4.69 30.63,-15.94 37.82,-12.81 37.82,16.88 0,25.01 5.31,32.82 22.19,32.82 14.07,0 34.38,-9.06 47.2,-21.25 12.82,-11.88 19.69,-35.01 14.69,-49.7 -9.69,-30.01 6.25,-84.4 51.89,-174.42 52.2,-103.77 114.4,-202.86 163.79,-261l9.06 -10.63 55.95 26.88c106.59,51.89 217.56,90.34 325.71,113.16 19.38,4.06 35.94,8.44 36.88,9.37 5.32,5.32 -11.56,116.28 -30.63,201.93 -34.7,156.29 -72.21,248.18 -109.71,267.56 -10.32,5.32 -20.95,25.64 -21.26,40.64 0,26.57 19.07,60.64 34.38,60.64 4.07,0 12.82,-6.25 21.88,-15.63 21.88,-22.82 30.64,-21.26 40.64,7.5 3.44,10.32 7.81,20.32 9.69,22.51 9.38,11.25 36.26,-1.57 54.7,-25.32 12.82,-16.88 14.38,-42.82 3.44,-59.7 -15.01,-23.13 -18.44,-66.89 -10,-131.6 17.5,-135.03 80.02,-361.02 98.14,-356.02 34.39,9.69 247.56,13.44 322.27,5.62 49.39,-5 145.04,-20.63 187.23,-30.63 17.82,-4.06 33.14,-6.87 33.76,-6.25 5,5 29.07,121.28 29.07,140.03 0,6.88 -1.25,9.07 -4.38,7.82 -53.13,-20.32 -111.27,2.81 -133.78,53.45 -10.31,22.82 -9.69,59.39 0.94,82.21 16.88,35.63 47.51,56.57 85.96,58.45 11.88,0.62 27.5,-0.32 34.07,-2.19 10.63,-2.81 13.13,-2.5 18.75,2.5 10.32,9.69 29.7,18.76 47.83,22.51 20.32,4.06 43.76,0.31 65.33,-10.32 17.81,-9.06 39.38,-32.82 46.57,-50.95 3.13,-8.75 7.19,-14.07 10.32,-14.07 10,0 42.82,-18.12 54.07,-30 36.89,-38.76 37.2,-102.84 0.63,-140.35 -20.63,-21.25 -44.08,-31.26 -73.15,-31.26 -20.31,0 -26.56,1.57 -44.38,10.32 -11.25,5.62 -25.01,15 -30.32,20.94 -5.31,5.94 -10.32,10.94 -10.94,10.94 -4.06,0 -26.26,-60.33 -43.45,-117.84l-7.81 -25.94 26.88 -8.13c68.77,-20.94 145.35,-51.58 215.99,-86.58l45.01 -22.2 14.38 16.57c65.95,76.27 181.29,280.07 205.05,361.34 8.12,28.13 10,57.82 4.69,71.58 -3.13,8.75 3.44,33.75 12.19,43.76 9.69,11.25 35.63,23.75 49.38,23.75 18.13,0 22.82,-5.62 22.82,-28.44 0,-33.45 9.07,-38.14 39.07,-21.26 11.26,6.25 19.07,8.76 23.45,7.51 14.06,-4.38 22.5,-38.76 15.63,-64.08 -4.38,-16.88 -23.76,-37.51 -35.01,-37.51 -16.88,0 -54.08,-31.26 -84.71,-70.96 -61.89,-80.33 -165.04,-266 -184.73,-331.95l-4.38 -15.32 36.26 -24.38c64.39,-42.51 122.84,-88.46 180.98,-141.28 15.94,-14.38 30.01,-25.64 31.57,-25.01 4.38,1.88 54.08,56.58 74.71,82.21l19.69 24.69 -20.32 6.56c-25.94,8.44 -43.45,20.95 -56.58,40.01 -35.94,52.52 -15.31,124.1 43.45,150.67 15.94,7.5 21.26,8.44 43.76,7.19 28.76,-1.25 46.58,-8.13 64.71,-25.01 10.31,-10 11.56,-10.32 37.51,-10.32 31.57,-0.31 54.38,-9.06 74.08,-28.75 20.31,-20.32 27.5,-38.45 27.81,-71.58 0.63,-27.2 0.94,-28.45 10.63,-39.07 5.63,-5.94 13.75,-18.45 18.44,-27.82 10.94,-22.82 11.57,-59.71 1.25,-81.9 -9.69,-21.25 -32.5,-44.38 -51.88,-52.51 -19.38,-8.44 -49.08,-11.25 -66.27,-6.57 -35.32,9.38 -66.27,40.64 -74.08,74.4 -2.19,9.06 -4.69,16.56 -5.63,16.56 -3.75,0 -46.88,-35.94 -77.2,-64.39l-32.2 -29.69 30.32 -33.45c139.72,-154.41 247.25,-339.14 309.45,-532.63 8.44,-25.63 16.26,-46.26 17.51,-46.26 8.12,0 129.4,58.77 176.91,85.65 30.32,17.5 57.21,34.07 71.58,45.01l10.32 7.81 -9.38 4.38c-17.81,8.75 -34.38,25.94 -44.38,46.57 -24.7,50.01 -4.07,108.47 47.82,136.29 11.25,5.94 18.13,7.19 43.14,7.19 25.94,0 31.57,-0.94 45.32,-8.44 18.13,-9.38 40.63,-32.2 47.2,-48.14 3.75,-9.07 5.94,-10.63 15,-10.63 15.01,0 46.89,-17.19 59.7,-31.88 19.38,-22.82 25.01,-38.14 25.01,-68.14 0,-20.95 -1.56,-29.7 -7.19,-41.89l-6.88 -15.31 6.88 -14.07c10,-21.26 11.25,-56.26 2.5,-79.39 -8.13,-22.2 -30.63,-46.58 -51.57,-56.27 -12.51,-5.94 -20.95,-7.19 -43.76,-7.19 -24.7,0 -30.32,1.25 -44.39,8.75 -36.57,19.07 -55.64,50.02 -55.64,90.34 0,17.5 -1.25,24.38 -4.06,24.38 -22.19,0 -236.31,-104.4 -266.63,-130.34 -4.69,-3.75 -4.69,-6.26 0.63,-28.45 26.57,-110.02 39.69,-259.75 34.07,-386.34 -1.88,-36.26 -3.75,-69.71 -5,-74.71 -1.57,-7.81 -0.63,-9.06 15.94,-16.56 58.76,-25.95 240.06,-63.77 352.27,-73.46 33.14,-3.13 49.7,-3.13 72.83,-0.31 27.82,3.44 51.58,11.56 56.27,19.38 0.93,1.56 10.62,3.12 21.56,3.12 16.57,0 21.88,-1.56 33.45,-9.06 16.25,-10.94 27.19,-24.69 29.69,-37.82 2.51,-12.51 -1.87,-17.2 -23.13,-25.01 -16.56,-6.25 -25.63,-13.13 -25.63,-19.69 0,-1.56 7.82,-10.94 17.51,-20.94 14.69,-15.63 17.19,-19.7 15.63,-26.57 -2.82,-10.94 -24.07,-25.63 -44.08,-30.01 -22.82,-5 -45.95,2.81 -56.57,19.69 -18.13,28.45 -69.71,51.89 -167.54,75.64 -105.03,25.64 -253.5,48.14 -296.01,45.02l-13.76 -0.94 -10 -50.01c-17.82,-88.15 -43.14,-174.11 -75.33,-254.44 -19.38,-48.14 -21.57,-40.95 20.32,-66.27 73.45,-44.07 227.55,-110.96 314.14,-136.28 48.13,-13.75 95.02,-17.5 114.4,-8.75 27.19,12.19 59.7,-5.32 75.33,-40.95 6.56,-14.69 5.31,-27.82 -3.13,-32.19 -2.81,-1.57 -12.81,-3.76 -22.5,-4.69 -29.7,-3.75 -34.07,-14.38 -15.32,-37.83 5,-6.25 10,-14.06 10.94,-17.19 5,-15.94 -19.06,-30.94 -49.7,-31.25 -26.25,0 -43.45,10.31 -53.14,32.19 -7.81,18.13 -33.13,43.14 -62.82,63.14 -55.95,36.88 -217.56,109.71 -309.14,138.78 -35.01,11.26 -70.64,19.38 -74.39,17.2 -1.57,-0.94 -6.88,-10.01 -12.19,-20.63 -16.26,-32.2 -49.39,-86.59 -82.21,-135.04 -17.51,-25.32 -32.82,-48.45 -34.7,-50.95 -2.5,-3.44 0.32,-7.81 12.51,-18.75 50.32,-45.01 148.16,-118.47 200.67,-150.35l27.51 -16.57 2.18 18.13c4.69,35.64 28.76,68.46 61.27,83.15 22.19,10 59.07,9.37 81.89,-1.25 35.32,-16.57 56.27,-47.2 58.77,-85.34 1.56,-27.5 -2.5,-43.44 -16.57,-64.7 -10.31,-15 -10.94,-16.88 -7.5,-27.19 5.31,-16.57 2.19,-55.64 -6.25,-71.9 -17.2,-33.44 -46.89,-53.13 -83.77,-55.95 -20.63,-1.56 -21.57,-2.18 -34.7,-16.88 -7.5,-8.44 -20.94,-18.75 -31.26,-23.75 -15.31,-7.5 -21.56,-8.75 -44.38,-8.75 -22.82,0 -29.07,1.25 -44.39,8.75 -43.13,21.25 -65.95,69.39 -54.39,114.09 8.76,34.07 32.2,61.26 61.89,71.89 8.44,2.81 15.01,6.25 15.01,7.19 0,3.13 -42.83,43.14 -74.39,69.39 -57.21,47.51 -157.23,119.72 -162.86,117.22 -1.25,-0.63 -17.19,-17.82 -35.32,-38.45 -87.52,-99.4 -198.48,-195.98 -301.95,-262.56 -24.06,-15.63 -28.44,-19.38 -26.88,-25.01 23.45,-79.39 132.85,-273.5 201.3,-356.96 20.63,-25.01 50.33,-50.32 62.52,-52.82 16.56,-3.44 27.19,-10.32 35.94,-23.14 8.44,-11.87 9.38,-16.25 9.38,-35.63 -0.31,-25.32 -6.88,-41.26 -18.44,-44.38 -5,-1.25 -12.82,1.25 -24.38,7.81 -29.07,16.57 -36.89,11.88 -36.89,-20.63 0,-23.76 -4.69,-30.63 -20.94,-30.32 -13.75,0.31 -35.95,10.63 -48.76,22.51 -11.57,10.94 -18.76,34.69 -14.07,47.82 5,14.69 1.25,50.95 -8.75,80.96 -27.82,83.77 -142.22,281 -206.61,356.02l-9.07 10.32 -40.32 -20.32c-79.39,-39.7 -163.79,-72.83 -241.93,-95.02l-41.58 -11.57 1.88 -26.88c5,-64.7 27.51,-191.92 44.07,-248.5 4.38,-15.32 8.76,-28.44 9.07,-29.07 0.62,-0.31 5.63,3.75 11.56,9.07 18.13,17.19 41.58,25.94 68.46,25.94 40.63,0 73.14,-20.32 90.96,-56.26 19.38,-39.39 11.88,-86.59 -19.07,-116.28 -15,-14.69 -34.38,-25.01 -53.45,-28.13 -11.57,-1.88 -14.69,-4.07 -20.63,-14.69 -10.31,-18.76 -29.07,-36.26 -47.51,-44.7 -20.32,-9.38 -52.2,-11.88 -70.64,-5.94l-0.01 0z"/>
    <g style="clip-path:url(#id0)">
     <g>
      <rect class="fil1" x="-146.04" y="-473.95" width="4384.36" height="2501.04"/>
     </g>
    </g>
    <path class="fil2" d="M2338.92 39.75c-17.5,5.94 -29.69,12.81 -40.32,22.82 -8.75,8.44 -10.94,8.75 -39.07,9.06 -35.01,0 -52.2,6.57 -73.14,27.51 -19.7,19.69 -28.76,42.82 -28.76,72.52 0.31,31.25 8.12,50.63 29.07,71.26 29.07,28.76 70.64,37.82 106.27,23.13l19.38 -7.81 0 19.38c0,26.57 -7.81,94.08 -17.5,151.91 -7.82,46.57 -24.7,127.84 -27.51,130.34 -0.62,0.63 -20,-2.18 -42.82,-6.56 -66.89,-12.81 -144.41,-21.25 -221.62,-24.69l-17.19 -0.63 -2.81 -46.88c-3.13,-55.64 1.87,-194.43 9.06,-240.06 7.82,-50.95 17.82,-78.77 34.39,-95.96 23.75,-24.38 19.38,-60.02 -10.32,-88.46 -7.19,-6.88 -11.57,-8.75 -19.69,-7.82 -8.75,0.94 -11.88,3.44 -20.63,18.76 -10.94,18.75 -20.01,24.38 -27.82,17.81 -2.81,-2.18 -9.69,-11.56 -15.63,-20.62 -8.75,-13.76 -12.19,-16.57 -19.69,-16.57 -12.5,0 -26.88,12.81 -36.89,32.19 -6.56,13.44 -7.81,18.76 -6.25,34.08 1.25,15.94 3.44,20.31 14.07,31.88 19.38,20.94 30.94,58.45 38.13,122.21 4.38,41.89 7.82,192.55 5,230.06l-2.5 30.01 -47.51 2.19c-187.54,7.81 -381.65,57.82 -560.45,144.09l-53.76 25.95 -13.44 -14.38c-31.57,-34.07 -92.84,-129.41 -144.1,-224.12 -57.51,-106.59 -79.39,-173.48 -67.52,-207.24 8.13,-23.75 -14.69,-57.2 -47.19,-67.83 -13.13,-4.37 -17.51,-4.68 -25.01,-1.56 -10,4.06 -12.5,10.32 -12.5,34.7 0,27.19 -9.38,31.25 -35.95,15.31 -18.75,-11.25 -23.44,-11.56 -32.19,-2.18 -8.76,9.37 -12.82,31.88 -9.69,52.51 3.44,20.63 19.06,38.13 38.76,43.13 29.38,7.51 65.32,44.7 115.65,120.66 41.88,62.83 83.46,134.72 115.34,199.73 20.63,41.26 41.57,94.4 38.76,97.22 -0.63,0.62 -14.38,9.69 -30.63,20.31 -61.58,40.33 -125.35,90.34 -184.11,143.48l-32.51 29.69 -20.94 -22.19c-29.38,-30.63 -71.89,-82.52 -71.89,-87.52 0,-2.5 3.43,-4.07 8.75,-4.07 13.13,0 39.38,-13.75 53.76,-28.13 39.39,-39.38 39.7,-104.09 0.31,-143.47 -38.75,-38.76 -102.52,-40.01 -141.91,-2.81 -10.62,10 -11.56,10.31 -38.44,10.31 -24.38,0 -30.01,1.25 -44.39,8.75 -20.94,10.94 -38.13,28.13 -47.82,47.83 -6.25,12.81 -7.5,20 -7.5,43.13 0,27.2 -0.32,27.82 -10.63,39.07 -42.2,44.7 -34.07,118.47 16.57,152.85 20.94,14.07 45.32,20.63 66.89,18.13 44.38,-5.31 79.08,-35.32 89.08,-76.58 1.88,-8.75 4.69,-15.94 5.94,-15.94 3.44,0 59.7,46.26 86.58,71.27l23.45 21.56 -31.89 35.01c-61.89,68.15 -121.59,147.85 -167.85,224.43l-27.19 44.7 -36.26 -19.07c-122.53,-65.01 -228.5,-135.03 -264.44,-175.04 -15.94,-17.5 -26.88,-36.57 -26.88,-45.95 0,-5.94 -18.76,-25.63 -30.32,-31.57 -10.63,-5.31 -44.7,-4.37 -57.2,2.19 -14.38,6.88 -15.95,18.13 -5.01,38.13 8.76,15.95 10.32,29.39 4.38,33.14 -1.87,1.25 -13.44,2.81 -25.63,3.12 -25.01,1.25 -30.01,5 -30.01,22.2 0,12.81 11.88,37.19 24.07,48.45 12.5,11.87 32.2,16.87 47.51,12.5 16.88,-5.32 26.57,-4.69 56.89,2.81 46.89,11.88 114.72,43.76 209.74,98.78 50.95,29.38 102.52,62.51 102.52,65.95 0,1.56 -7.5,18.75 -16.87,38.45 -9.07,19.69 -23.76,53.13 -32.51,74.7 -16.57,40.95 -47.51,131.91 -47.51,139.72 0,2.19 -2.19,5 -4.69,5.94 -7.82,3.13 -142.23,-41.88 -142.23,-47.51 0,-0.94 5.01,-5.62 10.94,-10.94 5.94,-5.31 15.32,-19.07 20.95,-30.32 20,-40.32 11.88,-85.96 -20.95,-117.53 -36.88,-35.94 -97.83,-37.19 -136.28,-2.5 -15.31,13.76 -34.07,45.01 -34.07,56.89 0,2.5 -6.56,7.19 -15,10.63 -21.57,9.06 -48.14,36.88 -55.64,58.14 -11.57,33.76 -5.63,70.64 15.94,98.77 6.56,8.76 7.19,11.26 4.38,21.88 -1.88,6.57 -2.82,21.88 -2.19,33.76 4.69,89.71 117.53,127.85 177.23,59.7 21.57,-24.69 30.32,-63.76 20.94,-93.77 -2.5,-8.44 -4.06,-15.94 -3.12,-16.88 3.75,-3.75 139.72,21.88 145.66,27.51 1.56,1.25 -1.57,20.94 -6.88,44.07 -11.25,51.58 -23.76,137.22 -28.13,193.49 -6.57,86.58 -3.44,215.67 7.5,298.82 2.19,17.19 3.75,31.57 3.44,32.2 -1.88,2.18 -68.77,13.12 -117.22,19.06 -85.33,10.32 -136.59,13.75 -195.67,11.88 -63.45,-1.56 -86.58,-6.25 -105.34,-21.26 -15.94,-12.81 -39.38,-15.62 -57.2,-6.56 -15,7.82 -35.32,27.51 -37.51,36.89 -3.12,12.81 1.57,19.06 20.01,27.19 10,4.06 20,10 22.19,12.82 6.25,7.5 0.63,17.81 -16.88,30.31 -7.81,5.63 -15,13.76 -16.25,17.82 -3.44,14.07 18.75,33.45 47.51,41.57 18.13,5 41.88,-2.81 53.14,-17.81 20.63,-27.2 75.95,-47.2 176.6,-63.46 72.52,-11.56 162.23,-20.94 216.93,-22.5l21.57 -0.63 5.94 27.82c18.44,89.09 57.2,206.3 97.83,294.45 8.13,17.82 14.07,32.82 13.44,33.44 -3.44,3.76 -69.39,39.39 -105.96,58.14 -40.95,20.32 -100.65,46.58 -106.28,46.58 -1.56,0 -2.81,-10.32 -2.81,-22.82 0,-56.58 -45.32,-100.65 -103.15,-100.34 -38.13,0 -70.64,21.26 -88.15,56.89 -8.75,17.82 -10.31,24.07 -10.31,44.39 0,18.75 1.56,26.88 8.44,41.57l8.44 17.82 -5.63 13.44c-26.25,60.95 11.88,130.97 77.21,141.59 10.94,1.57 14.06,4.07 20.63,15.32 10,16.88 30,35.01 48.45,43.45 21.56,9.69 61.89,9.06 83.14,-1.25 22.82,-11.26 43.14,-32.82 51.58,-55.02 9.06,-24.07 7.81,-61.26 -2.82,-81.89 -9.69,-18.76 -25.94,-35.95 -41.88,-44.39l-13.75 -7.5 8.12 -6.56c27.82,-23.76 184.11,-114.09 196.61,-114.09 1.57,0 12.51,17.19 24.38,38.13 53.14,94.09 119.09,184.11 199.43,272.57l25.32 27.82 -25.01 23.44c-29.38,27.51 -76.89,67.83 -85.65,72.52 -5.62,2.81 -6.56,1.87 -8.44,-8.44 -5.31,-29.39 -28.75,-59.39 -56.88,-73.15 -20.63,-10.31 -64.08,-10.62 -85.96,-0.62 -20.95,9.69 -44.08,34.38 -52.2,56.26 -13.13,35.01 -5.32,77.52 19.69,104.72 10,10.94 10.31,12.19 10.31,37.5 -0.31,31.26 8.76,53.77 29.39,74.4 20.63,20.63 43.13,29.69 74.39,29.38 25.32,0 26.57,0.31 37.2,10.31 20.31,18.45 36.57,24.39 68.14,24.39 23.75,0 30.63,-1.25 43.76,-7.51 19.69,-10 38.76,-29.07 48.76,-48.76 10.63,-22.19 10.94,-65.01 0,-86.58 -13.75,-28.45 -43.76,-51.58 -73.14,-56.89l-11.88 -2.19 5.94 -9.69c7.19,-11.25 67.2,-80.64 83.14,-95.96l10.94 -10.63 13.76 12.19c88.77,77.84 138.16,116.6 198.48,155.98 29.7,19.38 31.88,21.26 30.01,29.07 -8.13,33.44 -60.64,139.1 -110.34,221.93 -72.83,121.59 -120.65,177.85 -159.41,188.17 -12.82,3.44 -23.76,12.19 -33.76,26.88 -5.32,8.13 -5.94,45.64 -1.25,58.14 1.56,4.69 6.87,10.63 10.94,13.75 7.81,4.69 8.75,4.69 26.57,-4.69 30.63,-15.94 37.82,-12.81 37.82,16.88 0,25.01 5.31,32.82 22.19,32.82 14.07,0 34.38,-9.06 47.2,-21.25 12.82,-11.88 19.69,-35.01 14.69,-49.7 -9.69,-30.01 6.25,-84.4 51.89,-174.42 52.2,-103.77 114.4,-202.86 163.79,-261l9.06 -10.63 55.95 26.88c106.59,51.89 217.56,90.34 325.71,113.16 19.38,4.06 35.94,8.44 36.88,9.37 5.32,5.32 -11.56,116.28 -30.63,201.93 -34.7,156.29 -72.21,248.18 -109.71,267.56 -10.32,5.32 -20.95,25.64 -21.26,40.64 0,26.57 19.07,60.64 34.38,60.64 4.07,0 12.82,-6.25 21.88,-15.63 21.88,-22.82 30.64,-21.26 40.64,7.5 3.44,10.32 7.81,20.32 9.69,22.51 9.38,11.25 36.26,-1.57 54.7,-25.32 12.82,-16.88 14.38,-42.82 3.44,-59.7 -15.01,-23.13 -18.44,-66.89 -10,-131.6 17.5,-135.03 80.02,-361.02 98.14,-356.02 34.39,9.69 247.56,13.44 322.27,5.62 49.39,-5 145.04,-20.63 187.23,-30.63 17.82,-4.06 33.14,-6.87 33.76,-6.25 5,5 29.07,121.28 29.07,140.03 0,6.88 -1.25,9.07 -4.38,7.82 -53.13,-20.32 -111.27,2.81 -133.78,53.45 -10.31,22.82 -9.69,59.39 0.94,82.21 16.88,35.63 47.51,56.57 85.96,58.45 11.88,0.62 27.5,-0.32 34.07,-2.19 10.63,-2.81 13.13,-2.5 18.75,2.5 10.32,9.69 29.7,18.76 47.83,22.51 20.32,4.06 43.76,0.31 65.33,-10.32 17.81,-9.06 39.38,-32.82 46.57,-50.95 3.13,-8.75 7.19,-14.07 10.32,-14.07 10,0 42.82,-18.12 54.07,-30 36.89,-38.76 37.2,-102.84 0.63,-140.35 -20.63,-21.25 -44.08,-31.26 -73.15,-31.26 -20.31,0 -26.56,1.57 -44.38,10.32 -11.25,5.62 -25.01,15 -30.32,20.94 -5.31,5.94 -10.32,10.94 -10.94,10.94 -4.06,0 -26.26,-60.33 -43.45,-117.84l-7.81 -25.94 26.88 -8.13c68.77,-20.94 145.35,-51.58 215.99,-86.58l45.01 -22.2 14.38 16.57c65.95,76.27 181.29,280.07 205.05,361.34 8.12,28.13 10,57.82 4.69,71.58 -3.13,8.75 3.44,33.75 12.19,43.76 9.69,11.25 35.63,23.75 49.38,23.75 18.13,0 22.82,-5.62 22.82,-28.44 0,-33.45 9.07,-38.14 39.07,-21.26 11.26,6.25 19.07,8.76 23.45,7.51 14.06,-4.38 22.5,-38.76 15.63,-64.08 -4.38,-16.88 -23.76,-37.51 -35.01,-37.51 -16.88,0 -54.08,-31.26 -84.71,-70.96 -61.89,-80.33 -165.04,-266 -184.73,-331.95l-4.38 -15.32 36.26 -24.38c64.39,-42.51 122.84,-88.46 180.98,-141.28 15.94,-14.38 30.01,-25.64 31.57,-25.01 4.38,1.88 54.08,56.58 74.71,82.21l19.69 24.69 -20.32 6.56c-25.94,8.44 -43.45,20.95 -56.58,40.01 -35.94,52.52 -15.31,124.1 43.45,150.67 15.94,7.5 21.26,8.44 43.76,7.19 28.76,-1.25 46.58,-8.13 64.71,-25.01 10.31,-10 11.56,-10.32 37.51,-10.32 31.57,-0.31 54.38,-9.06 74.08,-28.75 20.31,-20.32 27.5,-38.45 27.81,-71.58 0.63,-27.2 0.94,-28.45 10.63,-39.07 5.63,-5.94 13.75,-18.45 18.44,-27.82 10.94,-22.82 11.57,-59.71 1.25,-81.9 -9.69,-21.25 -32.5,-44.38 -51.88,-52.51 -19.38,-8.44 -49.08,-11.25 -66.27,-6.57 -35.32,9.38 -66.27,40.64 -74.08,74.4 -2.19,9.06 -4.69,16.56 -5.63,16.56 -3.75,0 -46.88,-35.94 -77.2,-64.39l-32.2 -29.69 30.32 -33.45c139.72,-154.41 247.25,-339.14 309.45,-532.63 8.44,-25.63 16.26,-46.26 17.51,-46.26 8.12,0 129.4,58.77 176.91,85.65 30.32,17.5 57.21,34.07 71.58,45.01l10.32 7.81 -9.38 4.38c-17.81,8.75 -34.38,25.94 -44.38,46.57 -24.7,50.01 -4.07,108.47 47.82,136.29 11.25,5.94 18.13,7.19 43.14,7.19 25.94,0 31.57,-0.94 45.32,-8.44 18.13,-9.38 40.63,-32.2 47.2,-48.14 3.75,-9.07 5.94,-10.63 15,-10.63 15.01,0 46.89,-17.19 59.7,-31.88 19.38,-22.82 25.01,-38.14 25.01,-68.14 0,-20.95 -1.56,-29.7 -7.19,-41.89l-6.88 -15.31 6.88 -14.07c10,-21.26 11.25,-56.26 2.5,-79.39 -8.13,-22.2 -30.63,-46.58 -51.57,-56.27 -12.51,-5.94 -20.95,-7.19 -43.76,-7.19 -24.7,0 -30.32,1.25 -44.39,8.75 -36.57,19.07 -55.64,50.02 -55.64,90.34 0,17.5 -1.25,24.38 -4.06,24.38 -22.19,0 -236.31,-104.4 -266.63,-130.34 -4.69,-3.75 -4.69,-6.26 0.63,-28.45 26.57,-110.02 39.69,-259.75 34.07,-386.34 -1.88,-36.26 -3.75,-69.71 -5,-74.71 -1.57,-7.81 -0.63,-9.06 15.94,-16.56 58.76,-25.95 240.06,-63.77 352.27,-73.46 33.14,-3.13 49.7,-3.13 72.83,-0.31 27.82,3.44 51.58,11.56 56.27,19.38 0.93,1.56 10.62,3.12 21.56,3.12 16.57,0 21.88,-1.56 33.45,-9.06 16.25,-10.94 27.19,-24.69 29.69,-37.82 2.51,-12.51 -1.87,-17.2 -23.13,-25.01 -16.56,-6.25 -25.63,-13.13 -25.63,-19.69 0,-1.56 7.82,-10.94 17.51,-20.94 14.69,-15.63 17.19,-19.7 15.63,-26.57 -2.82,-10.94 -24.07,-25.63 -44.08,-30.01 -22.82,-5 -45.95,2.81 -56.57,19.69 -18.13,28.45 -69.71,51.89 -167.54,75.64 -105.03,25.64 -253.5,48.14 -296.01,45.02l-13.76 -0.94 -10 -50.01c-17.82,-88.15 -43.14,-174.11 -75.33,-254.44 -19.38,-48.14 -21.57,-40.95 20.32,-66.27 73.45,-44.07 227.55,-110.96 314.14,-136.28 48.13,-13.75 95.02,-17.5 114.4,-8.75 27.19,12.19 59.7,-5.32 75.33,-40.95 6.56,-14.69 5.31,-27.82 -3.13,-32.19 -2.81,-1.57 -12.81,-3.76 -22.5,-4.69 -29.7,-3.75 -34.07,-14.38 -15.32,-37.83 5,-6.25 10,-14.06 10.94,-17.19 5,-15.94 -19.06,-30.94 -49.7,-31.25 -26.25,0 -43.45,10.31 -53.14,32.19 -7.81,18.13 -33.13,43.14 -62.82,63.14 -55.95,36.88 -217.56,109.71 -309.14,138.78 -35.01,11.26 -70.64,19.38 -74.39,17.2 -1.57,-0.94 -6.88,-10.01 -12.19,-20.63 -16.26,-32.2 -49.39,-86.59 -82.21,-135.04 -17.51,-25.32 -32.82,-48.45 -34.7,-50.95 -2.5,-3.44 0.32,-7.81 12.51,-18.75 50.32,-45.01 148.16,-118.47 200.67,-150.35l27.51 -16.57 2.18 18.13c4.69,35.64 28.76,68.46 61.27,83.15 22.19,10 59.07,9.37 81.89,-1.25 35.32,-16.57 56.27,-47.2 58.77,-85.34 1.56,-27.5 -2.5,-43.44 -16.57,-64.7 -10.31,-15 -10.94,-16.88 -7.5,-27.19 5.31,-16.57 2.19,-55.64 -6.25,-71.9 -17.2,-33.44 -46.89,-53.13 -83.77,-55.95 -20.63,-1.56 -21.57,-2.18 -34.7,-16.88 -7.5,-8.44 -20.94,-18.75 -31.26,-23.75 -15.31,-7.5 -21.56,-8.75 -44.38,-8.75 -22.82,0 -29.07,1.25 -44.39,8.75 -43.13,21.25 -65.95,69.39 -54.39,114.09 8.76,34.07 32.2,61.26 61.89,71.89 8.44,2.81 15.01,6.25 15.01,7.19 0,3.13 -42.83,43.14 -74.39,69.39 -57.21,47.51 -157.23,119.72 -162.86,117.22 -1.25,-0.63 -17.19,-17.82 -35.32,-38.45 -87.52,-99.4 -198.48,-195.98 -301.95,-262.56 -24.06,-15.63 -28.44,-19.38 -26.88,-25.01 23.45,-79.39 132.85,-273.5 201.3,-356.96 20.63,-25.01 50.33,-50.32 62.52,-52.82 16.56,-3.44 27.19,-10.32 35.94,-23.14 8.44,-11.87 9.38,-16.25 9.38,-35.63 -0.31,-25.32 -6.88,-41.26 -18.44,-44.38 -5,-1.25 -12.82,1.25 -24.38,7.81 -29.07,16.57 -36.89,11.88 -36.89,-20.63 0,-23.76 -4.69,-30.63 -20.94,-30.32 -13.75,0.31 -35.95,10.63 -48.76,22.51 -11.57,10.94 -18.76,34.69 -14.07,47.82 5,14.69 1.25,50.95 -8.75,80.96 -27.82,83.77 -142.22,281 -206.61,356.02l-9.07 10.32 -40.32 -20.32c-79.39,-39.7 -163.79,-72.83 -241.93,-95.02l-41.58 -11.57 1.88 -26.88c5,-64.7 27.51,-191.92 44.07,-248.5 4.38,-15.32 8.76,-28.44 9.07,-29.07 0.62,-0.31 5.63,3.75 11.56,9.07 18.13,17.19 41.58,25.94 68.46,25.94 40.63,0 73.14,-20.32 90.96,-56.26 19.38,-39.39 11.88,-86.59 -19.07,-116.28 -15,-14.69 -34.38,-25.01 -53.45,-28.13 -11.57,-1.88 -14.69,-4.07 -20.63,-14.69 -10.31,-18.76 -29.07,-36.26 -47.51,-44.7 -20.32,-9.38 -52.2,-11.88 -70.64,-5.94l-0.01 0z"/>
   </g>
  </g>
 </g>
</svg>
