<?xml version="1.0" encoding="UTF-8"?>
<!DOCTYPE svg PUBLIC "-//W3C//DTD SVG 1.1//EN" "http://www.w3.org/Graphics/SVG/1.1/DTD/svg11.dtd">
<!-- Creator: CorelDRAW -->
<svg xmlns="http://www.w3.org/2000/svg" xml:space="preserve" width="60mm" height="60mm" version="1.1" style="shape-rendering:geometricPrecision; text-rendering:geometricPrecision; image-rendering:optimizeQuality; fill-rule:evenodd; clip-rule:evenodd"
viewBox="0 0 6000 6000"
 xmlns:xlink="http://www.w3.org/1999/xlink"
 enable-background="new 0 0 512 512"
 xmlns:xodm="http://www.corel.com/coreldraw/odm/2003">
 <defs>
  <style type="text/css">
   <![CDATA[
    .fil0 {fill:white}
   ]]>
  </style>
 </defs>
 <g id="Warstwa_x0020_1">
  <metadata id="CorelCorpID_0Corel-Layer"/>
  <g id="_105553384655104">
   <path class="fil0" d="M3853.28 3347.58l0 -1289.75c0,-41.01 -39.22,-74.23 -87.67,-74.23 -48.41,0 -87.62,33.22 -87.62,74.23l0 1327.25c0,24.03 13.68,46.54 36.78,60.46 327.31,197.56 522.68,518.46 522.68,858.42 0,580.71 -557.66,1053.2 -1243.15,1053.2 -685.44,0 -1243.15,-472.49 -1243.15,-1053.2 0,-339.96 195.42,-660.86 522.72,-858.42 23.05,-13.92 36.79,-36.43 36.79,-60.46l0 -2151.68c0,-319.37 306.67,-579.22 683.64,-579.22 376.96,0 683.69,259.85 683.69,579.22l0 527.38c0,41.01 39.21,74.27 87.62,74.27 48.45,0 87.67,-33.26 87.67,-74.27l0 -527.38c0,-401.27 -385.34,-727.73 -858.98,-727.73 -473.64,0 -858.98,326.46 -858.98,727.73l0 2114.18c-351.11,226.78 -559.45,581.44 -559.45,956.38 0,662.61 636.32,1201.71 1418.44,1201.71 782.16,0 1418.47,-539.09 1418.47,-1201.71 0,-374.98 -208.34,-729.6 -559.5,-956.38l0 0 0 0zm0 0z"/>
   <path class="fil0" d="M2994.3 4961.12c-159.84,0 -313.43,-41.05 -444.19,-118.72 -39.62,-23.57 -94.33,-15.45 -122.11,18.16 -27.78,33.57 -18.19,79.88 21.48,103.42 160.38,95.29 348.78,145.64 544.82,145.64 524.38,0 951.01,-361.4 951.01,-805.66 0,-260.09 -149.57,-505.6 -400.06,-656.82l-159.44 -96.21 0 -2317.54c0,-182.91 -175.6,-331.68 -391.51,-331.68 -215.86,0 -391.5,148.77 -391.5,331.68l0 2317.54 -159.4 96.21c-250.53,151.21 -400.06,396.73 -400.06,656.82 0,161.2 56.24,316.89 162.68,450.24 27.11,33.96 81.59,42.88 121.71,19.92 40.11,-22.97 50.61,-69.12 23.5,-103.11 -86.72,-108.68 -132.6,-235.64 -132.6,-367.05 0,-212.18 122.06,-412.49 326.49,-535.85l196.18 -118.45c23.09,-13.92 36.83,-36.47 36.83,-60.46l0 -286.71 432.39 0 0 286.71c0,23.99 13.69,46.54 36.79,60.46l196.22 118.45c204.42,123.37 326.45,323.68 326.45,535.85 0,362.36 -347.97,657.16 -775.68,657.16zm216.22 -2941.89l-432.39 0 0 -418.86 432.39 0.01 0 418.85zm-432.39 148.5l432.39 0 0 418.85 -432.39 0 0 -418.85zm216.17 -1117.51c119.23,0 216.22,82.17 216.22,183.18l0 218.47 -432.39 0 0 -218.47c0,-101.01 96.99,-183.18 216.17,-183.18l0 0zm-216.17 2103.77l0 -418.86 432.39 0 0 418.86 -432.39 0zm0 0z"/>
   <path class="fil0" d="M3226.32 4521.91c-29.82,0 -46.12,9.7 -48.36,28.73 -6.43,42.7 -16.14,107.19 -134.84,107.19 -97.29,0 -144.6,-41.87 -144.6,-127.99l0 -276.45c0,-84.93 47.57,-128 141.35,-128 109.08,0 135.3,56.19 138.09,103.33 1.21,18.65 18.4,28.92 48.36,28.92 30.64,0 48.38,-7.3 48.38,-44.66 0,-95.52 -97.46,-162.22 -237.01,-162.22 -149.93,0 -235.93,73.87 -235.93,202.63l0 276.45c0,69.21 23.35,121.92 69.4,156.66 39.84,30.07 97.05,45.96 165.46,45.96 140.17,0 238.08,-67.84 238.08,-164.98 0,-37.94 -18.52,-45.57 -48.38,-45.57l0 0zm0 0z"/>
   <path class="fil0" d="M2862.22 3947.42c0,-65.23 -62.65,-118.31 -139.65,-118.31 -77.02,0 -139.65,53.08 -139.65,118.31 0,65.24 62.63,118.32 139.65,118.32 77,0 139.65,-53.08 139.65,-118.32zm-139.65 45.88c-29.86,0 -54.15,-20.59 -54.15,-45.88 0,-25.3 24.29,-45.88 54.15,-45.88 29.85,0 54.14,20.58 54.14,45.88 0,25.29 -24.29,45.88 -54.14,45.88zm0 0z"/>
  </g>
 </g>
</svg>
