<?xml version="1.0" encoding="UTF-8"?>
<!DOCTYPE svg PUBLIC "-//W3C//DTD SVG 1.1//EN" "http://www.w3.org/Graphics/SVG/1.1/DTD/svg11.dtd">
<!-- Creator: CorelDRAW 2019 (64-Bit Wersja próbna) -->
<svg xmlns="http://www.w3.org/2000/svg" xml:space="preserve" width="2.4679mm" height="2.4696mm" version="1.1" style="shape-rendering:geometricPrecision; text-rendering:geometricPrecision; image-rendering:optimizeQuality; fill-rule:evenodd; clip-rule:evenodd"
viewBox="0 0 5.11 5.11"
 xmlns:xlink="http://www.w3.org/1999/xlink"
 xmlns:xodm="http://www.corel.com/coreldraw/odm/2003">
 <defs>
  <style type="text/css">
   <![CDATA[
    .fil0 {fill:white}
   ]]>
  </style>
 </defs>
 <g id="Warstwa_x0020_1">
  <metadata id="CorelCorpID_0Corel-Layer"/>
  <g id="_2069828665968">
   <path class="fil0" d="M3.21 0.03l-0.05 -0 -0.03 0.02 -0.03 -0 -0.03 0 -0.03 0.02 -0.02 -0 -0.02 0.02 -0.02 0 -0.02 -0 -0.03 0.03 -0.04 0.02c0,0.04 0.01,0.03 -0.03,0.03l-0.02 0 -0.02 0.02 -0.03 0.02 -0.05 0.02 -0.02 0.03 -0.02 0.02 -0.02 0.02 -0.02 0.02c0,0.03 0.01,0.02 -0.03,0.02l-0.02 0.05 -0.02 0.02 -0.02 0.02 0 0.02c0,0.04 0.01,0.03 -0.03,0.03l-0.05 0.11c0,0.04 0.01,0.03 -0.02,0.03l-0 0.04 -0.02 0.04 -0 0.03 0 0.04 -0.03 0.05 -0 0.16c0.04,0 0.02,-0.01 0.02,0.03l0 0.01c0.03,0 0.03,-0.01 0.03,0.03l0.05 0.05c0.03,-0 0.03,-0.01 0.03,0.03l0.02 0 0.04 -0.01 0.07 0.01 0.03 -0.01 0.03 0 0.02 -0.03 0.04 -0.04 0.03 -0.02 -0 -0.02 -0 -0.03 0.02 -0.04 0 -0.12 0.02 -0.04 0 -0.04c-0,-0.04 -0.01,-0.03 0.02,-0.03l0 -0.02 0.02 -0.03 0.02 -0.02 0.04 -0.07 0.03 -0.03 0.05 -0.02c0,-0.03 -0.01,-0.03 0.02,-0.02l0.03 -0.02 0.02 -0c0,-0.03 -0.01,-0.03 0.03,-0.02l0.02 0c0,-0.04 -0.01,-0.02 0.03,-0.02l0.04 -0 0.03 -0.02 0.03 0 0.07 -0c0.04,-0.04 0.07,-0.06 0.11,-0l0.07 0 0.03 -0 0.02 0.02 0.04 0c0.04,-0 0.03,-0.01 0.03,0.02l0.02 -0 0.02 0.02 0.02 0 0.02 0.03 0.05 0.02 0.02 0.02 0.02 0.02 0.02 0.02 0.02 0.02 0.02 0.05 0.03 0.03 0 0.02c0.03,0 0.02,-0.01 0.02,0.03l0 0.02c0.03,0 0.03,-0.01 0.03,0.02l-0 0.03 0 0.05c0.01,0.01 0.03,-0.01 0.02,0.08 -0,0.07 -0.01,0.03 -0.03,0.04l0 0.05 -0.02 0.04 -0 0.03c0,0.04 0.01,0.03 -0.02,0.03l0 0.02c0,0.03 0.01,0.03 -0.02,0.03l-0.02 0.02c-0.04,0.08 -0.04,0.07 -0.12,0.12l-0.02 0.03 -0.05 0.02c0,0.04 0.01,0.03 -0.03,0.02l-0.04 0 -0.04 0.02 -0.04 0 -0.03 0.02 -0.04 -0 -3.33 0 -0.02 0.02 -0.02 0 -0.05 0.02c0,0.03 0.01,0.03 -0.02,0.03l-0.03 0.02 0 0.02 -0.02 0.03 0 0.13 0.02 0.03c0.04,0.07 0.03,0.06 0.11,0.1l0.04 0.02 3.31 0 0.1 -0.03 0.05 0 0.02 -0.02 0.03 0 0.04 -0 0.02 -0.02 0.03 0 0.02 -0c0,-0.03 -0.01,-0.02 0.03,-0.02l0.02 -0c0,-0.04 -0.01,-0.03 0.03,-0.02l0.02 0c0,-0.04 -0.01,-0.03 0.03,-0.02l0.02 -0c0,-0.03 -0.01,-0.03 0.02,-0.03l0.05 -0.02 0.02 -0.03 0.07 -0.04 0.02 -0.03 0.02 -0.02 0.02 -0.02 0.03 -0.02 0.02 -0.05 0.02 -0.02 0.03 -0.02 0 -0.02 0.02 -0.03 0.02 -0.03 0 -0.02 0.02 -0.03 0 -0.03c-0,-0.04 -0.01,-0.03 0.02,-0.03l-0 -0.03 -0 -0.03 0.03 -0.02 -0 -0.03 0 -0.04c-0,-0.05 -0.02,-0.04 0.02,-0.04l0 -0.27 -0.02 -0.06 -0 -0.04 -0.02 -0.02 0 -0.03 0 -0.02 -0.02 -0.02 -0 -0.02 0 -0.02 -0.02 -0.03 -0 -0.02 -0.03 -0.02 -0.02 -0.05 -0.03 -0.02 -0.02 -0.05c-0.03,0 -0.03,0.01 -0.02,-0.03l-0.02 -0.02c-0.03,0 -0.03,0.01 -0.02,-0.02l-0.02 -0.02 -0.02 -0.02 -0.02 -0.02 -0.02 -0.03 -0.05 -0.02 -0.02 -0.03 -0.05 -0.02 -0.02 -0.03 -0.03 0 -0.02 -0.02 -0.02 -0 -0.03 -0.02 -0.03 -0.01c-0.04,0 -0.03,0.01 -0.03,-0.02l-0.04 -0 -0.04 -0.02 -0.05 -0 -0.05 -0c-0.05,0 -0.04,0.02 -0.04,-0.02l-0.25 -0 -0.07 0.03z"/>
   <path class="fil0" d="M0.13 3.23l-0.06 0.03c0,0.03 0.01,0.03 -0.03,0.03l-0.02 0.05 -0.02 0.03 0 0.13 0.02 0.03 0.02 0.05c0.03,0 0.03,-0.01 0.03,0.03l0.05 0.02 0.03 -0c0.03,-0 0.02,-0.01 0.02,0.02l3.36 0 0.05 0.02 0.03 0 0.04 0.02 0.03 0c0.04,-0 0.03,-0.01 0.03,0.02l0.05 0.02 0.02 0.03c0.07,0.05 0.08,0.04 0.12,0.12l0.03 0.02c0.03,-0 0.03,-0.01 0.02,0.03l-0 0.02c0.03,0 0.03,-0.01 0.02,0.03l0 0.03 0.02 0.04 0 0.06c0.01,0.01 0.03,-0.02 0.02,0.07 -0,0.08 0,0.03 -0.02,0.05l-0 0.04 0 0.03 -0.02 0.03 0 0.02c0,0.03 0.01,0.03 -0.02,0.03l-0 0.02 -0.03 0.02 -0.02 0.05 -0.03 0.02 -0.02 0.02 -0.02 0.02 -0.02 0.02 -0.05 0.02 -0.03 0.03 -0.02 0 -0.03 0.02 -0.02 -0c0,0.04 0.01,0.02 -0.03,0.02l-0.03 0 -0.02 0.02 -0.03 -0 -0.06 0 -0.09 0.03 -0.04 -0.01 -0.07 0.02c0,0.03 0.01,0.03 -0.03,0.03l-0.02 0.04 -0.02 0.03 0 0.14c0.03,0 0.02,-0.01 0.02,0.03l0 0.02 0.03 0.02c0.03,-0 0.03,-0.01 0.02,0.03l0.02 0.03 0.02 -0 0.03 0.02 0.18 -0c0,-0.04 -0.01,-0.03 0.04,-0.02l0.05 0 0.06 -0 0.04 -0.03 0.03 0c0,-0.03 -0.01,-0.02 0.03,-0.02l0.03 -0 0.03 -0.02 0.02 0 0.03 -0.02 0.02 -0 0.02 -0.03 0.05 -0.02 0.02 -0.03 0.05 -0.02 0.02 -0.02 0.02 -0.02 0.02 -0.02 0.02 -0.02c-0,-0.03 -0.01,-0.03 0.03,-0.02l0.02 -0.02c-0,-0.03 -0.01,-0.02 0.02,-0.02l0.02 -0.05c-0,-0.03 -0.01,-0.03 0.03,-0.03l0.02 -0.05 0.03 -0.02 0 -0.02 0.02 -0.03 -0 -0.02 0.02 -0.03 0 -0.03 0.02 -0.04 0 -0.04 0 -0.04c-0,-0.04 -0.01,-0.03 0.02,-0.03l0 -0.28 -0.02 -0.06 0 -0.04 -0.02 -0.02 -0 -0.03 0 -0.02c-0.04,0 -0.02,0.01 -0.02,-0.03l-0 -0.03 -0.02 -0.03 0 -0.02 -0.02 -0.03 -0.02 -0.03 -0 -0.02 -0.03 -0.02c-0.03,0 -0.03,0.01 -0.02,-0.03l-0.02 -0.05 -0.03 -0.02c-0.03,0 -0.02,0.01 -0.02,-0.02l-0.02 -0.02c-0.03,0 -0.02,0.01 -0.02,-0.03l-0.07 -0.04 -0.03 -0.02 -0.02 -0.02 -0.02 -0 -0.03 -0.02 -0.02 0c-0.04,0 -0.03,0.01 -0.03,-0.02l-0.06 -0.02c-0.04,0 -0.03,0.01 -0.03,-0.02l-0.02 0 -0.03 -0 -0.03 -0.02 -0.03 -0 -0.05 -0.02 -0.08 -0 -0.06 0 -0.04 -0.03 -3.29 0 -0.04 0.02z"/>
   <path class="fil0" d="M4.81 1.76l-0.01 0c0,0.03 0.01,0.03 -0.03,0.03l-0.05 0.05 -0.02 0.03 0 0.02 0 0.04 -0.03 0.07 -0 0.05 -0.02 0.04 0 0.02 -0.02 0.03 -0 0.02 -0.03 0.02 -0.09 0.09 -0.02 0.03 -0.04 0.02c0,0.04 0.01,0.03 -0.03,0.02l-0.04 0 -0.03 0.02 -0.04 -0 -0.07 0.03 -4.04 -0 -0.05 0.03 -0.07 0.02c0,0.03 0.01,0.03 -0.03,0.03l-0.02 0.05 -0.02 0.03 0 0.13 0.02 0.03 0.02 0.05c0.03,0 0.03,-0.01 0.03,0.03l0.06 0.03 0.04 0.02 4.05 0 0.08 -0.02 0.07 0 0.03 -0.02 0.03 0 0.03 -0c0,-0.04 -0.01,-0.03 0.03,-0.02l0.04 -0 0.03 -0.02 0.02 0c0,-0.03 -0.01,-0.02 0.03,-0.02l0.02 0 0.03 -0.02 0.02 0 0.02 -0.03 0.04 -0.02 0.02 -0.03 0.02 -0.03c0.07,-0.04 0.08,-0.05 0.12,-0.12l0.02 -0.02 0.03 -0.02 0.02 -0.05 0.03 -0.02 0 -0.02c-0,-0.03 -0.01,-0.03 0.02,-0.03l0 -0.02c-0,-0.04 -0.01,-0.03 0.02,-0.03l0 -0.04c-0,-0.04 -0.01,-0.03 0.02,-0.03l-0 -0.04 0.02 -0.06 -0 -0.18 -0.02 -0.03 0 -0.02 -0.02 -0.02c-0.03,0 -0.02,0.01 -0.02,-0.03l-0.04 -0.02 -0.03 0 -0.02 -0.02 -0.09 0 -0.04 0.02z"/>
   <path class="fil0" d="M3.99 4.23c0.03,-0.02 0.02,0.03 0.02,-0.05 0,-0.1 -0.01,-0.06 -0.02,-0.07l-0 0.12z"/>
   <path class="fil0" d="M3.47 0.43c-0.04,-0.06 -0.07,-0.04 -0.11,0l0.11 -0z"/>
   <path class="fil0" d="M3.99 1.02c0.02,-0.01 0.02,0.03 0.03,-0.04 0.01,-0.09 -0.01,-0.07 -0.02,-0.08l-0 0.12z"/>
   <polygon class="fil0" points="2.65,1.17 2.65,1.15 2.58,1.14 2.58,1.16 "/>
   <polygon class="fil0" points="3.47,4.68 3.38,4.68 3.38,4.71 "/>
   <path class="fil0" d="M3.57 0.03l0 -0.03 -0.04 0.01c0,0.04 -0.01,0.02 0.04,0.02z"/>
   <path class="fil0" d="M3.57 5.11l0 -0.03c-0.05,-0 -0.04,-0.02 -0.04,0.02l0.04 0z"/>
   <path class="fil0" d="M4.42 1.13l-0.01 -0.04c-0.04,0 -0.02,-0.01 -0.02,0.04l0.03 0z"/>
   <polygon class="fil0" points="4.68,1.99 4.71,1.91 4.68,1.91 "/>
   <path class="fil0" d="M3.66 4.63c-0.04,-0 -0.03,-0.01 -0.03,0.02 0.04,0 0.03,0.01 0.03,-0.02z"/>
   <path class="fil0" d="M3.79 0.07c0,-0.04 0.01,-0.02 -0.03,-0.02 0,0.03 -0.01,0.02 0.03,0.02z"/>
   <path class="fil0" d="M3.29 0.43l-0.03 -0 0 0.02c0.04,0 0.03,0.01 0.03,-0.02z"/>
   <path class="fil0" d="M3.99 4.3l-0 -0.03c-0.04,0 -0.03,-0.01 -0.02,0.03l0.02 0z"/>
   <path class="fil0" d="M4.42 4.33l-0 -0.03c-0.04,0 -0.03,-0.01 -0.02,0.03l0.03 0z"/>
   <polygon class="fil0" points="3.57,3.23 3.51,3.21 3.51,3.24 "/>
   <path class="fil0" d="M3.13 0.05l0 -0.02c-0.04,-0 -0.03,-0.01 -0.03,0.02l0.03 0z"/>
   <polygon class="fil0" points="3.62,0.03 3.57,0 3.57,0.03 "/>
   <path class="fil0" d="M2.64 0.33c-0.03,-0 -0.03,-0.01 -0.03,0.02 0.03,0 0.03,0.01 0.03,-0.02z"/>
   <path class="fil0" d="M2.83 1l-0.02 0 0 0.03c0.03,0 0.02,0.01 0.02,-0.03z"/>
   <path class="fil0" d="M3.78 3.28c0,-0.03 0.01,-0.03 -0.03,-0.02l0 0.02 0.03 0z"/>
   <polygon class="fil0" points="3.62,5.09 3.57,5.09 3.57,5.11 "/>
   <path class="fil0" d="M0.15 3.64l0 -0.02 -0.03 0c0,0.03 -0.01,0.02 0.03,0.02z"/>
   <path class="fil0" d="M0.17 3.64c0,-0.03 0.01,-0.03 -0.02,-0.02l0 0.02 0.02 -0z"/>
   <path class="fil0" d="M3.99 0.81c0,-0.03 0.01,-0.02 -0.03,-0.02l0 0.02 0.02 0z"/>
   <path class="fil0" d="M0.17 3.21c-0.05,-0 -0.04,-0.02 -0.04,0.02l0.04 -0.02z"/>
   <polygon class="fil0" points="3.51,3.24 3.51,3.21 3.47,3.21 "/>
   <path class="fil0" d="M3.99 1.06c-0.04,0 -0.02,-0.01 -0.02,0.04l0.02 -0.04z"/>
   <polygon class="fil0" points="2.58,1.16 2.58,1.14 2.54,1.14 "/>
   <polygon class="fil0" points="2.4,0.84 2.43,0.8 2.4,0.8 "/>
   <polygon class="fil0" points="4.39,1.16 4.42,1.13 4.4,1.13 "/>
   <polygon class="fil0" points="3.38,4.71 3.38,4.68 3.34,4.71 "/>
   <polygon class="fil0" points="4.39,4.37 4.42,4.33 4.4,4.33 "/>
   <path class="fil0" d="M4.44 2.31l-0.03 0.02c0.04,0 0.03,0.02 0.03,-0.02z"/>
   <path class="fil0" d="M3.71 1.4l-0.03 0.02c0.04,0 0.03,0.02 0.03,-0.02z"/>
   <path class="fil0" d="M3.64 3.68l-0.04 -0.02c0,0.04 -0.01,0.02 0.04,0.02z"/>
   <polygon class="fil0" points="2.43,0.8 2.42,0.76 2.4,0.8 "/>
   <polygon class="fil0" points="4.71,1.91 4.7,1.87 4.68,1.91 "/>
   <polygon class="fil0" points="2.83,1 2.83,0.97 2.8,1 "/>
   <path class="fil0" d="M4.5 2.74c-0.04,-0 -0.03,-0.02 -0.03,0.02l0.03 -0.02z"/>
   <polygon class="fil0" points="3.54,1.48 3.54,1.45 3.5,1.47 "/>
   <path class="fil0" d="M4.35 1.33l-0.02 0.03c0.04,0 0.03,0.01 0.02,-0.03z"/>
   <path class="fil0" d="M0.03 1.79l-0.02 -0.03c-0,0.04 -0.01,0.03 0.02,0.03z"/>
   <path class="fil0" d="M3.88 1.79c-0.04,-0 -0.03,-0.01 -0.03,0.02l0.03 -0.02z"/>
   <path class="fil0" d="M2.95 0.1c-0.04,-0 -0.03,-0.01 -0.03,0.03l0.03 -0.03z"/>
   <path class="fil0" d="M2.88 0.74c-0.04,0 -0.03,-0.01 -0.02,0.03l0.02 -0.03z"/>
   <path class="fil0" d="M5.1 1.89c0,-0.04 0.01,-0.03 -0.02,-0.03l0.02 0.03z"/>
   <path class="fil0" d="M5.08 2.17c-0.04,0 -0.02,-0.01 -0.02,0.03l0.02 -0.03z"/>
   <path class="fil0" d="M2.42 1.03c0,-0.04 0.01,-0.03 -0.02,-0.03l0.02 0.03z"/>
   <path class="fil0" d="M3.19 0.46c-0.04,-0 -0.03,-0.01 -0.03,0.02l0.03 -0.02z"/>
   <polygon class="fil0" points="3.69,1.86 3.66,1.86 3.66,1.88 "/>
   <path class="fil0" d="M0.03 2.69l-0.02 -0.03c-0,0.04 -0.01,0.03 0.02,0.03z"/>
   <path class="fil0" d="M0.03 2.5c-0.04,0 -0.02,-0.01 -0.02,0.03l0.02 -0.03z"/>
   <path class="fil0" d="M4.37 3.85l-0.02 -0.03c-0,0.04 -0.01,0.03 0.02,0.03z"/>
   <path class="fil0" d="M0.03 3.33c-0.04,0 -0.02,-0.01 -0.02,0.03l0.02 -0.03z"/>
   <path class="fil0" d="M3.66 0.48c0,-0.04 0.01,-0.02 -0.03,-0.02l0.03 0.02z"/>
   <path class="fil0" d="M3.79 5.04c-0.04,-0 -0.03,-0.01 -0.03,0.02l0.03 -0.02z"/>
   <path class="fil0" d="M3.71 3.71c0,-0.04 0.01,-0.03 -0.03,-0.02l0.03 0.02z"/>
   <path class="fil0" d="M4.35 3.79c0,-0.04 0.01,-0.03 -0.02,-0.03l0.02 0.03z"/>
   <polygon class="fil0" points="3.99,0.84 3.99,0.81 3.97,0.81 "/>
   <polygon class="fil0" points="2.68,1.14 2.65,1.15 2.65,1.17 "/>
   <path class="fil0" d="M2.47 0.62l-0.02 0.03c0.03,0 0.02,0.01 0.02,-0.03z"/>
   <path class="fil0" d="M3.85 0.1c0,-0.03 0.01,-0.02 -0.03,-0.02l0.03 0.02z"/>
   <path class="fil0" d="M3.92 3.35l-0.03 -0.02c0,0.04 -0.01,0.03 0.03,0.02z"/>
   <path class="fil0" d="M4.37 1.26c-0.03,0 -0.02,-0.01 -0.02,0.03l0.02 -0.03z"/>
   <path class="fil0" d="M3.97 3.98c0,-0.04 0.01,-0.03 -0.02,-0.03l0.02 0.03z"/>
   <path class="fil0" d="M3.92 1.76c-0.04,-0 -0.03,-0.01 -0.03,0.02l0.03 -0.02z"/>
   <path class="fil0" d="M2.88 0.14l-0.03 0.03c0.04,0 0.03,0.01 0.03,-0.03z"/>
   <path class="fil0" d="M3.97 1.14l-0.02 0.03c0.03,0 0.03,0.01 0.02,-0.03z"/>
   <path class="fil0" d="M3.85 5.02l-0.03 0.02c0.04,0 0.03,0.01 0.03,-0.02z"/>
   <path class="fil0" d="M3.83 3.3l-0.03 -0.02c0,0.03 -0.01,0.02 0.03,0.02z"/>
   <path class="fil0" d="M4.28 4.66c-0.04,0 -0.03,-0.01 -0.03,0.03l0.03 -0.03z"/>
   <path class="fil0" d="M3.23 5c0,-0.04 0.01,-0.03 -0.02,-0.03l0.02 0.03z"/>
   <path class="fil0" d="M4.21 4.75l-0.02 0.02c0.04,0 0.03,0.01 0.02,-0.02z"/>
   <path class="fil0" d="M3.94 3.92c0,-0.04 0.01,-0.03 -0.02,-0.03l0.02 0.03z"/>
   <polygon class="fil0" points="4.43,2.76 4.4,2.76 4.4,2.78 "/>
   <path class="fil0" d="M2.99 0.57l-0.03 0.03c0.04,0 0.03,0.01 0.03,-0.03z"/>
   <path class="fil0" d="M2.54 0.48l-0.03 0.03c0.03,0 0.03,0.01 0.03,-0.03z"/>
   <path class="fil0" d="M0.07 3.59c0,-0.03 0.01,-0.03 -0.03,-0.03l0.03 0.03z"/>
   <path class="fil0" d="M2.52 1.14c0,-0.04 0.01,-0.03 -0.03,-0.03l0.03 0.03z"/>
   <path class="fil0" d="M3.97 0.77c0,-0.04 0.01,-0.03 -0.02,-0.03l0.02 0.03z"/>
   <path class="fil0" d="M3.14 0.48c-0.04,-0 -0.03,-0.01 -0.03,0.02l0.03 -0.02z"/>
   <path class="fil0" d="M5.06 2.24c-0.03,0 -0.02,-0.01 -0.02,0.03l0.02 -0.03z"/>
   <path class="fil0" d="M3.92 3.9l-0.03 -0.02c-0,0.03 -0.01,0.03 0.03,0.02z"/>
   <path class="fil0" d="M3.83 1.81c-0.04,-0 -0.03,-0.01 -0.03,0.02l0.03 -0.02z"/>
   <path class="fil0" d="M4.61 2.69c-0.04,-0 -0.03,-0.01 -0.03,0.02l0.03 -0.02z"/>
   <path class="fil0" d="M4.66 2.09c-0.03,0 -0.03,-0.01 -0.02,0.03l0.02 -0.03z"/>
   <polygon class="fil0" points="3.56,4.68 3.56,4.66 3.53,4.68 "/>
   <polygon class="fil0" points="3.56,0.45 3.56,0.43 3.53,0.43 "/>
   <path class="fil0" d="M4.71 2.64l-0.02 0.03c0.03,0 0.02,0.01 0.02,-0.03z"/>
   <path class="fil0" d="M4.21 3.57c-0,-0.03 0.01,-0.03 -0.03,-0.02l0.03 0.02z"/>
   <path class="fil0" d="M2.73 1.12l-0.02 0.03c0.03,0 0.02,0.01 0.02,-0.03z"/>
   <path class="fil0" d="M4.25 3.64l-0.02 -0.03c-0,0.03 -0.01,0.03 0.02,0.03z"/>
   <path class="fil0" d="M3.28 4.73l-0.03 0.03c0.03,0 0.03,0.01 0.03,-0.03z"/>
   <path class="fil0" d="M4.18 4.78c-0.03,-0 -0.03,-0.01 -0.03,0.02l0.03 -0.02z"/>
   <path class="fil0" d="M0.07 2.42l-0.03 0.03c0.03,0 0.03,0.01 0.03,-0.03z"/>
   <path class="fil0" d="M2.45 1.07c0,-0.03 0.01,-0.03 -0.03,-0.03l0.03 0.03z"/>
   <path class="fil0" d="M4.8 1.76l-0.03 0.03c0.03,0 0.03,0.01 0.03,-0.03z"/>
   <path class="fil0" d="M0.07 2.76c0,-0.03 0.01,-0.03 -0.03,-0.03l0.03 0.03z"/>
   <path class="fil0" d="M2.8 1.05l-0.03 0.02c0.03,0 0.03,0.01 0.03,-0.02z"/>
   <polygon class="fil0" points="4.39,0.69 4.37,0.66 4.37,0.69 "/>
   <path class="fil0" d="M0.07 3.26l-0.03 0.03c0.03,0 0.03,0.01 0.03,-0.03z"/>
   <path class="fil0" d="M3.75 4.58c-0.03,0 -0.03,-0.01 -0.03,0.03l0.03 -0.03z"/>
   <path class="fil0" d="M3.94 0.72l-0.03 -0.03c0,0.03 -0.01,0.03 0.03,0.03z"/>
   <path class="fil0" d="M0.07 1.52l-0.02 0.03c0.03,0 0.02,0.01 0.02,-0.03z"/>
   <path class="fil0" d="M3.28 5.06c0,-0.03 0.01,-0.03 -0.02,-0.03l0.02 0.03z"/>
   <path class="fil0" d="M4.23 0.38l-0.02 -0.03c-0,0.03 -0.01,0.03 0.02,0.03z"/>
   <path class="fil0" d="M5.06 1.81l-0.02 -0.03c0,0.03 -0.01,0.03 0.02,0.03z"/>
   <path class="fil0" d="M5.04 2.28c-0.03,0 -0.03,-0.01 -0.02,0.03l0.02 -0.03z"/>
   <path class="fil0" d="M3.94 1.19l-0.02 0.03c0.03,0 0.02,0.01 0.02,-0.03z"/>
   <path class="fil0" d="M3.3 5.09l-0.02 -0.03c-0,0.03 -0.01,0.03 0.02,0.03z"/>
   <path class="fil0" d="M4.35 0.57c0,-0.03 0.01,-0.03 -0.02,-0.03l0.02 0.03z"/>
   <path class="fil0" d="M4.13 3.49l-0.02 -0.03c0,0.03 -0.01,0.03 0.02,0.03z"/>
   <path class="fil0" d="M3.9 4.99l-0.03 0.02c0.03,0 0.03,0.01 0.03,-0.02z"/>
   <path class="fil0" d="M4.23 4.73c-0.03,0 -0.03,-0.01 -0.02,0.02l0.02 -0.02z"/>
   <path class="fil0" d="M4.8 2.57l-0.02 0.03c0.03,0 0.02,0.01 0.02,-0.03z"/>
   <path class="fil0" d="M3.97 1.74c-0.03,-0 -0.02,-0.01 -0.02,0.03l0.02 -0.03z"/>
   <path class="fil0" d="M3.23 4.8c-0.03,0 -0.02,-0.01 -0.02,0.03l0.02 -0.03z"/>
   <polygon class="fil0" points="3.57,1.45 3.54,1.45 3.54,1.48 "/>
   <path class="fil0" d="M4.21 0.36c0,-0.03 0.01,-0.02 -0.02,-0.02l0.02 0.02z"/>
   <path class="fil0" d="M4.16 3.52c0,-0.03 0.01,-0.03 -0.02,-0.02l0.02 0.02z"/>
   <path class="fil0" d="M3.97 4.35l-0.02 0.03c0.03,0 0.02,0.01 0.02,-0.03z"/>
   <path class="fil0" d="M3.06 0.53c-0.03,-0 -0.02,-0.01 -0.02,0.02l0.02 -0.02z"/>
   <polygon class="fil0" points="4.39,1.21 4.37,1.21 4.37,1.24 "/>
   <path class="fil0" d="M4.18 0.34l-0.02 -0.02c-0,0.03 -0.01,0.03 0.02,0.02z"/>
   <polygon class="fil0" points="3.99,4.3 3.97,4.3 3.97,4.33 "/>
   <polygon class="fil0" points="3.76,3.28 3.76,3.26 3.73,3.26 "/>
   <path class="fil0" d="M4.18 3.54l-0.02 -0.02c-0,0.03 -0.01,0.02 0.02,0.02z"/>
   <polygon class="fil0" points="3.26,0.46 3.26,0.43 3.23,0.46 "/>
   <polygon class="fil0" points="3.78,1.83 3.75,1.83 3.75,1.86 "/>
   <polygon class="fil0" points="4.4,2.78 4.4,2.76 4.37,2.78 "/>
   <polygon class="fil0" points="3.16,0.03 3.13,0.03 3.13,0.05 "/>
   <polygon class="fil0" points="4.99,1.76 4.96,1.74 4.96,1.76 "/>
   <polygon class="fil0" points="3.75,1.86 3.75,1.83 3.73,1.86 "/>
   <polygon class="fil0" points="4.39,3.9 4.37,3.88 4.37,3.9 "/>
   <polygon class="fil0" points="4.96,1.76 4.96,1.74 4.94,1.74 "/>
   <polygon class="fil0" points="4.39,0.72 4.39,0.69 4.37,0.69 "/>
   <polygon class="fil0" points="3.66,1.88 3.66,1.86 3.64,1.88 "/>
   <polygon class="fil0" points="0.15,1.5 0.15,1.48 0.12,1.5 "/>
   <polygon class="fil0" points="3.02,0.07 2.99,0.07 2.99,0.1 "/>
   <polygon class="fil0" points="4.37,0.64 4.37,0.62 4.35,0.62 "/>
   <polygon class="fil0" points="3.59,0.46 3.56,0.43 3.56,0.45 "/>
   <polygon class="fil0" points="3.59,4.66 3.56,4.66 3.56,4.68 "/>
   <polygon class="fil0" points="2.99,0.1 2.99,0.07 2.97,0.1 "/>
   <polygon class="fil0" points="4.37,0.62 4.35,0.6 4.35,0.62 "/>
   <polygon class="fil0" points="4.39,1.21 4.39,1.19 4.37,1.21 "/>
   <polygon class="fil0" points="4.4,3.92 4.39,3.9 4.37,3.9 "/>
   <polygon class="fil0" points="0.17,1.48 0.15,1.48 0.15,1.5 "/>
   <polygon class="fil0" points="0.19,2.38 0.14,2.4 "/>
   <polygon class="fil0" points="4.97,2.4 4.94,2.43 "/>
   <polygon class="fil0" points="4.18,1.57 4.16,1.6 "/>
   <polygon class="fil0" points="4.94,2.43 4.92,2.45 "/>
   <polygon class="fil0" points="4.21,1.55 4.18,1.57 "/>
   <polygon class="fil0" points="0.05,1.55 0.02,1.57 "/>
   <polygon class="fil0" points="4.77,2.59 4.75,2.62 "/>
   <polygon class="fil0" points="4.25,1.48 4.23,1.5 "/>
   <polygon class="fil0" points="4.66,2.67 4.63,2.69 "/>
   <polygon class="fil0" points="3.78,1.36 3.75,1.38 "/>
   <polygon class="fil0" points="4.56,2.71 4.54,2.74 "/>
   <polygon class="fil0" points="4.28,1.45 4.25,1.48 "/>
   <polygon class="fil0" points="3.64,1.43 3.6,1.45 "/>
   <polygon class="fil0" points="0.18,2.8 0.13,2.79 "/>
   <polygon class="fil0" points="4.3,1.41 4.28,1.43 "/>
   <polygon class="fil0" points="4.31,2.78 4.22,2.81 "/>
   <polygon class="fil0" points="4.32,1.38 4.3,1.41 "/>
   <polygon class="fil0" points="3.92,1.21 3.89,1.24 "/>
   <polygon class="fil0" points="3.7,3.25 3.65,3.24 "/>
   <polygon class="fil0" points="2.85,0.81 2.83,0.85 "/>
   <polygon class="fil0" points="4.42,0.81 4.4,0.76 "/>
   <polygon class="fil0" points="2.59,0.41 2.57,0.43 "/>
   <polygon class="fil0" points="2.9,0.69 2.88,0.72 "/>
   <polygon class="fil0" points="2.44,0.68 2.43,0.72 "/>
   <polygon class="fil0" points="2.92,0.67 2.9,0.69 "/>
   <polygon class="fil0" points="3.97,3.37 3.94,3.35 "/>
   <polygon class="fil0" points="4.01,3.4 3.99,3.38 "/>
   <polygon class="fil0" points="4.04,3.42 4.01,3.4 "/>
   <polygon class="fil0" points="0.03,3.52 0,3.49 "/>
   <polygon class="fil0" points="3.9,0.65 3.87,0.62 "/>
   <polygon class="fil0" points="3.87,0.62 3.85,0.6 "/>
   <polygon class="fil0" points="3.85,0.6 3.82,0.58 "/>
   <polygon class="fil0" points="3.82,0.58 3.8,0.55 "/>
   <polygon class="fil0" points="4.32,0.53 4.3,0.5 "/>
   <polygon class="fil0" points="3.75,0.53 3.73,0.5 "/>
   <polygon class="fil0" points="3.57,3.66 3.53,3.64 "/>
   <polygon class="fil0" points="4.28,3.66 4.25,3.64 "/>
   <polygon class="fil0" points="3.09,0.51 3.06,0.53 "/>
   <polygon class="fil0" points="3.71,0.5 3.68,0.48 "/>
   <polygon class="fil0" points="4.3,3.71 4.28,3.68 "/>
   <polygon class="fil0" points="4.32,3.74 4.3,3.71 "/>
   <polygon class="fil0" points="3.78,3.76 3.76,3.73 "/>
   <polygon class="fil0" points="4.28,0.46 4.25,0.43 "/>
   <polygon class="fil0" points="4.68,2.04 4.66,2.07 "/>
   <polygon class="fil0" points="2.57,0.43 2.54,0.45 "/>
   <polygon class="fil0" points="4.85,1.74 4.81,1.76 "/>
   <polygon class="fil0" points="2.66,0.31 2.64,0.33 "/>
   <polygon class="fil0" points="5.08,2.12 5.11,2.07 "/>
   <polygon class="fil0" points="4.16,0.31 4.13,0.29 "/>
   <polygon class="fil0" points="4.42,4.02 4.39,3.97 "/>
   <polygon class="fil0" points="3.99,4.05 3.97,4.01 "/>
   <polygon class="fil0" points="2.68,0.29 2.66,0.31 "/>
   <polygon class="fil0" points="4.13,0.29 4.11,0.27 "/>
   <polygon class="fil0" points="2.71,0.27 2.68,0.29 "/>
   <polygon class="fil0" points="4.11,0.27 4.09,0.24 "/>
   <polygon class="fil0" points="2.73,0.24 2.71,0.27 "/>
   <polygon class="fil0" points="4.09,0.24 4.06,0.22 "/>
   <polygon class="fil0" points="3.94,4.4 3.92,4.42 "/>
   <polygon class="fil0" points="4.39,4.41 4.37,4.45 "/>
   <polygon class="fil0" points="3.9,4.47 3.87,4.49 "/>
   <polygon class="fil0" points="3.87,4.49 3.85,4.52 "/>
   <polygon class="fil0" points="4.37,4.48 4.35,4.52 "/>
   <polygon class="fil0" points="3.85,4.52 3.82,4.54 "/>
   <polygon class="fil0" points="3.82,4.54 3.8,4.56 "/>
   <polygon class="fil0" points="4.35,4.54 4.32,4.57 "/>
   <polygon class="fil0" points="3.28,0 3.21,0.03 "/>
   <polygon class="fil0" points="4.32,4.59 4.3,4.61 "/>
   <polygon class="fil0" points="3.71,4.61 3.68,4.63 "/>
   <polygon class="fil0" points="4.63,2.14 4.61,2.16 "/>
   <polygon class="fil0" points="4.01,0.2 3.99,0.17 "/>
   <polygon class="fil0" points="4.04,1.69 4.01,1.72 "/>
   <polygon class="fil0" points="2.83,0.17 2.8,0.19 "/>
   <polygon class="fil0" points="3.94,0.15 3.92,0.12 "/>
   <polygon class="fil0" points="3.89,0.12 3.87,0.1 "/>
   <polygon class="fil0" points="4.13,1.62 4.11,1.64 "/>
   <polygon class="fil0" points="4.51,2.26 4.49,2.28 "/>
   <polygon class="fil0" points="3.07,0.05 3.04,0.07 "/>
   <polygon class="fil0" points="3.72,0.05 3.67,0.03 "/>
   <polygon class="fil0" points="4.16,1.6 4.13,1.62 "/>
   <polygon class="fil0" points="4.16,4.8 4.13,4.82 "/>
   <polygon class="fil0" points="4.13,4.82 4.11,4.85 "/>
   <polygon class="fil0" points="4.11,4.85 4.09,4.87 "/>
   <polygon class="fil0" points="2.8,0.19 2.78,0.22 "/>
   <polygon class="fil0" points="4.01,4.92 3.99,4.95 "/>
   <polygon class="fil0" points="0.03,1.6 0,1.63 "/>
   <polygon class="fil0" points="3.94,4.97 3.92,4.99 "/>
   <polygon class="fil0" points="4.73,1.83 4.7,1.86 "/>
   <polygon class="fil0" points="3.26,5.04 3.23,5.01 "/>
   <polygon class="fil0" points="4.38,2.33 4.34,2.35 "/>
   <polygon class="fil0" points="5.01,2.33 4.99,2.35 "/>
   <polygon class="fil0" points="5.08,1.83 5.06,1.81 "/>
   <polygon class="fil0" points="0.18,1.9 0.14,1.88 "/>
   <polygon class="fil0" points="3.72,5.06 3.68,5.09 "/>
   <polygon class="fil0" points="3.35,5.11 3.32,5.09 "/>
   <polygon class="fil0" points="3.59,1.88 3.49,1.91 "/>
   <polygon class="fil0" points="4.3,2.35 4.23,2.38 "/>
   <polygon class="fil0" points="4.09,4.87 4.06,4.9 "/>
  </g>
 </g>
</svg>
